<?xml version="1.0" encoding="UTF-8"?>
<svg width="11px" height="10px" viewBox="0 0 11 10" version="1.1" xmlns="http://www.w3.org/2000/svg" xmlns:xlink="http://www.w3.org/1999/xlink">
    <!-- Generator: Sketch 53 (72520) - https://sketchapp.com -->
    <title>confetti 2</title>
    <desc>Created with Sketch.</desc>
    <g id="Page-1" stroke="none" stroke-width="1" fill="none" fill-rule="evenodd">
        <g id="Binarycent-Giveaway" transform="translate(-1009.000000, -81.000000)" fill-rule="nonzero">
            <g id="header" transform="translate(312.000000, 0.000000)">
                <g id="confetti-2" transform="translate(697.121567, 80.999992)">
                    <path d="M9.96606055,2.12110937 L9.42756153,0.143008751 C9.38842289,-0.000601151855 9.20872016,-0.0484203721 9.10333517,0.0569646571 L8.55646016,0.603839628 C8.38787467,0.772425164 8.32269431,1.01852653 8.38574258,1.24848512 L8.91403814,3.17313179 C8.9770864,3.40293807 8.91205837,3.64903943 8.74347283,3.81762497 L9.79549525,2.76560255 C9.96392851,2.59701702 10.0291088,2.35091565 9.96606055,2.12110937 L9.96606055,2.12110937 Z" id="Path-Copy-3" fill="#EF5350"></path>
                    <path d="M5.73299525,6.35417468 L5.20469969,4.42952801 C5.14165143,4.19972169 5.20683178,3.95362033 5.37541728,3.78503483 L6.42743969,2.73301238 C6.25885416,2.90159791 6.19367389,3.14769928 6.25672211,3.37750555 L6.78501767,5.30215226 C6.84806593,5.53211086 6.78288562,5.77821222 6.61430008,5.94679772 L5.56227767,6.99866785 C5.7308632,6.83008232 5.79604352,6.58413323 5.73299525,6.35417468 L5.73299525,6.35417468 Z" id="Path-Copy-2" fill="#EF5350"></path>
                    <path d="M3.6038225,8.48319514 L3.07567923,6.55854844 C3.01247868,6.32874216 3.07765899,6.0826408 3.24624453,5.91405526 L2.19422211,6.96607772 C2.02563658,7.13466321 1.96060854,7.38076458 2.02365681,7.61057089 L2.56032835,9.59004212 C2.5993147,9.73395659 2.77916971,9.78177581 2.8845547,9.67639082 L3.4332572,9.1278406 C3.60184274,8.95925511 3.66702305,8.71315374 3.6038225,8.48319514 Z" id="Path-Copy" fill="#EF5350"></path>
                    <path d="M8.91403814,3.17313179 L8.85373112,2.9530721 L7.14914414,2.48523585 C6.91918554,2.4220353 6.67308418,2.48721561 6.50449868,2.65580115 L6.42743969,2.73301238 C6.25885416,2.90159791 6.19367389,3.14769928 6.25672211,3.37750555 L6.31718141,3.59756528 L8.02176839,4.06540154 C8.2515747,4.12844976 8.49767607,4.06342173 8.66626157,3.89483624 L8.74347283,3.81762497 C8.91190609,3.64903943 8.9770864,3.40293807 8.91403814,3.17313179 Z" id="Path-Copy-5" fill="#FFCA28"></path>
                    <path d="M5.73299525,6.35417468 L5.67253595,6.13411499 L3.96794897,5.66627873 C3.73814266,5.60323047 3.49204129,5.66841078 3.3234558,5.83699631 L3.24624453,5.91405526 C3.07765899,6.0826408 3.012631,6.32874216 3.07567923,6.55870076 L3.13598624,6.77876045 L4.84057322,7.2465967 C5.07053182,7.30964497 5.31663318,7.24446462 5.48521868,7.07587912 L5.56242995,6.99866785 C5.7308632,6.83008232 5.79604352,6.58398095 5.73299525,6.35417468 Z" id="Path-Copy-4" fill="#FFCA28"></path>
                    <path d="M4.00000801,3.62150224 C4.00000801,3.89765177 3.77609241,4.12156736 3.49994287,4.12156736 C3.22392358,4.12156736 3.00000801,3.89765177 3.00000801,3.62150224 C3.00000801,3.34535271 3.22392358,3.12156736 3.49994287,3.12156736 C3.77609241,3.12156736 4.00000801,3.34535271 4.00000801,3.62150224 L4.00000801,3.62150224 Z" id="Path-Copy-8" fill="#004FBF" transform="translate(3.500008, 3.621567) rotate(270.000000) translate(-3.500008, -3.621567) "></path>
                    <path d="M-0.49999199,5.38977201 L-0.49999199,4.85336272 C-0.49999199,4.72530245 -0.377289197,4.62156736 -0.225813421,4.62156736 L1.22601506,4.62156736 C1.37730522,4.62156736 1.50000801,4.72530245 1.50000801,4.85336272 L1.50000801,5.38977201 C1.50000801,5.51783228 1.37730522,5.62156736 1.22601506,5.62156736 L-0.225813421,5.62156736 C-0.377289197,5.62156736 -0.49999199,5.51783228 -0.49999199,5.38977201 L-0.49999199,5.38977201 Z" id="Path-Copy-7" fill="#FFA000" transform="translate(0.500008, 5.121567) rotate(270.000000) translate(-0.500008, -5.121567) "></path>
                    <path d="M9.26836959,8.62156736 L8.73180339,8.62156736 C8.60374313,8.62156736 8.50000801,8.49886457 8.50000801,8.34757442 L8.50000801,6.89574597 C8.50000801,6.7442702 8.60374313,6.62156736 8.73180339,6.62156736 L9.26836959,6.62156736 C9.39627293,6.62156736 9.50000801,6.7442702 9.50000801,6.89574597 L9.50000801,8.34757442 C9.50000801,8.49886457 9.39627293,8.62156736 9.26836959,8.62156736 Z" id="Path-Copy-6" fill="#FFA000" transform="translate(9.000008, 7.621567) rotate(270.000000) translate(-9.000008, -7.621567) "></path>
                </g>
            </g>
        </g>
    </g>
</svg>