<?xml version="1.0" encoding="UTF-8"?>
<svg width="20px" height="20px" viewBox="0 0 20 20" version="1.1" xmlns="http://www.w3.org/2000/svg" xmlns:xlink="http://www.w3.org/1999/xlink">
    <!-- Generator: Sketch 53 (72520) - https://sketchapp.com -->
    <title>confetti 1</title>
    <desc>Created with Sketch.</desc>
    <g id="Page-1" stroke="none" stroke-width="1" fill="none" fill-rule="evenodd">
        <g id="Binarycent-Giveaway" transform="translate(-1113.000000, -72.000000)" fill-rule="nonzero">
            <g id="header" transform="translate(312.000000, 0.000000)">
                <g id="confetti-1" transform="translate(801.000000, 72.000000)">
                    <path d="M11.7482943,14.2531676 L5.72749146,8.23236476 C5.66078827,8.16566156 5.56591131,8.13520347 5.47286183,8.15073708 C5.3798124,8.16611844 5.29985988,8.22566398 5.2582846,8.31033747 L0.103862066,18.8157895 C-0.0478191813,19.1249391 0.0115740741,19.4822125 0.255086511,19.7255726 C0.408899844,19.8795382 0.608248031,19.9597953 0.812012671,19.9597953 C0.93079922,19.9597953 1.05110869,19.9325353 1.16486963,19.876797 L11.6703216,14.7223745 C11.7549951,14.6807992 11.8145407,14.6008467 11.829922,14.5077973 C11.8454557,14.4147478 11.8149976,14.3198709 11.7482943,14.2531676 L11.7482943,14.2531676 Z" id="Path" fill="#DE0E29"></path>
                    <path d="M11.7482943,14.2531676 L5.72749146,8.23236476 C5.61114156,8.11601485 5.40905216,8.10992324 5.28097587,8.26571637 C5.27960526,8.26754386 5.27838694,8.26952363 5.2773209,8.27150339 L4.9250731,8.98940058 L9.2189023,13.2830775 C9.8359832,13.9003107 9.66313353,14.9412159 8.87959918,15.3257493 L0.156859181,19.6063292 C0.185337466,19.648209 0.217775361,19.6884137 0.254934191,19.7257249 C0.408899844,19.8795382 0.60809575,19.9599476 0.812012671,19.9599476 C0.93064694,19.9599476 1.05095637,19.9326876 1.16486963,19.876797 L11.6703216,14.7223745 C11.7549951,14.6807992 11.8143884,14.600999 11.829922,14.5077973 C11.8454557,14.4147478 11.8149976,14.3198709 11.7482943,14.2531676 Z" id="Path" fill="#C2185B"></path>
                    <path d="M4.06006335,10.7524671 L5.25097466,8.32526195 C5.83257189,10.3839242 6.93210893,12.2709552 8.48623294,13.8250792 C9.06493665,14.4039352 9.69039353,14.9188292 10.3530093,15.3686952 L8.38115251,16.3361964 C6.52153388,14.8644615 5.02847832,12.9501706 4.06006335,10.7524671 L4.06006335,10.7524671 Z M0.103862066,18.8157895 C-0.229501715,19.4953095 0.487024873,20.2093994 1.16486963,19.876797 L2.74244639,19.1027047 C2.10693836,18.4466374 1.51894495,17.7544773 0.981055049,17.0278996 L0.103862066,18.8157895 Z M2.98123782,12.9512366 L1.96180554,15.0289352 C2.71305435,16.1715704 3.59177021,17.2307505 4.59140472,18.1956628 L6.4668616,17.2753716 C6.2161915,17.0507432 5.96902413,16.8212415 5.72947127,16.5816886 C4.64196515,15.4940302 3.72319688,14.2770772 2.98123782,12.9512366 Z" id="Shape" fill="#004FBF"></path>
                    <path d="M13.1128168,12.9239766 L7.05820542,6.86936526 C6.57300803,6.38416788 5.78322979,6.38401559 5.29788012,6.86936526 C4.81161673,7.35578094 4.81146441,8.14312257 5.29788012,8.62969053 L11.3524915,14.6843019 C11.8378411,15.1694993 12.6274671,15.1696515 13.1128168,14.6843019 C13.5980141,14.1989522 13.5980141,13.4093263 13.1128168,12.9239766 Z" id="Path" fill="#FFCA28"></path>
                    <path d="M13.1128168,12.9239766 L7.05820542,6.86936526 C6.60514133,6.41630117 5.88678729,6.38629996 5.39839181,6.77951388 C5.43311404,6.80738304 5.46677021,6.83723197 5.49890351,6.86936526 L11.5535149,12.9239766 C12.0387122,13.4093263 12.0387122,14.1989522 11.5535149,14.6843019 C11.5212293,14.7164352 11.4877254,14.7462841 11.4530032,14.7743056 C11.9412464,15.1673672 12.6596004,15.137366 13.1128168,14.6843019 C13.5980141,14.1989522 13.5980141,13.4093263 13.1128168,12.9239766 Z" id="Path" fill="#FFA000"></path>
                    <g id="Group" transform="translate(11.111111, 0.000000)" fill="#EF5350">
                        <path d="M7.9765168,2.12110136 L7.43801778,0.143000741 C7.39887914,-0.000609161793 7.21917641,-0.0484283821 7.11379142,0.0569566472 L6.56691641,0.603831618 C6.39833092,0.772417154 6.33315057,1.01851852 6.39619883,1.24847712 L6.92449439,3.17312378 C6.98754265,3.40293006 6.92251462,3.64903142 6.75392908,3.81761696 L7.8059515,2.76559454 C7.97438476,2.59700901 8.03956507,2.35090764 7.9765168,2.12110136 L7.9765168,2.12110136 Z" id="Path"></path>
                        <path d="M3.7434515,6.35416667 L3.21515595,4.42952 C3.15210768,4.19971368 3.21728803,3.95361232 3.38587353,3.78502682 L4.43789595,2.73300437 C4.26931041,2.9015899 4.20413014,3.14769127 4.26717836,3.37749754 L4.79547392,5.30214425 C4.85852218,5.53210285 4.79334187,5.77820421 4.62475634,5.94678971 L3.57273392,6.99865984 C3.74131945,6.83007431 3.80649977,6.58412522 3.7434515,6.35416667 L3.7434515,6.35416667 Z" id="Path"></path>
                        <path d="M1.61427875,8.48318713 L1.08613548,6.55854043 C1.02293493,6.32873415 1.08811524,6.08263279 1.25670078,5.91404725 L0.204678363,6.96606971 C0.0360928265,7.1346552 -0.0289352047,7.38075657 0.0341130604,7.61056288 L0.5707846,9.59003411 C0.609770955,9.73394858 0.789625965,9.7817678 0.895010955,9.67638281 L1.44371345,9.12783259 C1.61229899,8.9592471 1.6774793,8.71314573 1.61427875,8.48318713 Z" id="Path"></path>
                    </g>
                    <path d="M18.0356055,3.17312378 L17.9752985,2.95306409 L16.2707115,2.48522784 C16.0407529,2.42202729 15.7946515,2.4872076 15.626066,2.65579314 L15.5490071,2.73300437 C15.3804215,2.9015899 15.3152412,3.14769127 15.3782895,3.37749754 L15.4387488,3.59755727 L17.1433358,4.06539353 C17.3731421,4.12844175 17.6192434,4.06341372 17.7878289,3.89482823 L17.8650402,3.81761696 C18.0334735,3.64903142 18.0986538,3.40293006 18.0356055,3.17312378 Z" id="Path" fill="#FFCA28"></path>
                    <path d="M14.8545626,6.35416667 L14.7941033,6.13410698 L13.0895163,5.66627072 C12.85971,5.60322246 12.6136087,5.66840277 12.4450232,5.8369883 L12.3678119,5.91404725 C12.1992264,6.08263279 12.1341984,6.32873415 12.1972466,6.55869275 L12.2575536,6.77875244 L13.9621406,7.24658869 C14.1920992,7.30963696 14.4382005,7.24445661 14.606786,7.07587111 L14.6839973,6.99865984 C14.8524306,6.83007431 14.9176109,6.58397294 14.8545626,6.35416667 Z" id="Path" fill="#FFCA28"></path>
                    <path d="M11.4855933,2.38654363 C11.4855933,2.70939938 11.223806,2.97118667 10.9009503,2.97118667 C10.5782468,2.97118667 10.3164596,2.70939938 10.3164596,2.38654363 C10.3164596,2.06368788 10.5782468,1.80205287 10.9009503,1.80205287 C11.223806,1.80205287 11.4855933,2.06368788 11.4855933,2.38654363 L11.4855933,2.38654363 Z" id="Path" fill="#004FBF"></path>
                    <path d="M9.65567131,5.26391934 L9.65567131,4.7433906 C9.65567131,4.6191216 9.75633528,4.51845762 9.88060429,4.51845762 L11.0716679,4.51845762 C11.1957846,4.51845762 11.2964486,4.6191216 11.2964486,4.7433906 L11.2964486,5.26391934 C11.2964486,5.38818834 11.1957846,5.48885232 11.0716679,5.48885232 L9.88060429,5.48885232 C9.75633528,5.48885232 9.65567131,5.38818834 9.65567131,5.26391934 L9.65567131,5.26391934 Z" id="Path" fill="#FFA000"></path>
                    <path d="M13.5990802,2.49147173 L13.0783991,2.49147173 C12.9541301,2.49147173 12.8534661,2.39080776 12.8534661,2.26669103 L12.8534661,1.07562745 C12.8534661,0.951358441 12.9541301,0.850694425 13.0783991,0.850694425 L13.5990802,0.850694425 C13.7231969,0.850694425 13.8238609,0.951358441 13.8238609,1.07562745 L13.8238609,2.26669103 C13.8238609,2.39080776 13.7231969,2.49147173 13.5990802,2.49147173 Z" id="Path" fill="#FFA000"></path>
                    <path d="M15.5631701,9.50612207 C15.5631701,9.82897782 15.3013828,10.0907651 14.9785271,10.0907651 C14.6556713,10.0907651 14.3940363,9.82897782 14.3940363,9.50612207 C14.3940363,9.18326632 14.6556713,8.92163135 14.9785271,8.92163135 C15.3013828,8.92163135 15.5631701,9.18326632 15.5631701,9.50612207 Z" id="Path" fill="#004FBF"></path>
                    <path d="M18.8957419,6.64351852 C18.8957419,6.96637427 18.6339547,7.22816156 18.3110989,7.22816156 C17.9882432,7.22816156 17.7266082,6.96637427 17.7266082,6.64351852 C17.7266082,6.32066277 17.9882432,6.05902776 18.3110989,6.05902776 C18.6339547,6.05902776 18.8957419,6.32066277 18.8957419,6.64351852 Z" id="Path" fill="#004FBF"></path>
                    <path d="M17.9917458,9.8629386 L18.3598319,9.49485259 C18.4477035,9.40698097 18.4477035,9.26458943 18.3598319,9.17687014 L17.5175134,8.33455166 C17.4297941,8.24668008 17.2874025,8.24668008 17.199531,8.33455166 L16.8314449,8.70263766 C16.7435733,8.79050924 16.7435733,8.93290082 16.8314449,9.02062012 L17.6736111,9.8629386 C17.7614827,9.95081018 17.9038743,9.95081018 17.9917458,9.8629386 L17.9917458,9.8629386 Z" id="Path" fill="#FFA000"></path>
                    <path d="M2.25176655,18.5782164 L0.156859181,19.6061769 C0.170260741,19.6259747 0.184576023,19.6451633 0.199805068,19.663895 C0.201480273,19.6658748 0.203155478,19.6680068 0.204830643,19.6701389 C0.220516569,19.6890229 0.236963938,19.7074501 0.25462963,19.7251158 C0.25478191,19.725268 0.254934191,19.7254203 0.255086511,19.7257249 C0.271990721,19.7426292 0.289808733,19.758315 0.307778986,19.7733918 C0.313870604,19.7785697 0.320266823,19.7835953 0.326663002,19.7886209 C0.339303119,19.798672 0.352095517,19.808114 0.365040195,19.8170992 C0.371893255,19.8219725 0.378746355,19.8268458 0.385751696,19.8315668 C0.404787992,19.8440546 0.424128889,19.8559333 0.443926667,19.8665936 C0.446363314,19.8678119 0.448952242,19.8688779 0.451388889,19.8702485 C0.470577466,19.8802997 0.489918363,19.8895894 0.50971614,19.8979654 C0.513827992,19.8996406 0.518092086,19.9013158 0.522203938,19.902991 C0.543067758,19.9113669 0.564083821,19.9191338 0.585556764,19.9256823 C0.586165926,19.9259868 0.586775088,19.9261391 0.58738425,19.9262914 C0.660179103,19.9485258 0.735715166,19.9597953 0.812012671,19.9597953 C0.894858674,19.9597953 0.97831384,19.9460892 1.05994152,19.9191338 C1.06953583,19.9159357 1.07928242,19.9127376 1.08887673,19.9090826 C1.09618667,19.9063414 1.10334429,19.9036002 1.11050195,19.9007066 C1.12862452,19.8932444 1.14674706,19.8854776 1.16471735,19.8766448 L2.74229411,19.1027047 C2.57553606,18.9304642 2.41212842,18.7554825 2.25176655,18.5782164 L2.25176655,18.5782164 Z" id="Path" fill="#1976D2"></path>
                    <path d="M5.92668737,16.7747929 L4.07909965,17.6815302 C4.24631458,17.8555982 4.41687988,18.0270772 4.59140472,18.1956628 L6.4668616,17.2753716 C6.28441762,17.1118117 6.10380117,16.9455105 5.92668737,16.7747929 L5.92668737,16.7747929 Z" id="Path" fill="#1976D2"></path>
                    <path d="M9.47505481,14.7153692 C9.35900951,14.9693896 9.1581384,15.1891447 8.87959918,15.3257493 L7.80351485,15.8538926 C7.99189817,16.0194323 8.18424097,16.1804033 8.38115251,16.3361964 L9.7973014,15.6414474 L10.352857,15.3686952 C10.0522356,15.1644737 9.75968569,14.9462415 9.47505481,14.7153692 L9.47505481,14.7153692 Z" id="Path" fill="#1976D2"></path>
                    <path d="M8.75959431,0.926078207 L7.47761329,0.0350268226 C7.34908016,-0.0543676803 7.17318472,0.0376157505 7.17318472,0.194170331 L7.17318472,0.855110877 C7.17318472,1.07730261 7.27125973,1.28243786 7.42994639,1.39239158 L8.75959431,2.31283505 C8.91828094,2.42263645 9.01635598,2.6277717 9.01635598,2.84996343 L9.01635598,1.46335891 C9.01635598,1.24116717 8.91828094,1.03603193 8.75959431,0.926078207 Z" id="Path" fill="#EF5350"></path>
                    <path d="M8.75959431,5.11939571 L7.42994639,4.19895224 C7.27125973,4.08899852 7.17318472,3.88386331 7.17318472,3.66167154 L7.17318472,5.04842838 C7.17318472,5.27062012 7.27125973,5.47575536 7.42994639,5.58570908 L8.71223197,6.47295322 C8.84076511,6.56189084 9.01635598,6.46975513 9.01635598,6.31350511 L9.01635598,5.65652413 C9.01635598,5.43433236 8.91828094,5.22919712 8.75959431,5.11939571 Z" id="Path" fill="#EF5350"></path>
                    <path d="M8.75959431,2.31283505 C8.91828094,2.42263645 9.01635598,2.6277717 9.01635598,2.84996343 L9.01635598,2.95169349 C9.01635598,3.17388522 8.91828094,3.37902047 8.75959431,3.48897419 L7.58208456,4.30418495 L7.42994639,4.19895224 C7.27125973,4.08899852 7.17318472,3.88386331 7.17318472,3.66167154 L7.17318472,3.55994152 C7.17318472,3.33774975 7.27125973,3.1326145 7.42994639,3.02266082 L8.60745614,2.20760234 L8.75959431,2.31283505 Z" id="Path" fill="#FFCA28"></path>
                    <path d="M19.0536671,11.2177144 L19.9447186,12.4996954 C20.0339608,12.6282285 19.9419773,12.804124 19.7854228,12.804124 L19.1244822,12.804124 C18.9022904,12.804124 18.6971552,12.706049 18.5872015,12.5472101 L17.6669103,11.2177144 C17.5569566,11.0588755 17.3518214,10.9608004 17.1296296,10.9608004 L18.5163864,10.9608004 C18.7385782,10.9608004 18.9437135,11.0588755 19.0536671,11.2177144 Z" id="Path" fill="#EF5350"></path>
                    <path d="M14.8603497,11.2177144 L15.7807931,12.5472101 C15.8907468,12.706049 16.0958821,12.804124 16.3180738,12.804124 L14.931317,12.804124 C14.7091252,12.804124 14.50399,12.706049 14.3940363,12.5472101 L13.5067922,11.2650768 C13.4178545,11.1363913 13.509838,10.9608004 13.6662402,10.9608004 L14.323069,10.9608004 C14.5452607,10.9608004 14.7503959,11.0588755 14.8603497,11.2177144 Z" id="Path" fill="#EF5350"></path>
                    <path d="M17.6669103,11.2177144 C17.5569566,11.0588755 17.3518214,10.9608004 17.1296296,10.9608004 L17.0278996,10.9608004 C16.8057078,10.9608004 16.6005726,11.0588755 16.4906189,11.2177144 L15.6755604,12.3952242 L15.7806409,12.5472101 C15.8905945,12.706049 16.0957298,12.804124 16.3179216,12.804124 L16.4196515,12.804124 C16.6418433,12.804124 16.8469786,12.706049 16.9569322,12.5472101 L17.772143,11.3697003 L17.6669103,11.2177144 Z" id="Path" fill="#FFCA28"></path>
                </g>
            </g>
        </g>
    </g>
</svg>