<svg xmlns="http://www.w3.org/2000/svg" width="50" height="53"><title>cash mob</title><desc>Created with Sketch.</desc><defs><linearGradient id="a" x1="50%" x2="50%" y1="0%" y2="100%"><stop stop-color="#DBEAF7" offset="0%"/><stop stop-color="#DBEAF7" offset="100%"/><stop stop-color="#EEF7FF" offset="200%"/></linearGradient></defs><g fill="none"><g><g><g><g><g><path fill="url(#a)" d="M46.32 35.43h-4.38c-2.4 0-4.38 1.9-4.38 4.26v.84c0 2.35 1.97 4.27 4.38 4.27h4.38v7.7c0 .46-.4.84-.88.84H9.54c-.47 0-.87-.38-.87-.85V30.3h37.65v5.13z" opacity=".96" transform="translate(0 -1)"/><path fill="#2A8BDB" d="M5 10.8c.48 0 .86.4.86.88s-.38.87-.86.87h-.87v.87c0 .48-.4.87-.87.87s-.86-.4-.86-.88v-.87h-.87c-.48 0-.86-.4-.86-.87 0-.5.38-.88.86-.88h.87v-.87c0-.48.4-.87.86-.87.48 0 .87.4.87.87v.87H5zm36.37 6.1c2.4 0 4.33 1.96 4.33 4.37v28.78c0 1.44-1.16 2.62-2.6 2.62H7.6c-1.44 0-2.6-1.18-2.6-2.62V21.28c0-2.1 1.5-3.87 3.46-4.27V3.83c0-1.92 1.56-3.5 3.47-3.5h21.65c1.9 0 3.46 1.58 3.46 3.5v2.62c2.4 0 4.33 1.95 4.33 4.35v6.1zm-4.33-8.7v13.94h2.6V10.8c0-1.4-.87-2.53-2.6-2.6zM10.2 3.82v18.3h4.37c.43-4.15 3.94-7.4 8.18-7.4 4.25 0 7.75 3.25 8.18 7.4h4.38V3.84c0-.96-.77-1.74-1.72-1.74H11.93c-.96 0-1.74.77-1.74 1.73zm19 18.3c-.44-3.18-3.16-5.66-6.45-5.66-3.3 0-6 2.48-6.44 5.67h12.9zm-22.47-.86v.87h1.73V18.8c-1 .37-1.73 1.33-1.73 2.47zm37.24 19.18v-6.1h-4.33c-1.43 0-2.6 1.17-2.6 2.6v.9c0 1.43 1.17 2.6 2.6 2.6h4.33zm0-7.85v-5.23H6.73v22.67c0 .48.4.87.87.87h35.5c.48 0 .87-.38.87-.86V42.2h-4.33c-2.4 0-4.33-1.96-4.33-4.36v-.88c0-2.4 1.95-4.36 4.34-4.36h4.33zm0-6.97v-1.75H6.73v1.75h37.24zm0-3.5v-.86c0-1.44-1.17-2.62-2.6-2.62v3.5h2.6zM48.3 2.97c.48 0 .87.4.87.87 0 .48-.4.87-.87.87h-1.73v1.75c0 .48-.4.87-.87.87-.48 0-.86-.4-.86-.87V4.7H43.1c-.47 0-.86-.4-.86-.87 0-.48.4-.87.86-.87h1.74V1.2c0-.47.38-.86.86-.86s.87.4.87.87v1.76h1.73zM40.94 36.1c.72 0 1.3.58 1.3 1.3 0 .72-.58 1.3-1.3 1.3-.72 0-1.3-.58-1.3-1.3 0-.72.58-1.3 1.3-1.3zM32.7 5.56c.5 0 .88.4.88.88v9.6c0 .47-.4.86-.87.86s-.85-.38-.85-.86V7.32h-.1c-1.2 0-2.2-.73-2.6-1.75h-12.8c-.38 1.02-1.4 1.75-2.6 1.75h-.1v8.72c0 .48-.38.87-.86.87-.5 0-.87-.38-.87-.86v-9.6c0-.48.38-.87.86-.87h.94c.57 0 1.03-.4 1.03-.87 0-.48.4-.87.87-.87h14.23c.47 0 .86.4.86.87 0 .48.46.87 1.03.87h.95z"/></g></g></g></g></g></g></svg>