<svg xmlns="http://www.w3.org/2000/svg" width="55" height="55"><title>bitcoin mob</title><desc>Created with Sketch.</desc><defs><linearGradient id="a" x1="50%" x2="50%" y1="0%" y2="100%"><stop stop-color="#DBEAF7" offset="0%"/><stop stop-color="#DBEAF7" offset="100%"/><stop stop-color="#EEF7FF" offset="200%"/></linearGradient></defs><g fill="none"><g><g id="2"><g><g><g><path fill="url(#a)" d="M28.5 34h-.08C22.7 34 18.02 29.3 18 23.62c-.04-5.7 4.6-10.5 10.35-10.5h.07c5.72 0 10.4 4.7 10.43 10.37.04 5.7-4.6 10.5-10.36 10.5zm25.37 20.88h-9.14c-.5 0-.92-.4-.92-.9V40.35c0-.5.42-.9.93-.9h9.14v15.42z" transform="translate(1 0)"/><path fill="#2A8BDB" d="M36.4 13.3c1.98 2.14 3.22 5.06 3.23 8.23.05 6.67-5.3 12.3-11.9 12.3h-.07c-6.57 0-11.93-5.5-11.98-12.15-.02-3.92 1.82-7.52 4.67-9.75v-5.2c0-.5.4-.92.9-.92s.9.42.9.92v4.04c1.62-.86 3.47-1.33 5.43-1.33h.08c2.6 0 5.02.8 7 2.25V7.62c0-.5.4-.9.88-.9.5 0 .9.4.9.9v5.42c0 .07-.03.2-.04.26zm-8.68 18.72c5.62 0 10.16-4.78 10.13-10.46-.04-5.66-4.6-10.33-10.2-10.33h-.06c-5.62 0-10.17 4.78-10.13 10.46.04 5.65 4.6 10.32 10.2 10.32h.05zM21.24.4c.5 0 .9.4.9.9v1.8c0 .5-.4.9-.9.9s-.9-.4-.9-.9V1.3c0-.5.4-.9.9-.9zm14.3.9c.5 0 .9.4.9.9V4c0 .5-.4.9-.9.9s-.9-.4-.9-.9V2.2c0-.5.4-.9.9-.9zM11.4 21.16c.5 0 .9.4.9.9v7.24c0 .5-.4.9-.9.9-.48 0-.88-.4-.88-.9V22.1c0-.5.4-.9.9-.9zm0-5.42c.5 0 .9.4.9.9v1.8c0 .5-.4.92-.9.92-.48 0-.88-.4-.88-.9v-1.8c0-.5.4-.92.9-.92zm33.97-2.7c.5 0 .9.4.9.9v7.22c0 .5-.4.9-.9.9s-.9-.4-.9-.9v-7.22c0-.5.4-.9.9-.9zm0-5.43c.5 0 .9.4.9.9v1.8c0 .5-.4.9-.9.9s-.9-.4-.9-.9v-1.8c0-.5.4-.9.9-.9zm8.05 28c.5 0 .9.42.9.92V53.7c0 .5-.4.9-.9.9H43.6c-1.18 0-2.16-.75-2.53-1.8H36.6c-.3 0-.55-.15-.7-.38l-7.8 1.8c-.2.06-.4.08-.6.08-.2 0-.4-.02-.6-.07l-14.8-3.4c-.1-.04-.2-.08-.28-.14L1.9 44.2c-.76-.5-1.2-1.32-1.2-2.22v-1.96c0-.84.37-1.6 1.04-2.1.7-.54 1.57-.7 2.4-.45l13.66 4.05c.28-.88.94-1.62 1.84-1.98l7-2.8c.5-.22 1.07-.26 1.6-.14l7.47 1.7c.02-.47.4-.86.9-.86h4.47c.37-1.05 1.35-1.8 2.52-1.8h9.82zM35.5 50.67l.04-10.53-7.68-1.76c-.2-.04-.38-.03-.56.04l-7 2.82c-.5.2-.84.7-.84 1.23 0 .72.6 1.32 1.37 1.32h6.67c.5 0 .9.4.9.9s-.4.9-.9.9h-6.67c-1.4 0-2.6-.9-3-2.15l-14.2-4.2c-.28-.1-.58-.04-.82.13-.1.1-.33.3-.33.67v1.96c0 .28.15.54.4.7l9.8 6.4 14.62 3.4c.13.02.27.02.4 0l7.8-1.82zm5.4.34V39.25h-3.57V51h3.58zm11.35 1.52v-14.6l-8.66-.48c-.5 0-.9.4-.9.9V51.9c0 .5.4.9.9.9l8.65-.28zM49.1 49.2c.5 0 .9.4.9.9s-.4.9-.9.9h-2.67c-.5 0-.9-.4-.9-.9s.4-.9.9-.9h2.68zM30 17.42c.83.28 1.45.96 1.67 1.8.2.86-.02 1.75-.6 2.4.58.64.8 1.54.6 2.38-.22.86-.84 1.54-1.67 1.82v1.03c0 .5-.4.88-.87.88-.48 0-.87-.4-.87-.88v-.87h-.87v.87c0 .5-.4.88-.88.88s-.87-.4-.87-.88v-.87h-1.7c-.47 0-.86-.4-.86-.87s.38-.86.86-.86h.8V19h-.86c-.48 0-.87-.38-.87-.86s.4-.87.87-.87h1.72l.03-.9c0-.47.4-.84.87-.84h.02c.5 0 .86.4.85.9l-.04.84h.9v-.87c0-.48.4-.87.87-.87.48 0 .87.4.87.87v1.03zM26.52 19v1.75h2.6c.5 0 .88-.4.88-.87 0-.48-.4-.87-.87-.87h-2.6zm2.6 5.24c.5 0 .88-.4.88-.87 0-.48-.4-.87-.87-.87h-2.6v1.74h2.6z"/></g></g></g></g></g></g></svg>