<svg xmlns="http://www.w3.org/2000/svg" width="65" height="52"><title>select mob</title><desc>Created with Sketch.</desc><defs><linearGradient id="a" x1="50%" x2="50%" y1="0%" y2="100%"><stop stop-color="#DBEAF7" offset="0%"/><stop stop-color="#DBEAF7" offset="100%"/><stop stop-color="#EEF7FF" offset="200%"/></linearGradient></defs><g fill="none"><g><g><g><g><g><path fill="url(#a)" d="M63.66 9.52H3.34V3.65h60.32v5.87zm-16.1 30.3c-.54 0-1 .43-1 .97v3.9h-4v-3.9c0-.55-.46-1-1.02-1h-1.8l4.82-7.02 4.82 7.03h-1.8z" transform="translate(0 0)"/><path fill="#2A8BDB" d="M63.33.32c.56 0 1 .44 1 .98v49.4c0 .54-.44.98-1 .98h-62c-.55 0-1-.44-1-.98V1.3c0-.54.45-.98 1-.98h62zm-1 49.4V10.2h-60v39.5h60zm0-41.5V2.3h-60V8.2h60zm-56-3.95h2v1.97h-2V4.27zm4 0h2v1.97h-2V4.27zm4 0h2v1.97h-2V4.27zm38 0h6v1.97h-6V4.27zM50.17 38.3c.1.16.16.35.16.54v1c0 .53-.44.98-1 .98h-2v3.95c0 .54-.44 1-1 1h-6c-.55 0-1-.46-1-1v-3.95h-2c-.55 0-1-.45-1-1v-.98c0-.2.06-.38.17-.55l6-8.9c.37-.55 1.3-.55 1.67 0l6 8.9zm-3.84.54h1.8l-4.8-7.1-4.8 7.1h1.8c.56 0 1 .44 1 1v3.94h4v-3.95c0-.55.45-1 1-1zm10-24.7c1.1 0 2 .9 2 1.98V33.9c0 1.1-.9 1.98-2 1.98h-6V33.9h6V16.12h-48V33.9h28v1.98h-28c-1.1 0-2-.9-2-1.98V16.12c0-1.1.9-1.97 2-1.97h48zm-50 23.7h2v2h-2v-2zm0 3.96h2v1.98h-2V41.8zm4-3.95h16v1.98h-16v-1.98zm0 3.95h2v1.98h-2V41.8zm4 0h20v1.98h-20V41.8zm28-23.7h6v1.97h-6V18.1zm8 0h4v1.97h-4V18.1z"/></g></g></g></g></g></g></svg>