<?xml version="1.0" encoding="UTF-8"?>
<svg width="16px" height="21px" viewBox="0 0 16 21" version="1.1" xmlns="http://www.w3.org/2000/svg" xmlns:xlink="http://www.w3.org/1999/xlink">
    <!-- Generator: Sketch 52.2 (67145) - http://www.bohemiancoding.com/sketch -->
    <title>party-hat</title>
    <desc>Created with Sketch.</desc>
    <g id="Page-1" stroke="none" stroke-width="1" fill="none" fill-rule="evenodd">
        <g id="IQMining-Giveaway" transform="translate(-652.000000, -26.000000)">
            <g id="party-hat" transform="translate(652.000000, 26.000000)">
                <path d="M1.38113839,0.195103237 L1.97269985,0.707275391 C2.03652519,0.762468594 2.12323868,0.782740993 2.20458984,0.761553092 L2.96016147,0.564453125 C3.1652396,0.51109096 3.34285192,0.716430647 3.26084682,0.91209192 L2.958592,1.63313512 C2.92602539,1.71082414 2.93374199,1.7996303 2.97912596,1.87064907 L3.40118407,2.53009032 C3.515625,2.70901052 3.37594169,2.94142371 3.16458566,2.92337472 L2.38612584,2.85680281 C2.3022897,2.84960937 2.22041538,2.88426862 2.16705321,2.94940186 L1.67227607,3.55404225 C1.53795516,3.71805246 1.2738909,3.65631975 1.22536795,3.44954137 L1.04657853,2.68729946 C1.02735248,2.60516358 0.96902029,2.53780692 0.890546518,2.50694057 L0.162833069,2.22116526 C-0.0346592411,2.14360699 -0.0580705915,1.87313408 0.123203839,1.7632708 L0.791146406,1.35886926 C0.863080714,1.31518555 0.908987879,1.23893519 0.913827087,1.15470667 L0.958818717,0.373500279 C0.971112924,0.161621094 1.22065952,0.0562046429 1.38113839,0.195103237 Z" id="Path" fill="#FDD835"></path>
                <path d="M3.26084682,0.91209192 C3.3429827,0.716430647 3.1652396,0.51109096 2.96029225,0.564583906 L2.20458984,0.761553092 C2.12323868,0.782871808 2.03652519,0.762599408 1.97283064,0.707406172 L1.38113839,0.195103237 C1.22065952,0.0562046429 0.971112924,0.161621094 0.958818717,0.37363106 L0.956464487,0.414699018 C1.6469029,1.57532609 2.43046353,1.56878663 2.94642857,2.90480261 L3.16458566,2.9235055 C3.37594169,2.94155449 3.515625,2.70914134 3.40118407,2.53022114 L2.97912596,1.87077985 C2.93374199,1.79976108 2.92602539,1.71082414 2.958592,1.63313512 L3.26084682,0.91209192 Z" id="Path" fill="#FBC02D"></path>
                <path d="M14.9629691,1.84682792 L15.0462821,2.62489537 C15.0553066,2.70873151 15.1048758,2.78275845 15.1789027,2.82278006 L15.8659406,3.1938302 C16.0523158,3.29453823 16.0422451,3.56605748 15.8488072,3.65316335 L15.1360037,3.97438266 C15.0592303,4.00904193 15.0041678,4.07927595 14.9889962,4.16219658 L14.8478742,4.93228587 C14.8096837,5.14128767 14.5490199,5.21596855 14.4067208,5.05862863 L13.8827776,4.47909981 C13.8264073,4.41671317 13.7428327,4.38610842 13.659389,4.39748709 L12.8851144,4.5022496 C12.6750662,4.53063094 12.5240043,4.30541119 12.6295515,4.12099785 L13.0186506,3.44167654 C13.0605033,3.36843435 13.063773,3.27936663 13.0274135,3.20337787 L12.6899763,2.49802942 C12.5985543,2.30668423 12.7658343,2.09284319 12.9732666,2.13613456 L13.7376012,2.29582868 C13.8199986,2.31296213 13.9056658,2.28850446 13.966483,2.23017228 L14.5322789,1.689488 C14.6858259,1.54261125 14.9402117,1.63573346 14.9629691,1.84682792 Z" id="Path" fill="#FDD835"></path>
                <path d="M15.8488072,3.65316335 C16.0422451,3.5659267 16.0524466,3.29453823 15.8659406,3.1938302 L15.1789027,2.82264927 C15.1048758,2.78275845 15.0553066,2.70873151 15.0462821,2.62489537 L14.9629691,1.84682792 C14.9403425,1.63573346 14.6858259,1.54261125 14.5324097,1.68935722 L14.5025896,1.71773856 C14.2160296,3.03753663 14.7935965,3.56710379 14.2598441,4.89605712 L14.4068516,5.05862863 C14.5490199,5.21583777 14.8096837,5.14115689 14.8478742,4.93215506 L14.9889962,4.16219658 C15.0041678,4.07914517 15.0592303,4.00891112 15.1360037,3.97425187 L15.8488072,3.65316335 Z" id="Path" fill="#FBC02D"></path>
                <path d="M14.1605922,20.5714286 L2.98226491,20.5714286 C2.88835798,20.5714286 2.82361711,20.4775216 2.85709925,20.3898926 L8.57142857,5.394601 L14.2857579,20.3897618 C14.31924,20.4775216 14.2544992,20.5714286 14.1605922,20.5714286 Z" id="Path" fill="#3EBAF6"></path>
                <path d="M8.57142857,5.394601 L8.02171979,6.83721054 L13.2555281,20.5714286 L14.1605922,20.5714286 C14.2544992,20.5714286 14.31924,20.4775216 14.2857579,20.3898926 L8.57142857,5.394601 Z" id="Path" fill="#1A9FE0"></path>
                <g id="Group" transform="translate(4.687500, 8.216518)" fill="#FDD835">
                    <polygon id="Path" points="5.63036237 1.76082067 4.47588241 1.61669049 2.29627336 1.34412492 2.79811312 0.0272042411 3.92355783 0.167933873 5.07843017 0.312194833"></polygon>
                    <polygon id="Path" points="6.88241143 5.04664828 5.72793144 4.90238735 1.15801132 4.3308367 1.65985108 3.01391602 5.17599924 3.45336914 5.17599924 3.45376152 6.3304792 3.59789166"></polygon>
                    <polygon id="Path" points="8.13485283 8.33208355 8.13446046 8.33208355 6.97998047 8.18782262 0.0197492411 7.31794085 0.521589007 6.00102017 6.42778667 6.73919679 7.58252826 6.88332693"></polygon>
                </g>
                <polygon id="Path" fill="#FBC02D" points="10.3178624 9.97733853 9.16338241 9.83320835 8.61105783 8.38445173 9.76593017 8.52871269"></polygon>
                <polygon id="Path" fill="#FBC02D" points="11.5699114 13.2631661 10.4154314 13.1189052 9.86349924 11.6702794 11.0179792 11.8144095"></polygon>
                <polygon id="Path" fill="#FBC02D" points="12.8219605 16.5486014 11.6674805 16.4043405 11.1152867 14.9557146 12.2700283 15.0998448"></polygon>
                <path d="M15.2554321,18.6212245 L14.3897356,20.4937396 C14.367763,20.5410854 14.3204171,20.5714286 14.2681013,20.5714286 L2.87475586,20.5714286 C2.82257079,20.5714286 2.77509415,20.5410854 2.7531215,20.4937396 L1.88742502,18.6212245 C1.85001917,18.540135 1.90089636,18.4458357 1.98917933,18.4326259 L7.42845807,17.6154524 C7.472011,17.6089129 7.51595632,17.6242152 7.54603795,17.6563895 L8.57142857,18.7521449 L9.5968192,17.6563895 C9.62703161,17.6243461 9.67097692,17.6090437 9.71452985,17.6155831 L15.1538086,18.4326259 C15.2420916,18.4458357 15.292838,18.540135 15.2554321,18.6212245 Z" id="Path" fill="#F2F0F0"></path>
                <path d="M6.59088134,17.741272 L7.43565151,18.6438512 C7.68375941,18.9089617 8.07416645,18.9842965 8.40297154,18.8307495 L8.57142857,18.7521449 L7.54603795,17.6563895 C7.51595632,17.6243461 7.47188022,17.6090437 7.42845807,17.6155831 L6.59088134,17.741272 Z" id="Path" fill="#DBD3D0"></path>
                <path d="M9.5968192,17.6563895 L9.38140868,17.88671 L13.9731707,18.8672398 C14.0358189,18.8685477 14.0763637,18.933681 14.050075,18.9905744 L13.3192226,20.5714286 L14.2681013,20.5714286 C14.3204171,20.5714286 14.367763,20.5410854 14.3897356,20.4937396 L15.2554321,18.6212245 C15.292838,18.540135 15.2420916,18.4458357 15.1538086,18.4326259 L9.71452985,17.6154524 C9.67097692,17.6089129 9.62703161,17.6242152 9.5968192,17.6563895 Z" id="Path" fill="#DBD3D0"></path>
                <path d="M10.2960205,5.15316335 C10.2960205,6.10570416 9.52396939,6.87788608 8.57142857,6.87788608 C7.61901857,6.87788608 6.84683665,6.10570416 6.84683665,5.15316335 C6.84683665,4.20075335 7.61901857,3.42857143 8.57142857,3.42857143 C9.52396939,3.42857143 10.2960205,4.20075335 10.2960205,5.15316335 Z" id="Path" fill="#EC407A"></path>
                <path d="M8.57142857,3.42857143 C8.39120049,3.42857143 8.21738106,3.45629883 8.05402483,3.50769914 C8.75374929,3.7274257 9.26121301,4.38098143 9.26121301,5.15316335 C9.26121301,5.92547608 8.75374929,6.57903181 8.05402483,6.79875837 C8.21738106,6.8500279 8.39120049,6.87788608 8.57142857,6.87788608 C9.52396939,6.87788608 10.2960205,6.10570416 10.2960205,5.15316335 C10.2960205,4.20075335 9.52396939,3.42857143 8.57142857,3.42857143 Z" id="Path" fill="#D81B60"></path>
            </g>
        </g>
    </g>
</svg>