<?xml version="1.0" encoding="UTF-8"?>
<svg width="73px" height="78px" viewBox="0 0 73 78" version="1.1" xmlns="http://www.w3.org/2000/svg" xmlns:xlink="http://www.w3.org/1999/xlink">
    <!-- Generator: Sketch 52.2 (67145) - http://www.bohemiancoding.com/sketch -->
    <title>icons/step 3</title>
    <desc>Created with Sketch.</desc>
    <defs>
        <linearGradient x1="50%" y1="0%" x2="50%" y2="100%" id="linearGradient-1">
            <stop stop-color="#DBEAF7" offset="0%"></stop>
            <stop stop-color="#DBEAF7" offset="100%"></stop>
            <stop stop-color="#EEF7FF" offset="200%"></stop>
        </linearGradient>
    </defs>
    <g id="Page-1" stroke="none" stroke-width="1" fill="none" fill-rule="evenodd">
        <g id="IQmining-2" transform="translate(-1002.000000, -826.000000)">
            <g id="block-2" transform="translate(261.000000, 685.000000)">
                <g id="Group-9" transform="translate(0.000000, 107.000000)">
                    <g id="Group-11" transform="translate(677.000000, 0.000000)">
                        <g id="icons/step-3" transform="translate(63.000000, 32.000000)">
                            <path d="M68.986566,52.766684 L62.476414,52.766684 C58.886852,52.766684 55.966552,55.674748 55.966552,59.249218 L55.966552,60.545778 C55.966552,64.120286 58.886852,67.02854 62.476414,67.02854 L68.986566,67.02854 L68.986566,78.697314 C68.986566,79.413006 68.401984,79.993646 67.68464,79.993646 L14.301904,79.993646 C13.584676,79.993646 13.000036,79.413006 13.000036,78.697314 L13.000036,44.98759 L68.986566,44.98759 L68.986566,52.766684 Z" id="Shape-3-copy" fill="url(#linearGradient-1)" opacity="0.96"></path>
                            <path d="M7.495575,17.60007 C8.21265,17.60007 8.794725,18.181204 8.794725,18.899934 C8.794725,19.61891 8.21265,20.200044 7.495575,20.200044 L6.1965,20.200044 L6.1965,21.500072 C6.1965,22.218884 5.614425,22.799936 4.897275,22.799936 C4.18035,22.799936 3.598275,22.218884 3.598275,21.500072 L3.598275,20.200044 L2.2992,20.200044 C1.581975,20.200044 1.00005,19.61891 1.00005,18.899934 C1.00005,18.181204 1.581975,17.60007 2.2992,17.60007 L3.598275,17.60007 L3.598275,16.300042 C3.598275,15.580984 4.18035,14.999932 4.897275,14.999932 C5.614425,14.999932 6.1965,15.580984 6.1965,16.300042 L6.1965,17.60007 L7.495575,17.60007 Z M62.058075,26.699938 C65.6397,26.699938 68.55345,29.61594 68.55345,33.200078 L68.55345,35.800216 L68.55345,36.01727 L68.55345,41.000082 L68.55345,51.399978 L68.55345,63.099984 L68.55345,76.100018 C68.55345,78.25014 66.804975,80.00002 64.656375,80.00002 L11.39295,80.00002 C9.244125,80.00002 7.495575,78.25014 7.495575,76.100018 L7.495575,41.000082 L7.495575,36.01727 L7.495575,35.800216 L7.495575,33.200078 C7.495575,30.061938 9.731325,27.435888 12.692025,26.83122 L12.692025,7.199928 C12.692025,4.332142 15.022725,1.999898 17.888475,1.999898 L50.366025,1.999898 C53.232,1.999898 55.56255,4.332142 55.56255,7.199928 L55.56255,11.09993 C59.1441,11.09993 62.058075,14.015932 62.058075,17.60007 L62.058075,26.699938 Z M55.56255,13.706464 L55.56255,34.499942 L59.459775,34.499942 L59.459775,17.60007 C59.459775,15.527766 58.160775,13.827414 55.56255,13.706464 Z M15.290175,7.199928 L15.290175,34.499942 L21.8559,34.499942 C22.506675,28.298938 27.7617,23.450114 34.1271,23.450114 C40.492875,23.450114 45.74655,28.298938 46.398675,34.499942 L52.964325,34.499942 L52.964325,7.199928 C52.964325,5.766158 51.79905,4.600036 50.366025,4.600036 L17.888475,4.600036 C16.455525,4.600036 15.290175,5.766158 15.290175,7.199928 Z M43.784775,34.499942 C43.1469,29.73689 39.06,26.050006 34.1271,26.050006 C29.194425,26.050006 25.1061,29.73689 24.46965,34.499942 L43.784775,34.499942 Z M10.0938,33.200078 L10.0938,34.499942 L12.692025,34.499942 L12.692025,29.539352 C11.183625,30.077354 10.0938,31.507434 10.0938,33.200078 Z M65.95545,61.799874 L65.95545,52.700088 L59.459775,52.700088 C57.31095,52.700088 55.56255,54.449886 55.56255,56.600008 L55.56255,57.899872 C55.56255,60.05024 57.31095,61.799874 59.459775,61.799874 L65.95545,61.799874 Z M65.95545,50.099868 L65.95545,42.299946 L10.0938,42.299946 L10.0938,76.100018 C10.0938,76.817682 10.677075,77.400128 11.39295,77.400128 L64.656375,77.400128 C65.37195,77.400128 65.95545,76.817682 65.95545,76.100018 L65.95545,64.400012 L59.459775,64.400012 C55.878075,64.400012 52.964325,61.484092 52.964325,57.899872 L52.964325,56.600008 C52.964325,53.01587 55.878075,50.099868 59.459775,50.099868 L65.95545,50.099868 Z M65.95545,39.700218 L65.95545,37.10008 L54.2634,37.10008 L13.99095,37.10008 L10.0938,37.10008 L10.0938,39.700218 L65.95545,39.700218 Z M65.95545,34.499942 L65.95545,33.200078 C65.95545,31.049956 64.20675,29.300076 62.058075,29.300076 L62.058075,34.499942 L65.95545,34.499942 Z M72.450975,5.8999 C73.167975,5.8999 73.7499,6.481198 73.7499,7.199928 C73.7499,7.918904 73.167975,8.500038 72.450975,8.500038 L69.852675,8.500038 L69.852675,11.09993 C69.852675,11.818906 69.270675,12.40004 68.55345,12.40004 C67.836525,12.40004 67.254375,11.818906 67.254375,11.09993 L67.254375,8.500038 L64.656375,8.500038 C63.939075,8.500038 63.357225,7.918904 63.357225,7.199928 C63.357225,6.481198 63.939075,5.8999 64.656375,5.8999 L67.254375,5.8999 L67.254375,3.299926 C67.254375,2.581196 67.836525,1.999898 68.55345,1.999898 C69.270675,1.999898 69.852675,2.581196 69.852675,3.299926 L69.852675,5.8999 L72.450975,5.8999 Z M61.408425,55.29998 C62.484675,55.29998 63.357225,56.173116 63.357225,57.24994 C63.357225,58.32701 62.484675,59.199982 61.408425,59.199982 C60.332175,59.199982 59.459775,58.32701 59.459775,57.24994 C59.459775,56.173116 60.332175,55.29998 61.408425,55.29998 Z M49.06695,9.799902 C49.7841,9.799902 50.366025,10.3812 50.366025,11.09993 L50.366025,25.400074 C50.366025,26.11905 49.7841,26.699938 49.06695,26.699938 C48.349725,26.699938 47.76795,26.11905 47.76795,25.400074 L47.76795,12.40004 L47.6445,12.40004 C45.843825,12.40004 44.307,11.313048 43.736625,9.799902 L24.519075,9.799902 C23.9487,11.313048 22.411875,12.40004 20.610225,12.40004 L20.48655,12.40004 L20.48655,25.400074 C20.48655,26.11905 19.904625,26.699938 19.187625,26.699938 C18.4704,26.699938 17.888475,26.11905 17.888475,25.400074 L17.888475,11.09993 C17.888475,10.3812 18.4704,9.799902 19.187625,9.799902 L20.61135,9.799902 C21.4635,9.799902 22.1571,9.217456 22.1571,8.500038 C22.1571,7.781062 22.73925,7.199928 23.456325,7.199928 L44.79945,7.199928 C45.51645,7.199928 46.0986,7.781062 46.0986,8.500038 C46.0986,9.217456 46.7922,9.799902 47.6445,9.799902 L49.06695,9.799902 Z" id="Combined-shape-2919" fill="#1A9FE0"></path>
                        </g>
                    </g>
                </g>
            </g>
        </g>
    </g>
</svg>