<?xml version="1.0" encoding="UTF-8"?>
<svg width="78px" height="78px" viewBox="0 0 78 78" version="1.1" xmlns="http://www.w3.org/2000/svg" xmlns:xlink="http://www.w3.org/1999/xlink">
    <!-- Generator: Sketch 52.2 (67145) - http://www.bohemiancoding.com/sketch -->
    <title>icons/step 2</title>
    <desc>Created with Sketch.</desc>
    <defs>
        <linearGradient x1="50%" y1="0%" x2="50%" y2="100%" id="linearGradient-1">
            <stop stop-color="#DBEAF7" offset="0%"></stop>
            <stop stop-color="#DBEAF7" offset="100%"></stop>
            <stop stop-color="#EEF7FF" offset="200%"></stop>
        </linearGradient>
    </defs>
    <g id="Page-1" stroke="none" stroke-width="1" fill="none" fill-rule="evenodd">
        <g id="IQmining-2" transform="translate(-661.000000, -824.000000)">
            <g id="block-2" transform="translate(261.000000, 685.000000)">
                <g id="Group-9" transform="translate(0.000000, 107.000000)">
                    <g id="icons/step-2" transform="translate(399.000000, 30.000000)">
                        <path d="M42.325712,49.499874 L42.229322,49.499874 C34.101998,49.499874 27.46421,42.7842 27.412262,34.644852 C27.35891,26.474508 33.965378,19.600011 42.135902,19.600011 L42.232076,19.600011 C50.359508,19.600011 56.997134,26.315685 57.049082,34.455033 C57.102434,42.625629 50.49737,49.499874 42.325712,49.499874 Z M78.398738,79.400052 L65.39894,79.400052 C64.681442,79.400052 64.098944,78.817617 64.098944,78.099921 L64.098944,58.600161 C64.098944,57.882276 64.681442,57.299904 65.39894,57.299904 L78.398738,57.299904 L78.398738,79.400052 Z" id="Combined-shape-2907" fill="url(#linearGradient-1)"></path>
                        <path d="M52.94072,20.566666 C55.82784,23.653966 57.622,27.858352 57.65048,32.408286 C57.71296,42.014012 49.94816,50.099868 40.34264,50.099868 L40.22944,50.099868 C30.676,50.099868 22.87344,42.199824 22.8124,32.633048 C22.77592,26.992432 25.45,21.808228 29.59952,18.595796 L29.59952,11.09993 C29.59952,10.3812 30.182,9.799902 30.89936,9.799902 C31.61712,9.799902 32.19952,10.3812 32.19952,11.09993 L32.19952,16.922668 C34.57448,15.682418 37.2616,14.999932 40.12024,14.999932 L40.23344,14.999932 C44.0268,14.999932 47.5328,16.176386 50.39928,18.246066 L50.39928,12.40004 C50.39928,11.681064 50.98032,11.09993 51.69912,11.09993 C52.41816,11.09993 52.99904,11.681064 52.99904,12.40004 L52.99904,20.200044 C52.99904,20.301396 52.96272,20.471628 52.94072,20.566666 Z M40.3256,47.499976 C48.49744,47.499976 55.10248,40.625752 55.04912,32.455108 C54.99728,24.315788 48.35952,17.60007 40.23208,17.60007 L40.13576,17.60007 C31.96552,17.60007 25.35904,24.474376 25.4124,32.644938 C25.46424,40.784094 32.102,47.499976 40.22944,47.499976 L40.3256,47.499976 Z M30.89936,1.999898 C31.61712,1.999898 32.19952,2.581196 32.19952,3.299926 L32.19952,5.8999 C32.19952,6.618876 31.61712,7.199928 30.89936,7.199928 C30.182,7.199928 29.59952,6.618876 29.59952,5.8999 L29.59952,3.299926 C29.59952,2.581196 30.182,1.999898 30.89936,1.999898 Z M51.69912,3.299926 C52.41816,3.299926 52.99904,3.88106 52.99904,4.600036 L52.99904,7.199928 C52.99904,7.918904 52.41816,8.500038 51.69912,8.500038 C50.98032,8.500038 50.39928,7.918904 50.39928,7.199928 L50.39928,4.600036 C50.39928,3.88106 50.98032,3.299926 51.69912,3.299926 Z M16.59976,31.899968 C17.31736,31.899968 17.8996,32.481102 17.8996,33.200078 L17.8996,43.60022 C17.8996,44.318786 17.31736,44.900084 16.59976,44.900084 C15.88208,44.900084 15.29968,44.318786 15.29968,43.60022 L15.29968,33.200078 C15.29968,32.481102 15.88208,31.899968 16.59976,31.899968 Z M16.59976,24.099964 C17.31736,24.099964 17.8996,24.681098 17.8996,25.400074 L17.8996,27.999966 C17.8996,28.718778 17.31736,29.300076 16.59976,29.300076 C15.88208,29.300076 15.29968,28.718778 15.29968,27.999966 L15.29968,25.400074 C15.29968,24.681098 15.88208,24.099964 16.59976,24.099964 Z M65.9988,20.200044 C66.71784,20.200044 67.29888,20.781096 67.29888,21.500072 L67.29888,31.899968 C67.29888,32.61878 66.71784,33.200078 65.9988,33.200078 C65.28008,33.200078 64.69888,32.61878 64.69888,31.899968 L64.69888,21.500072 C64.69888,20.781096 65.28008,20.200044 65.9988,20.200044 Z M65.9988,12.40004 C66.71784,12.40004 67.29888,12.981092 67.29888,13.700068 L67.29888,16.300042 C67.29888,17.019018 66.71784,17.60007 65.9988,17.60007 C65.28008,17.60007 64.69888,17.019018 64.69888,16.300042 L64.69888,13.700068 C64.69888,12.981092 65.28008,12.40004 65.9988,12.40004 Z M77.69872,52.700088 C78.41752,52.700088 78.99864,53.28114 78.99992,53.99987 L78.99992,78.69991 C78.99992,79.418968 78.41896,80.00002 77.70008,80.00002 L63.40024,80.00002 C61.70768,80.00002 60.27768,78.909338 59.73952,77.400128 L53.23184,77.400128 C52.80152,77.400128 52.4388,77.177744 52.20352,76.856632 L40.88712,79.452834 C40.59592,79.52032 40.2984,79.552874 39.99944,79.552874 C39.7016,79.552874 39.40256,79.52032 39.11144,79.452834 L17.60968,74.542592 C17.46168,74.508726 17.31992,74.448948 17.19264,74.367112 L2.75096,65.021408 C1.6552,64.312928 1,63.1195 1,61.83005 L1,59.010152 C1,57.807704 1.55904,56.70013 2.53256,55.96951 C3.53616,55.218144 4.80776,54.993136 6.01912,55.34549 L25.89728,61.175936 C26.2936,59.896736 27.25704,58.838608 28.5712,58.317334 L38.75016,54.279408 C39.49744,53.98183 40.31016,53.92074 41.09264,54.097368 L51.9384,56.55827 C51.96176,55.860368 52.5272,55.29998 53.23056,55.29998 L59.73832,55.29998 C60.27632,53.79077 61.7064,52.700088 63.3988,52.700088 L77.69872,52.700088 Z M51.6172,74.324226 L51.69392,59.170052 L40.51928,56.635022 C40.24888,56.574096 39.96808,56.596072 39.71064,56.698818 L29.532,60.739122 C28.78312,61.036946 28.29944,61.729764 28.29944,62.501958 C28.29944,63.545982 29.19784,64.400012 30.30152,64.400012 L39.99944,64.400012 C40.71704,64.400012 41.29928,64.981146 41.29928,65.700122 C41.29928,66.418852 40.71704,66.999986 39.99944,66.999986 L30.30152,66.999986 C28.26448,66.999986 26.53144,65.694792 25.92592,63.90342 L5.28608,57.841652 C4.86736,57.715372 4.4332,57.79606 4.09008,58.052064 C3.9068,58.18843 3.59992,58.493962 3.59992,59.00884 L3.59992,61.828492 C3.59992,62.232998 3.81056,62.60864 4.16288,62.837338 L18.41312,72.059468 L39.69256,76.91887 C39.89408,76.965938 40.10608,76.965938 40.30464,76.91887 L51.6172,74.324226 Z M59.49904,74.79999 L59.49904,57.899872 L54.29904,57.899872 L54.29904,74.79999 L59.49904,74.79999 Z M75.99992,77.00005 L75.99992,56.000014 L63.3988,55.29998 C62.68144,55.29998 62.09896,55.882344 62.09896,56.600008 L62.09896,76.100018 C62.09896,76.817682 62.68144,77.400128 63.3988,77.400128 L75.99992,77.00005 Z M71.43152,72.200016 C72.1504,72.200016 72.7316,72.78115 72.7316,73.500126 C72.7316,74.218856 72.1504,74.79999 71.43152,74.79999 L67.53168,74.79999 C66.81272,74.79999 66.23176,74.218856 66.23176,73.500126 C66.23176,72.78115 66.81272,72.200016 67.53168,72.200016 L71.43152,72.200016 Z M43.63992,26.512322 C44.83912,26.922732 45.7488,27.901484 46.0596,29.118364 C46.37192,30.33467 46.0436,31.624858 45.1872,32.54949 C46.0436,33.474778 46.37192,34.764966 46.0596,35.981436 C45.7488,37.19725 44.83912,38.176658 43.63992,38.586904 L43.63992,40.071432 C43.63992,40.763594 43.07288,41.324884 42.3728,41.324884 C41.6724,41.324884 41.10544,40.763594 41.10544,40.071432 L41.10544,38.818062 L39.83792,38.818062 L39.83792,40.071432 C39.83792,40.763594 39.27,41.324884 38.56984,41.324884 C37.86952,41.324884 37.30248,40.763594 37.30248,40.071432 L37.30248,38.818062 L34.84744,38.818062 C34.14728,38.818062 33.57992,38.25628 33.57992,37.563708 C33.57992,36.871792 34.14728,36.31001 34.84744,36.31001 L36.03488,36.31001 L36.03488,28.788478 L34.7676,28.788478 C34.06744,28.788478 33.5,28.227598 33.5,27.534862 C33.5,26.842454 34.06744,26.281164 34.7676,26.281164 L37.2616,26.281164 L37.30248,24.989254 C37.3236,24.312262 37.88472,23.77467 38.56984,23.77467 L38.60904,23.77467 C39.30952,23.79558 39.86,24.374254 39.83792,25.067072 L39.7988,26.281164 L41.10544,26.281164 L41.10544,25.027712 C41.10544,24.335304 41.6724,23.77467 42.3728,23.77467 C43.07288,23.77467 43.63992,24.335304 43.63992,25.027712 L43.63992,26.512322 Z M38.56984,28.788478 L38.56984,31.296038 L42.3728,31.296038 C43.07288,31.296038 43.63992,30.734092 43.63992,30.042176 C43.63992,29.350014 43.07288,28.788478 42.3728,28.788478 L38.56984,28.788478 Z M42.3728,36.31001 C43.07288,36.31001 43.63992,35.749212 43.63992,35.056558 C43.63992,34.364232 43.07288,33.802942 42.3728,33.802942 L38.56984,33.802942 L38.56984,36.31001 L42.3728,36.31001 Z" id="Combined-shape-2908" fill="#1A9FE0"></path>
                    </g>
                </g>
            </g>
        </g>
    </g>
</svg>