<?xml version="1.0" encoding="UTF-8"?>
<svg width="96px" height="78px" viewBox="0 0 96 78" version="1.1" xmlns="http://www.w3.org/2000/svg" xmlns:xlink="http://www.w3.org/1999/xlink">
    <!-- Generator: Sketch 52.2 (67145) - http://www.bohemiancoding.com/sketch -->
    <title>icons/step 1</title>
    <desc>Created with Sketch.</desc>
    <defs>
        <linearGradient x1="50%" y1="0%" x2="50%" y2="100%" id="linearGradient-1">
            <stop stop-color="#DBEAF7" offset="0%"></stop>
            <stop stop-color="#DBEAF7" offset="100%"></stop>
            <stop stop-color="#EEF7FF" offset="200%"></stop>
        </linearGradient>
    </defs>
    <g id="Page-1" stroke="none" stroke-width="1" fill="none" fill-rule="evenodd">
        <g id="IQmining-2" transform="translate(-314.000000, -824.000000)">
            <g id="block-2" transform="translate(261.000000, 685.000000)">
                <g id="Group-9" transform="translate(0.000000, 107.000000)">
                    <g id="Group-10">
                        <g id="icons/step-1" transform="translate(51.000000, 30.000000)">
                            <path d="M96.999962,15.99999 L6.999944,15.99999 L6.999944,7.000032 L96.999962,7.000032 L96.999962,15.99999 Z M72.999976,62.500158 C72.17052,62.500158 71.500018,63.171906 71.500018,63.999942 L71.500018,70.0002 L65.499998,70.0002 L65.499998,63.999942 C65.499998,63.171906 64.829496,62.500158 64.00004,62.500158 L61.302898,62.500158 L68.500102,51.704406 L75.697024,62.500158 L72.999976,62.500158 Z" id="Combined-shape-2896" fill="url(#linearGradient-1)"></path>
                            <path d="M96.500052,1.999898 C97.329573,1.999898 97.999902,2.672052 97.999902,3.500088 L97.999902,15.50005 L97.999902,78.499994 C97.999902,79.328112 97.329573,80.00002 96.500052,80.00002 L3.500046,80.00002 C2.670426,80.00002 1.999899,79.328112 1.999899,78.499994 L1.999899,15.50005 L1.999899,3.500088 C1.999899,2.672052 2.670426,1.999898 3.500046,1.999898 L96.500052,1.999898 Z M94.999905,77.00005 L94.999905,16.99983 L5.000094,16.99983 L5.000094,77.00005 L94.999905,77.00005 Z M94.999905,14.000106 L94.999905,4.999868 L5.000094,4.999868 L5.000094,14.000106 L94.999905,14.000106 Z M11.000088,8.000084 L13.999986,8.000084 L13.999986,11.000054 L11.000088,11.000054 L11.000088,8.000084 Z M17.000082,8.000084 L19.99998,8.000084 L19.99998,11.000054 L17.000082,11.000054 L17.000082,8.000084 Z M23.000076,8.000084 L25.999974,8.000084 L25.999974,11.000054 L23.000076,11.000054 L23.000076,8.000084 Z M80.000118,8.000084 L89.000109,8.000084 L89.000109,11.000054 L80.000118,11.000054 L80.000118,8.000084 Z M76.747968,59.667382 C76.911516,59.91371 77.000022,60.204646 77.000022,60.50001 L77.000022,61.99979 C77.000022,62.828154 76.329495,63.500062 75.499974,63.500062 L72.499977,63.500062 L72.499977,69.500002 C72.499977,70.32812 71.82945,71.000028 71.000028,71.000028 L62.000136,71.000028 C61.170417,71.000028 60.49989,70.32812 60.49989,69.500002 L60.49989,63.500062 L57.499992,63.500062 C56.670372,63.500062 56.000043,62.828154 56.000043,61.99979 L56.000043,60.50001 C56.000043,60.204646 56.088549,59.91371 56.252097,59.667382 L65.251989,46.167558 C65.808666,45.33206 67.191498,45.33206 67.748076,46.167558 L76.747968,59.667382 Z M71.000028,60.50001 L73.696887,60.50001 L66.499983,49.704464 L59.30298,60.50001 L62.000136,60.50001 C62.829558,60.50001 63.499986,61.172164 63.499986,61.99979 L63.499986,68.000058 L69.500079,68.000058 L69.500079,61.99979 C69.500079,61.172164 70.170507,60.50001 71.000028,60.50001 Z M85.999914,23.000098 C87.654402,23.000098 89.000109,24.345472 89.000109,26.000068 L89.000109,53.000044 C89.000109,54.65464 87.654402,56.000014 85.999914,56.000014 L77.000022,56.000014 L77.000022,53.000044 L85.999914,53.000044 L85.999914,26.000068 L13.999986,26.000068 L13.999986,53.000044 L56.000043,53.000044 L56.000043,56.000014 L13.999986,56.000014 C12.345498,56.000014 11.000088,54.65464 11.000088,53.000044 L11.000088,26.000068 C11.000088,24.345472 12.345498,23.000098 13.999986,23.000098 L85.999914,23.000098 Z M11.000088,59.000066 L13.999986,59.000066 L13.999986,61.99979 L11.000088,61.99979 L11.000088,59.000066 Z M11.000088,65.000006 L13.999986,65.000006 L13.999986,68.000058 L11.000088,68.000058 L11.000088,65.000006 Z M17.000082,59.000066 L40.99986,59.000066 L40.99986,61.99979 L17.000082,61.99979 L17.000082,59.000066 Z M17.000082,65.000006 L19.99998,65.000006 L19.99998,68.000058 L17.000082,68.000058 L17.000082,65.000006 Z M23.000076,65.000006 L52.999947,65.000006 L52.999947,68.000058 L23.000076,68.000058 L23.000076,65.000006 Z M65.000034,29.000038 L74.000025,29.000038 L74.000025,31.999844 L65.000034,31.999844 L65.000034,29.000038 Z M77.000022,29.000038 L83.000016,29.000038 L83.000016,31.999844 L77.000022,31.999844 L77.000022,29.000038 Z" id="Combined-shape-2897" fill="#1A9FE0"></path>
                        </g>
                    </g>
                </g>
            </g>
        </g>
    </g>
</svg>