<?xml version="1.0" encoding="UTF-8"?>
<svg width="46px" height="27px" viewBox="0 0 46 27" version="1.1" xmlns="http://www.w3.org/2000/svg" xmlns:xlink="http://www.w3.org/1999/xlink">
    <!-- Generator: Sketch 52.2 (67145) - http://www.bohemiancoding.com/sketch -->
    <title>Shape sp-1996-0</title>
    <desc>Created with Sketch.</desc>
    <g id="Page-1" stroke="none" stroke-width="1" fill="none" fill-rule="evenodd">
        <g id="IQmining-2" transform="translate(-508.000000, -850.000000)" fill="#BEC9CD">
            <g id="block-2" transform="translate(261.000000, 685.000000)">
                <g id="Group-9" transform="translate(0.000000, 107.000000)">
                    <path d="M281.512506,65.1561101 L292.49375,75.378596 C293.15455,75.977764 293.17495,76.977483 292.5385,77.578077 L285.28265,84.513397 C284.67005,85.135319 283.6254,85.135319 282.96415,84.513397 C282.3252,83.913919 282.30485,82.913115 282.91895,82.291224 L287.4463,78.04441 L248.6524,78.04441 C247.74805,78.04441 247.01485,77.333115 246.99715,76.466541 C246.97955,75.59944 247.6843,74.910837 248.58855,74.909411 L287.38255,74.909411 L279.322777,67.4287723 C278.628741,67.7935047 277.838471,67.999883 277,67.999883 C274.2386,67.999883 271.99995,65.761435 271.99995,63.000017 C271.99995,60.238599 274.2386,57.999872 277,57.999872 C279.7614,57.999872 282,60.238599 282,63.000017 C282,63.7720953 281.825001,64.5032913 281.512506,65.1561101 Z M277,61.000083 C275.8954,61.000083 275.00005,61.895518 275.00005,63.000017 C275.00005,64.104516 275.8954,64.999951 277,64.999951 C278.10455,64.999951 279.00005,64.104516 279.00005,63.000017 C279.00005,61.895518 278.10455,61.000083 277,61.000083 Z" id="arrow-1"></path>
                </g>
            </g>
        </g>
    </g>
</svg>