<svg xmlns="http://www.w3.org/2000/svg" width="21.44" height="21.44" viewBox="0 0 21.44 21.44">
  <metadata><?xpacket begin="﻿" id="W5M0MpCehiHzreSzNTczkc9d"?>
<x:xmpmeta xmlns:x="adobe:ns:meta/" x:xmptk="Adobe XMP Core 5.6-c138 79.159824, 2016/09/14-01:09:01        ">
   <rdf:RDF xmlns:rdf="http://www.w3.org/1999/02/22-rdf-syntax-ns#">
      <rdf:Description rdf:about=""/>
   </rdf:RDF>
</x:xmpmeta>
                                                                                                    
                                                                                                    
                                                                                                    
                                                                                                    
                                                                                                    
                                                                                                    
                                                                                                    
                                                                                                    
                                                                                                    
                                                                                                    
                                                                                                    
                                                                                                    
                                                                                                    
                                                                                                    
                                                                                                    
                                                                                                    
                                                                                                    
                                                                                                    
                                                                                                    
                                                                                                    
                           
<?xpacket end="w"?></metadata>
<defs>
    <style>
      .cls-1 {
        fill: #FFFFFF;
        fill-rule: evenodd;
      }
    </style>
  </defs>
  <path id="Forma_1" data-name="Forma 1" class="cls-1" d="M1082.8,4325.29h-9.6a5.915,5.915,0,0,0-5.91,5.91v9.6a5.915,5.915,0,0,0,5.91,5.91h9.6a5.915,5.915,0,0,0,5.91-5.91v-9.6A5.915,5.915,0,0,0,1082.8,4325.29Zm4.01,15.51a4.016,4.016,0,0,1-4.01,4.01h-9.6a4.016,4.016,0,0,1-4.01-4.01v-9.6a4.016,4.016,0,0,1,4.01-4.01h9.6a4.016,4.016,0,0,1,4.01,4.01v9.6h0Zm-8.81-10.32a5.52,5.52,0,1,0,5.52,5.52A5.531,5.531,0,0,0,1078,4330.48Zm0,9.14a3.62,3.62,0,1,1,3.62-3.62A3.619,3.619,0,0,1,1078,4339.62Zm5.75-10.75a1.393,1.393,0,0,0-.98.4,1.4,1.4,0,0,0,0,1.98,1.413,1.413,0,0,0,1.97,0A1.39,1.39,0,0,0,1083.75,4328.87Z" transform="translate(-1067.28 -4325.28)"/>
</svg>
