<?xml version="1.0" encoding="UTF-8"?>
<svg width="72px" height="78px" viewBox="0 0 72 78" version="1.1" xmlns="http://www.w3.org/2000/svg" xmlns:xlink="http://www.w3.org/1999/xlink">
    <!-- Generator: Sketch 52.2 (67145) - http://www.bohemiancoding.com/sketch -->
    <title>wallet</title>
    <desc>Created with Sketch.</desc>
    <g id="Page-1" stroke="none" stroke-width="1" fill="none" fill-rule="evenodd">
        <g id="IQmining-2" transform="translate(-811.000000, -2524.000000)" fill="#FFFFFF" fill-rule="nonzero">
            <g id="block-5" transform="translate(0.000000, 2472.000000)">
                <g id="wallet" transform="translate(811.000000, 52.000000)">
                    <path d="M68,42.6666667 L66.6666667,42.6666667 L66.6666667,36 C66.6640625,33.7916667 64.875,32.0026042 62.6666667,32 L4,32 C1.79166667,32.0026042 0.00260416667,33.7916667 0,36 L0,73.3333333 C0.00260416667,75.5416667 1.79166667,77.3307292 4,77.3333333 L62.6666667,77.3333333 C64.875,77.3307292 66.6640625,75.5416667 66.6666667,73.3333333 L66.6666667,64 L68,64 C70.2083333,63.9973958 71.9973958,62.2083333 72,60 L72,46.6666667 C71.9973958,44.4583333 70.2083333,42.6692708 68,42.6666667 Z M64,73.3333333 C63.999349,74.0690103 63.4023437,74.6660157 62.6666667,74.6666667 L4,74.6666667 C3.264323,74.6660157 2.66731767,74.0690103 2.66666667,73.3333333 L2.66666667,36 C2.66731767,35.264323 3.264323,34.6673177 4,34.6666667 L62.6666667,34.6666667 C63.4023437,34.6673177 63.999349,35.264323 64,36 L64,48 L53.3333333,48 C51.125,48.0026042 49.3359375,49.7916667 49.3333333,52 L49.3333333,60 C49.3359375,62.2083333 51.125,63.9973958 53.3333333,64 L64,64 L64,73.3333333 Z M69.3333333,60 C69.3326823,60.735677 68.735677,61.3326823 68,61.3333333 L53.3333333,61.3333333 C52.5976563,61.3326823 52.000651,60.735677 52,60 L52,52 C52.000651,51.264323 52.5976563,50.6673177 53.3333333,50.6666667 L69.3333333,50.6666667 L69.3333333,60 Z M66.6666667,48 L66.6666667,45.3333333 L68,45.3333333 C68.735677,45.3339843 69.3326823,45.9309897 69.3333333,46.6666667 L69.3333333,48 L66.6666667,48 Z" id="Shape"></path>
                    <path d="M35.6666667,10.5605468 C39.7539063,9.96419267 42.9641927,6.75390633 43.5605468,2.66666667 L49.1061198,2.66666667 C49.702474,6.75390633 52.9127603,9.96419267 57,10.5605468 L57,32 L59.6666667,32 L59.6666667,4 C59.6640625,1.79166667 57.875,0.00260416667 55.6666667,0 L37,0 C34.7916667,0.00260416667 33.0026042,1.79166667 33,4 L33,32 L35.6666667,32 L35.6666667,10.5605468 Z M55.6666667,2.66666667 C56.4023437,2.66731767 56.999349,3.264323 57,4 L57,7.86588533 C54.3841147,7.326823 52.3398437,5.282552 51.8007813,2.66666667 L55.6666667,2.66666667 Z M35.6666667,4 C35.6673177,3.264323 36.264323,2.66731767 37,2.66666667 L40.8658853,2.66666667 C40.326823,5.282552 38.282552,7.326823 35.6666667,7.86588533 L35.6666667,4 Z" id="Shape"></path>
                    <path d="M38.3333333,19.3333333 C38.3333333,23.751302 41.9153647,27.3333333 46.3333333,27.3333333 C50.751302,27.3333333 54.3333333,23.751302 54.3333333,19.3333333 C54.3333333,14.9153647 50.751302,11.3333333 46.3333333,11.3333333 C41.9173177,11.3378907 38.3378907,14.9173177 38.3333333,19.3333333 Z M51.6666667,19.3333333 C51.6666667,22.2786458 49.2786458,24.6666667 46.3333333,24.6666667 C43.3880208,24.6666667 41,22.2786458 41,19.3333333 C41,16.3880208 43.3880208,14 46.3333333,14 C49.2773437,14.0032552 51.6634115,16.389323 51.6666667,19.3333333 Z" id="Shape"></path>
                    <path d="M22.6666667,18.5605468 C26.7539063,17.9641927 29.9641927,14.7539063 30.5605468,10.6666667 L33.3333333,10.6666667 L33.3333333,8 L24,8 C21.7916667,8.00260417 20.0026042,9.79166667 20,12 L20,32 L22.6666667,32 L22.6666667,18.5605468 Z M22.6666667,12 C22.6673177,11.264323 23.264323,10.6673177 24,10.6666667 L27.8658853,10.6666667 C27.326823,13.282552 25.282552,15.326823 22.6666667,15.8658853 L22.6666667,12 Z" id="Shape"></path>
                    <path d="M9.66666667,26.5605468 C13.7539063,25.9641927 16.9641927,22.7539063 17.5605468,18.6666667 L20.3333333,18.6666667 L20.3333333,16 L11,16 C8.79166667,16.0026042 7.00260417,17.7916667 7,20 L7,32 L9.66666667,32 L9.66666667,26.5605468 Z M9.66666667,20 C9.66731767,19.264323 10.264323,18.6673177 11,18.6666667 L14.8658853,18.6666667 C14.326823,21.282552 12.282552,23.326823 9.66666667,23.8658853 L9.66666667,20 Z" id="Shape"></path>
                    <path d="M25.3333333,32 L28,32 C28.0032552,29.0559897 30.389323,26.6699218 33.3333333,26.6666667 L33.3333333,24 C28.9173177,24.0045573 25.3378907,27.5839843 25.3333333,32 Z" id="Path"></path>
                </g>
            </g>
        </g>
    </g>
</svg>