<?xml version="1.0" encoding="UTF-8"?>
<svg width="80px" height="80px" viewBox="0 0 80 80" version="1.1" xmlns="http://www.w3.org/2000/svg" xmlns:xlink="http://www.w3.org/1999/xlink">
    <!-- Generator: Sketch 52.2 (67145) - http://www.bohemiancoding.com/sketch -->
    <title>investment</title>
    <desc>Created with Sketch.</desc>
    <g id="Page-1" stroke="none" stroke-width="1" fill="none" fill-rule="evenodd">
        <g id="IQmining-2" transform="translate(-515.000000, -2521.000000)" fill="#FFFFFF" fill-rule="nonzero">
            <g id="block-5" transform="translate(0.000000, 2472.000000)">
                <g id="investment" transform="translate(515.000000, 49.000000)">
                    <path d="M79.827957,47.7956129 C79.827957,37.1977634 75.4621935,23.3393548 63.311828,18.3652473 L63.311828,13.0553118 L66.9247312,10.1649892 C67.2510968,9.90365591 67.4410323,9.50812903 67.4408602,9.09006452 L67.4408602,1.38253763 C67.4408602,0.622451613 66.8246022,0.00619354839 66.0645161,0.00619354839 L61.9354839,0.00619354839 C61.5704086,0.00619354839 61.2204731,0.151397849 60.9624086,0.409462366 L59.1827957,2.18907527 L57.4031828,0.409462366 C57.1451183,0.151397849 56.7951828,0.00619354839 56.4301075,0.00619354839 L50.9247312,0.00619354839 C50.5596559,0.00619354839 50.2097204,0.151397849 49.9516559,0.409462366 L48.172043,2.18907527 L46.3924301,0.409462366 C46.1343656,0.151397849 45.7844301,0.00619354839 45.4193548,0.00619354839 L41.2903226,0.00619354839 C40.5302366,0.00619354839 39.9139785,0.622451613 39.9139785,1.38253763 L39.9139785,9.09006452 C39.9138065,9.50812903 40.1037419,9.90365591 40.4301075,10.1649892 L44.0430108,13.0553118 L44.0430108,18.3652473 C31.8926452,23.3393548 27.5268817,37.2032688 27.5268817,47.7956129 C27.5010753,50.2807742 27.8871398,52.7532043 28.6692473,55.1122581 C28.0774194,55.0792258 27.4814624,55.059957 26.8868817,55.059957 L23.3978495,55.059957 C23.3978495,54.299871 22.7815914,53.6836129 22.0215054,53.6836129 L11.0107527,53.6836129 C10.2506667,53.6836129 9.6344086,54.299871 9.6344086,55.059957 L0,55.059957 L0,57.8126452 L9.6344086,57.8126452 L9.6344086,71.576086 L0,71.576086 L0,74.3287742 L9.6344086,74.3287742 C9.6344086,75.0888602 10.2506667,75.7051183 11.0107527,75.7051183 L22.0215054,75.7051183 C22.7815914,75.7051183 23.3978495,75.0888602 23.3978495,74.3287742 L23.3978495,73.8043871 L33.6736344,78.0710538 C39.2753548,80.3588817 45.5378925,80.4283871 51.1889892,78.2651183 L72.4507527,70.1570753 C73.7102796,69.6784516 74.723957,68.7124301 75.2626237,67.4773333 C76.0894624,65.6325161 75.7386667,63.4726882 74.3707527,61.9843441 C78.0755269,58.2141935 80.0514409,53.0768172 79.827957,47.7956129 Z M20.6451613,72.9524301 L12.3870968,72.9524301 L12.3870968,56.4363011 L20.6451613,56.4363011 L20.6451613,72.9524301 Z M42.6666667,8.42941935 L42.6666667,2.75888172 L44.8495484,2.75888172 L47.1989677,5.10830108 C47.7364301,5.6455914 48.6076559,5.6455914 49.1451183,5.10830108 L51.4945376,2.75888172 L55.8603011,2.75888172 L58.2097204,5.10830108 C58.7471828,5.6455914 59.6184086,5.6455914 60.155871,5.10830108 L62.5052903,2.75888172 L64.688172,2.75888172 L64.688172,8.42941935 L61.4523871,11.0169462 L45.8996989,11.0169462 L42.6666667,8.42941935 Z M60.5591398,13.7696344 L60.5591398,17.8986667 L46.7956989,17.8986667 L46.7956989,13.7696344 L60.5591398,13.7696344 Z M72.7384086,66.368 C72.4953118,66.9298925 72.0357849,67.3701505 71.463914,67.5888172 L50.2021505,75.6954839 C45.2061935,77.6092903 39.6691613,77.5497634 34.7155269,75.5289462 L23.3978495,70.8232258 L23.3978495,57.8126452 L26.8868817,57.8126452 C31.4504946,57.8179785 35.9507957,58.8803441 40.0350968,60.9163011 C41.3837419,61.5895054 42.8701935,61.9404731 44.3774624,61.9416774 L55.0537634,61.9416774 C56.1938925,61.9490753 57.1122581,62.8793118 57.1048602,64.0194409 C57.0986667,64.9744516 56.4381935,65.8007742 55.507957,66.0170323 C55.3276559,66.0335484 55.1514839,66.0707097 54.9684301,66.0707097 L38.5376344,66.0707097 L38.5376344,68.8233978 L54.9684301,68.8233978 C54.9973333,68.8233978 55.0248602,68.8233978 55.0537634,68.8233978 C55.0812903,68.8233978 55.1074409,68.8151398 55.1363441,68.8151398 C56.2286452,68.7975914 57.3073548,68.5689462 58.3129462,68.1421075 L69.8205591,63.2574624 C70.3686882,63.0234839 70.9887312,63.0234839 71.5368602,63.2574624 C72.1070108,63.4981505 72.5543226,63.9607742 72.7755699,64.5388387 C73.0093763,65.1289462 72.995957,65.788043 72.7384086,66.368 Z M71.9181075,60.5047742 C70.8652043,60.2226237 69.7484731,60.2995269 68.7442581,60.7236129 L59.820043,64.5126882 C59.8460215,64.3449462 59.8630538,64.175828 59.8709677,64.0061935 C59.8709677,61.3457204 57.7142366,59.1889892 55.0537634,59.1889892 L44.3774624,59.1889892 C43.2973763,59.1874409 42.2322581,58.9357419 41.2655484,58.4540215 C38.2783656,56.9687742 35.0788817,55.9556129 31.7811613,55.4508387 C30.7525161,53.0317419 30.2410323,50.424086 30.2795699,47.7956129 C30.2795699,37.8859355 34.3273978,24.8781075 45.6946237,20.6513548 L61.6602151,20.6513548 C73.0274409,24.8781075 77.0752688,37.8859355 77.0752688,47.7956129 C77.3064946,52.583914 75.4205591,57.2316559 71.9181075,60.5047742 Z" id="Shape"></path>
                    <path d="M56.6007742,39.443957 L51.6252903,37.7854624 C51.0886882,37.6094624 50.7962151,37.0317419 50.9722151,36.4951398 C51.1103656,36.0739785 51.504,35.7897634 51.9473548,35.7911398 L55.4074839,35.7911398 C55.9724731,35.791828 56.4301075,36.2501505 56.4301075,36.8151398 L56.4301075,37.7180215 L59.1827957,37.7180215 L59.1827957,36.8151398 C59.1812473,34.7304946 57.492129,33.0406882 55.4074839,33.0384516 L55.0537634,33.0384516 L55.0537634,30.2857634 L52.3010753,30.2857634 L52.3010753,33.0384516 L51.9473548,33.0384516 C49.8623656,33.0370753 48.1708387,34.7261935 48.1694624,36.8111828 C48.1684301,38.4383656 49.2099785,39.8831828 50.7540645,40.3963871 L55.7295484,42.0548817 C56.2661505,42.2308817 56.5586237,42.8086022 56.3826237,43.3452043 C56.2444731,43.7663656 55.8508387,44.0505806 55.4074839,44.0492043 L51.9473548,44.0492043 C51.3823656,44.0485161 50.9247312,43.5901935 50.9247312,43.0252043 L50.9247312,42.1223226 L48.172043,42.1223226 L48.172043,43.0252043 C48.1735914,45.1098495 49.8627097,46.7996559 51.9473548,46.8018925 L52.3010753,46.8018925 L52.3010753,49.5545806 L55.0537634,49.5545806 L55.0537634,46.8018925 L55.4074839,46.8018925 C57.4924731,46.8032688 59.184,45.1141505 59.1853763,43.0291613 C59.1865806,41.4019785 58.1448602,39.9571613 56.6007742,39.443957 Z" id="Path"></path>
                    <path d="M53.6774194,24.7803871 C45.315957,24.7803871 38.5376344,31.5587097 38.5376344,39.920172 C38.5474409,48.2775054 45.320086,55.0501505 53.6774194,55.059957 C62.0388817,55.059957 68.8172043,48.2816344 68.8172043,39.920172 C68.8172043,31.5587097 62.0388817,24.7803871 53.6774194,24.7803871 Z M53.6774194,52.3072688 C46.8363011,52.3072688 41.2903226,46.7612903 41.2903226,39.920172 C41.2978925,33.0821505 46.8393978,27.5406452 53.6774194,27.5330753 C60.5187097,27.5330753 66.0645161,33.0788817 66.0645161,39.920172 C66.0645161,46.7614624 60.5187097,52.3072688 53.6774194,52.3072688 Z" id="Shape"></path>
                </g>
            </g>
        </g>
    </g>
</svg>