<svg xmlns="http://www.w3.org/2000/svg" width="23.31" height="18.93" viewBox="0 0 23.31 18.93">
  <metadata><?xpacket begin="﻿" id="W5M0MpCehiHzreSzNTczkc9d"?>
<x:xmpmeta xmlns:x="adobe:ns:meta/" x:xmptk="Adobe XMP Core 5.6-c138 79.159824, 2016/09/14-01:09:01        ">
   <rdf:RDF xmlns:rdf="http://www.w3.org/1999/02/22-rdf-syntax-ns#">
      <rdf:Description rdf:about=""/>
   </rdf:RDF>
</x:xmpmeta>
                                                                                                    
                                                                                                    
                                                                                                    
                                                                                                    
                                                                                                    
                                                                                                    
                                                                                                    
                                                                                                    
                                                                                                    
                                                                                                    
                                                                                                    
                                                                                                    
                                                                                                    
                                                                                                    
                                                                                                    
                                                                                                    
                                                                                                    
                                                                                                    
                                                                                                    
                                                                                                    
                           
<?xpacket end="w"?></metadata>
<defs>
    <style>
      .cls-1 {
        fill: #FFFFFF;
        fill-rule: evenodd;
      }
    </style>
  </defs>
  <path id="Shape_35_copy" data-name="Shape 35 copy" class="cls-1" d="M1140.25,4329.65a9.745,9.745,0,0,1-2.75.76,4.836,4.836,0,0,0,2.11-2.65,9.488,9.488,0,0,1-3.04,1.16,4.782,4.782,0,0,0-8.27,3.27,4.855,4.855,0,0,0,.12,1.09,13.58,13.58,0,0,1-9.85-4.99,4.735,4.735,0,0,0-.65,2.4,4.791,4.791,0,0,0,2.13,3.98,4.73,4.73,0,0,1-2.17-.6v0.06a4.785,4.785,0,0,0,3.84,4.69,4.732,4.732,0,0,1-1.26.17,4.431,4.431,0,0,1-.9-0.09,4.785,4.785,0,0,0,4.47,3.32,9.624,9.624,0,0,1-5.94,2.05,8.513,8.513,0,0,1-1.14-.07,13.593,13.593,0,0,0,20.93-11.45c0-.21-0.01-0.42-0.02-0.62a9.714,9.714,0,0,0,2.39-2.48h0Z" transform="translate(-1116.94 -4327.41)"/>
</svg>
