<?xml version="1.0" encoding="UTF-8"?>
<svg width="79px" height="80px" viewBox="0 0 79 80" version="1.1" xmlns="http://www.w3.org/2000/svg" xmlns:xlink="http://www.w3.org/1999/xlink">
    <!-- Generator: Sketch 52.2 (67145) - http://www.bohemiancoding.com/sketch -->
    <title>key (2)</title>
    <desc>Created with Sketch.</desc>
    <g id="Page-1" stroke="none" stroke-width="1" fill="none" fill-rule="evenodd">
        <g id="IQmining-2" transform="translate(-1100.000000, -2524.000000)" fill="#FFFFFF" fill-rule="nonzero">
            <g id="key-(2)" transform="translate(1100.000000, 2524.000000)">
                <path d="M78.4459259,63.7214815 L47.5674074,34.2888889 C52.1392593,24.4192593 50.7155556,14.4266667 43.6681481,7.37925926 C38.6992593,2.41037037 31.8118519,-0.291851852 24.797037,0.0251851852 C17.6740741,0.322962963 11.202963,3.50666667 6.57481481,8.9837037 C-1.82962963,18.9362963 -1.13333333,33.9244444 8.16148148,43.1051852 C14.6488889,49.5140741 23.7925926,51.6414815 32.7777778,48.8785185 L36.3259259,52.4962963 C36.6044444,52.7792593 36.9851852,52.9407407 37.3837037,52.9407407 L43.3496296,52.9407407 L43.3496296,57.3851852 C43.3496296,58.2044444 44.0133333,58.8666667 44.8311111,58.8666667 L49.2755556,58.8666667 L49.2755556,63.3111111 C49.2755556,64.1303704 49.9392593,64.7925926 50.757037,64.7925926 L56.682963,64.7925926 L56.682963,70.7185185 C56.682963,71.5377778 57.3466667,72.2 58.1644444,72.2 L61.1274074,72.2 L61.1274074,74.8311111 C61.1274074,76.2607407 61.2503704,77.0577778 62.3762963,78.1837037 C63.2,79.0103704 64.2948148,79.5125926 65.5718519,79.6074074 L77.4237037,79.6074074 C78.2414815,79.6074074 78.9051852,78.9451852 78.9051852,78.1259259 L78.9051852,64.7925926 C78.9051852,64.3881481 78.7392593,64.0014815 78.4459259,63.7214815 Z M75.9422222,76.6459259 L65.6859259,76.6503704 C65.2281481,76.6162963 64.797037,76.4177778 64.4725926,76.0918519 C64.0903704,75.7096296 64.0903704,75.7096296 64.0903704,74.8325926 L64.0903704,70.72 C64.0903704,69.9007407 63.4266667,69.2385185 62.6088889,69.2385185 L59.6459259,69.2385185 L59.6459259,63.3125926 C59.6459259,62.4933333 58.9822222,61.8311111 58.1644444,61.8311111 L52.2385185,61.8311111 L52.2385185,57.3866667 C52.2385185,56.5674074 51.5748148,55.9051852 50.757037,55.9051852 L46.3125926,55.9051852 L46.3125926,51.4607407 C46.3125926,50.6414815 45.6488889,49.9792593 44.8311111,49.9792593 L38.0059259,49.9792593 L34.2518519,46.1496296 C33.8533333,45.7422222 33.2533333,45.6 32.7125926,45.7866667 C24.5274074,48.6014815 16.1288889,46.8118519 10.2444444,41 C2.04296296,32.8948148 1.42518519,19.6740741 8.83851852,10.8962963 C12.9259259,6.05777778 18.637037,3.24888889 24.92,2.98518519 C31.1259259,2.73185185 37.1881481,5.09037037 41.5718519,9.47407407 C48,15.9037037 49.0459259,24.8237037 44.44,33.9496296 C44.1451852,34.5318519 44.2681481,35.2385185 44.7407407,35.6888889 L75.9407407,65.4296296 L75.9407407,76.6459259 L75.9422222,76.6459259 Z" id="Shape"></path>
                <path d="M13.2888889,12.6162963 C11.6103704,14.2962963 10.6859259,16.5288889 10.6859259,18.9022222 C10.6859259,21.2755556 11.6103704,23.5081481 13.2888889,25.1866667 C14.9674074,26.8666667 17.2,27.7911111 19.5748148,27.7911111 C21.9496296,27.7911111 24.1807407,26.8666667 25.8607407,25.1866667 C27.5392593,23.5081481 28.4637037,21.2755556 28.4637037,18.9022222 C28.4637037,16.5288889 27.5392593,14.2962963 25.8607407,12.6162963 C22.3940741,9.14962963 16.7540741,9.14962963 13.2888889,12.6162963 Z M23.7644444,23.0918519 C21.5244444,25.3318519 17.6222222,25.3318519 15.3837037,23.0918519 C14.2651852,21.9718519 13.6488889,20.4844444 13.6488889,18.9022222 C13.6488889,17.32 14.2651852,15.8311111 15.3837037,14.7111111 C16.5392593,13.557037 18.0562963,12.9792593 19.5748148,12.9792593 C21.0933333,12.9792593 22.6103704,13.557037 23.7659259,14.7111111 C24.8844444,15.8311111 25.5007407,17.32 25.5007407,18.9022222 C25.5007407,20.4844444 24.8844444,21.9718519 23.7644444,23.0918519 Z" id="Shape"></path>
            </g>
        </g>
    </g>
</svg>