<svg xmlns="http://www.w3.org/2000/svg" width="22.5" height="22.5" viewBox="0 0 22.5 22.5">
  <metadata><?xpacket begin="﻿" id="W5M0MpCehiHzreSzNTczkc9d"?>
<x:xmpmeta xmlns:x="adobe:ns:meta/" x:xmptk="Adobe XMP Core 5.6-c138 79.159824, 2016/09/14-01:09:01        ">
   <rdf:RDF xmlns:rdf="http://www.w3.org/1999/02/22-rdf-syntax-ns#">
      <rdf:Description rdf:about=""/>
   </rdf:RDF>
</x:xmpmeta>
                                                                                                    
                                                                                                    
                                                                                                    
                                                                                                    
                                                                                                    
                                                                                                    
                                                                                                    
                                                                                                    
                                                                                                    
                                                                                                    
                                                                                                    
                                                                                                    
                                                                                                    
                                                                                                    
                                                                                                    
                                                                                                    
                                                                                                    
                                                                                                    
                                                                                                    
                                                                                                    
                           
<?xpacket end="w"?></metadata>
<defs>
    <style>
      .cls-1 {
        fill: #FFFFFF;
        fill-rule: evenodd;
      }
    </style>
  </defs>
  <path id="Shape_35_copy_2" data-name="Shape 35 copy 2" class="cls-1" d="M1177.52,4332.25a2.354,2.354,0,0,0,1.49-.49,1.418,1.418,0,0,0,.54-1.18v-3.03a1.341,1.341,0,0,0-.55-1.1,2.281,2.281,0,0,0-1.42-.42,2.526,2.526,0,0,0-1.51.4,1.253,1.253,0,0,0-.56,1.08v3.05a1.463,1.463,0,0,0,.54,1.19A2.341,2.341,0,0,0,1177.52,4332.25Zm-0.66-4.59a0.323,0.323,0,0,1,.18-0.28,0.894,0.894,0,0,1,.46-0.11,1,1,0,0,1,.5.11,0.316,0.316,0,0,1,.19.28v2.88a0.37,0.37,0,0,1-.19.34,0.9,0.9,0,0,1-.5.12,0.81,0.81,0,0,1-.48-0.12,0.388,0.388,0,0,1-.16-0.34v-2.88Zm4.84,4.59a1.6,1.6,0,0,0,.69-0.26,2.677,2.677,0,0,0,.68-0.57v0.68h1.18v-6.08h-1.18v4.61a1.654,1.654,0,0,1-.37.33,0.7,0.7,0,0,1-.33.13,0.272,0.272,0,0,1-.24-0.1,0.507,0.507,0,0,1-.07-0.31v-4.66h-1.18v5.08a1.307,1.307,0,0,0,.21.81A0.763,0.763,0,0,0,1181.7,4332.25Zm3.44,2.51h-14.28a4.033,4.033,0,0,0-4.11,3.95v3.34a4.025,4.025,0,0,0,4.11,3.94h14.28a4.025,4.025,0,0,0,4.11-3.94v-3.34A4.033,4.033,0,0,0,1185.14,4334.76Zm-12.15,3.39h-1.27v5.23h-1.22v-5.23h-1.26v-0.89h3.75v0.89Zm3.76,5.3h-1.31v-0.54a2.866,2.866,0,0,1-.76.45,2.006,2.006,0,0,1-.77.16,0.97,0.97,0,0,1-.69-0.22,0.9,0.9,0,0,1-.23-0.66v-4.13h1.32v3.79a0.356,0.356,0,0,0,.08.25,0.414,0.414,0,0,0,.27.08,0.934,0.934,0,0,0,.37-0.11,1.774,1.774,0,0,0,.41-0.26v-3.75h1.31v4.94Zm4.99-.94a0.928,0.928,0,0,1-.31.74,1.285,1.285,0,0,1-.88.26,1.989,1.989,0,0,1-.68-0.1,1.631,1.631,0,0,1-.56-0.31v0.35H1178v-6.19h1.31v1.99a2.208,2.208,0,0,1,.56-0.31,1.591,1.591,0,0,1,.6-0.11,1.341,1.341,0,0,1,.94.29,1.071,1.071,0,0,1,.33.85v2.54Zm5-1.4h-2.42v0.9a0.845,0.845,0,0,0,.12.52,0.584,0.584,0,0,0,.43.14,0.656,0.656,0,0,0,.45-0.12,0.835,0.835,0,0,0,.12-0.54v-0.22h1.31v0.24a1.3,1.3,0,0,1-.48,1.1,2.371,2.371,0,0,1-1.43.37,2.115,2.115,0,0,1-1.34-.39,1.322,1.322,0,0,1-.49-1.08v-2.12a1.2,1.2,0,0,1,.54-1.01,2.308,2.308,0,0,1,1.39-.38,2.228,2.228,0,0,1,1.34.35,1.237,1.237,0,0,1,.46,1.04v1.2Zm-14.46-8.85h1.49v-3.63l1.74-5.12h-1.52l-0.92,3.5h-0.1l-0.97-3.5h-1.5l1.78,5.28v3.47Zm7.57,7.29-0.27.05-0.27.14v2.84a0.919,0.919,0,0,0,.31.16l0.31,0.05a0.544,0.544,0,0,0,.35-0.09,0.39,0.39,0,0,0,.11-0.32v-2.36a0.446,0.446,0,0,0-.13-0.35A0.626,0.626,0,0,0,1179.85,4339.55Z" transform="translate(-1166.75 -4323.5)"/>
</svg>
