<?xml version="1.0" encoding="UTF-8"?>
<svg width="92px" height="80px" viewBox="0 0 92 80" version="1.1" xmlns="http://www.w3.org/2000/svg" xmlns:xlink="http://www.w3.org/1999/xlink">
    <!-- Generator: Sketch 52.2 (67145) - http://www.bohemiancoding.com/sketch -->
    <title>group</title>
    <desc>Created with Sketch.</desc>
    <g id="Page-1" stroke="none" stroke-width="1" fill="none" fill-rule="evenodd">
        <g id="IQmining-2" transform="translate(-217.000000, -2521.000000)" fill="#FFFFFF" fill-rule="nonzero">
            <g id="block-5" transform="translate(0.000000, 2472.000000)">
                <g id="group" transform="translate(217.000000, 49.000000)">
                    <path d="M90.9572043,73.7421505 L87.3443011,61.1830108 C87.2582796,60.9249462 87.0862366,60.6668817 86.9141935,60.4948387 C84.6776344,53.6991398 79.1722581,48.451828 72.2045161,46.6453763 L71.1722581,46.4733333 C69.623871,46.0432258 67.9034409,46.5593548 66.7851613,47.8496774 C63.0002151,52.1507527 58.1830108,52.4948387 53.1077419,52.4948387 C48.0324731,52.4948387 43.2152688,52.1507527 39.4303226,47.8496774 C38.312043,46.5593548 36.5916129,46.0432258 35.0432258,46.4733333 L34.0109677,46.7313978 C28.7636559,48.1077419 24.2905376,51.4625806 21.451828,55.9356989 L10.6131183,55.9356989 C10.5270968,55.9356989 10.5270968,55.9356989 10.4410753,55.8496774 C10.4410753,55.7636559 10.3550538,55.6776344 10.3550538,55.5055914 L12.5916129,47.5055914 C14.5701075,41.2260215 18.3550538,39.3335484 25.7529032,37.4410753 C26.0969892,37.3550538 26.3550538,37.1830108 26.5270968,37.0109677 C27.1292473,37.5270968 27.8174194,37.9572043 28.5055914,38.3012903 C28.7636559,38.4733333 29.0217204,38.4733333 29.2797849,38.4733333 C29.8819355,38.4733333 30.484086,38.1292473 30.828172,37.5270968 C31.2582796,36.6668817 30.9141935,35.6346237 30.0539785,35.2045161 C26.0969892,33.14 23.2582796,27.2905376 23.2582796,21.2690323 C23.2582796,15.9356989 27.6453763,11.5486022 32.9787097,11.5486022 C34.0109677,11.5486022 34.9572043,11.7206452 35.9034409,11.9787097 C34.9572043,14.3012903 34.4410753,16.795914 34.4410753,19.4625806 C34.4410753,34.1722581 43.3012903,46.5593548 53.795914,46.5593548 C64.1184946,46.5593548 73.2367742,33.9141935 73.2367742,19.4625806 C73.2367742,8.70989247 64.5486022,0.0217204301 53.795914,0.0217204301 C47.0002151,0.0217204301 40.9787097,3.54860215 37.5378495,8.88193548 C36.0754839,8.36580645 34.5270968,8.10774194 32.9787097,8.10774194 C28.3335484,8.10774194 24.2045161,10.6023656 21.8819355,14.3012903 C21.7098925,14.1292473 21.5378495,14.0432258 21.3658065,13.9572043 C20.0754839,13.2690323 18.7851613,13.0109677 17.3227957,13.0109677 C12.5055914,12.9249462 8.63462366,16.795914 8.63462366,21.6131183 C8.63462366,24.3658065 9.4088172,26.9464516 10.6131183,29.0109677 C6.65612903,30.0432258 3.12924731,31.5916129 1.49483871,36.8389247 L0.118494624,41.828172 C-0.139569892,42.6883871 0.0324731183,43.6346237 0.548602151,44.3227957 C1.06473118,45.0969892 2.01096774,45.5270968 2.9572043,45.5270968 L9.58086022,45.5270968 C9.49483871,45.8711828 9.3227957,46.2152688 9.23677419,46.5593548 L7.00021505,54.6453763 C6.65612903,55.7636559 6.91419355,56.967957 7.6883871,57.9141935 C8.37655914,58.8604301 9.4088172,59.3765591 10.6131183,59.3765591 L19.7313978,59.3765591 C19.4733333,59.9787097 19.3012903,60.5808602 19.1292473,61.1830108 L15.5163441,73.828172 C15.1722581,75.2905376 15.4303226,76.8389247 16.3765591,78.0432258 C17.3227957,79.2475269 18.6991398,79.9356989 20.1615054,79.9356989 L71.7744086,79.9356989 L74.6991398,79.9356989 L86.312043,79.9356989 C87.7744086,79.9356989 89.2367742,79.2475269 90.0969892,78.0432258 C91.0432258,76.8389247 91.3873118,75.2905376 90.9572043,73.7421505 Z M39.6023656,12.2367742 C39.6883871,12.1507527 39.7744086,12.0647312 39.8604301,11.8926882 C39.9464516,11.8066667 39.9464516,11.6346237 40.0324731,11.5486022 C42.6991398,6.73139785 47.8604301,3.46258065 53.795914,3.46258065 C60.9356989,3.46258065 66.9572043,8.19376344 69.0217204,14.6453763 C66.0109677,15.2475269 62.828172,14.0432258 60.9356989,11.4625806 C60.3335484,10.6883871 59.3012903,10.5163441 58.5270968,11.1184946 C58.1830108,11.3765591 58.0109677,11.6346237 57.9249462,11.9787097 C57.8389247,12.0647312 57.8389247,12.1507527 57.7529032,12.2367742 C55.3443011,17.14 47.2582796,19.2045161 38.0539785,17.3980645 C38.312043,15.5916129 38.828172,13.8711828 39.6023656,12.2367742 Z M44.4195699,21.4410753 C51.3012903,21.4410753 56.9787097,19.2905376 59.9034409,15.2475269 C62.0539785,17.14 64.7206452,18.1722581 67.5593548,18.1722581 C68.2475269,18.1722581 69.0217204,18.0862366 69.7098925,17.9141935 C69.795914,18.4303226 69.795914,18.8604301 69.795914,19.3765591 C69.795914,32.0217204 62.312043,43.1184946 53.795914,43.1184946 C45.623871,43.1184946 38.484086,32.8819355 37.8819355,20.8389247 C40.1184946,21.2690323 42.3550538,21.4410753 44.4195699,21.4410753 Z M3.64537634,42.0862366 L4.84967742,37.7851613 C5.88193548,34.2582796 8.03247312,33.2260215 12.3335484,32.1937634 C12.5916129,32.1077419 12.8496774,32.0217204 13.0217204,31.8496774 C13.451828,32.1937634 13.795914,32.451828 14.312043,32.7098925 C14.5701075,32.8819355 14.828172,32.8819355 15.0862366,32.8819355 C15.6883871,32.8819355 16.2905376,32.5378495 16.6346237,31.9356989 C17.0647312,31.0754839 16.7206452,30.0432258 15.9464516,29.6131183 C13.7098925,28.4088172 12.0754839,25.0539785 12.0754839,21.6131183 C12.0754839,18.6883871 14.3980645,16.3658065 17.3227957,16.3658065 C18.2690323,16.3658065 19.0432258,16.5378495 19.8174194,16.967957 C20.0754839,17.0539785 20.2475269,17.14 20.5055914,17.14 C20.0754839,18.4303226 19.8174194,19.8066667 19.8174194,21.2690323 C19.8174194,26.1722581 21.451828,30.9894624 24.0324731,34.3443011 C18.8711828,35.6346237 14.312043,37.3550538 11.3012903,42.0862366 L3.64537634,42.0862366 Z M87.4303226,75.9787097 C87.2582796,76.1507527 86.9141935,76.4948387 86.312043,76.4948387 L74.6991398,76.4948387 L71.7744086,76.4948387 L20.1615054,76.4948387 C19.5593548,76.4948387 19.2152688,76.1507527 19.0432258,75.9787097 C18.7851613,75.6346237 18.6991398,75.1184946 18.7851613,74.7744086 L22.3980645,62.2152688 C24.1184946,56.2797849 28.8496774,51.6346237 34.8711828,50.0862366 L35.9034409,49.828172 C36.1615054,49.7421505 36.5916129,49.9141935 36.8496774,50.1722581 C41.5808602,55.5916129 47.4303226,56.0217204 53.1077419,56.0217204 C58.7851613,56.0217204 64.6346237,55.5916129 69.3658065,50.1722581 C69.623871,49.9141935 69.967957,49.7421505 70.3980645,49.828172 L71.4303226,50.0862366 C77.3658065,51.6346237 82.1830108,56.2797849 83.9034409,62.2152688 L85.451828,67.5486022 C85.5378495,67.8066667 85.623871,67.9787097 85.795914,68.1507527 L87.6883871,74.6883871 C87.7744086,75.1184946 87.6883871,75.6346237 87.4303226,75.9787097 Z" id="Shape"></path>
                </g>
            </g>
        </g>
    </g>
</svg>