<?xml version="1.0" encoding="UTF-8"?>
<svg width="110px" height="48px" viewBox="0 0 110 48" version="1.1" xmlns="http://www.w3.org/2000/svg" xmlns:xlink="http://www.w3.org/1999/xlink">
    <!-- Generator: Sketch 52.2 (67145) - http://www.bohemiancoding.com/sketch -->
    <title>qiwi</title>
    <desc>Created with Sketch.</desc>
    <g id="Page-1" stroke="none" stroke-width="1" fill="none" fill-rule="evenodd">
        <g id="IQmining-2" transform="translate(-970.000000, -3136.000000)" fill-rule="nonzero">
            <g id="block-6" transform="translate(301.000000, 2852.000000)">
                <g id="Group-5" transform="translate(20.000000, 219.000000)">
                    <g id="qiwi" transform="translate(649.000000, 65.000000)">
                        <path d="M44.470868,45.6349584 C44.2615933,45.059453 43.882283,44.667063 43.60761,44.156956 C42.940547,43.2806183 42.1557669,42.5219976 41.3709869,41.7633769 C41.0963139,41.6718193 40.9785969,41.4102259 40.7170036,41.3055886 C40.5469679,41.0832342 40.2722949,40.9655172 40.0499405,40.7954816 C39.6052319,40.4554102 39.1212842,40.1676576 38.6242568,39.8799049 C37.6825208,39.2782402 36.5184304,38.8989298 35.3674197,38.5065398 C34.1248514,38.2057075 32.8168847,37.9833532 31.4565993,37.8002378 C30.1093936,37.6040428 28.7621879,37.4209275 27.7419738,36.8846611 C27.1533888,36.7146254 26.7217598,36.3876338 26.2116528,36.1260404 C25.7407848,35.8121284 25.2306778,35.5505351 24.8382878,35.1581451 C24.3543401,34.8703924 24.0535077,34.3864447 23.6741974,33.9940547 C23.5434007,33.7324614 23.3210464,33.5755054 23.216409,33.2877527 C23.0856124,33.235434 23.0463734,33.078478 22.9678954,32.9869203 C22.8763377,32.882283 22.8763377,32.6730083 22.7193817,32.6337693 C22.6409037,33.1700357 22.667063,33.8109394 22.7193817,34.3602854 C22.78478,34.5957194 22.8109394,34.8834721 22.8763377,35.1189061 C22.9155767,35.3281807 23.1117717,35.6682521 23.0332937,35.8252081 C18.9524376,35.6159334 15.9702735,34.3210464 13.3804994,32.6206897 C12.098692,31.7705113 11,30.7372176 9.97978597,29.6254459 C9.53507729,29.0107015 9.05112961,28.4221165 8.6587396,27.7419738 C8.25326992,27.0749108 7.91319857,26.3162901 7.5469679,25.6099881 C6.94530321,24.0796671 6.38287753,22.510107 6.17360285,20.587396 C5.89892985,18.7954816 5.96432818,16.5065398 6.36979786,14.8454221 C6.5136742,13.9298454 6.81450654,13.1581451 7.07609988,12.3602854 C7.24613555,11.9940547 7.42925089,11.627824 7.5862069,11.2485137 C7.80856124,10.9346017 7.92627824,10.5029727 8.20095125,10.2282996 C8.94649227,8.82877527 10.058264,7.7824019 11.196195,6.77526754 C12.4256837,5.87277051 13.8252081,5.14030916 15.5124851,4.69560048 C17.1343639,4.3293698 19.3448276,4.26397146 21.097503,4.64328181 C24.6551724,5.37574316 27.3365042,6.97146254 29.5862069,9.01189061 C31.862069,11.0130797 33.6147444,13.5505351 34.8180737,16.6373365 C36.0606421,19.5671819 36.4922711,24.1319857 35.3804994,27.4542212 C34.9227111,27.1926278 34.4649227,26.9441141 34.0071344,26.6956005 C33.4577883,26.5386445 32.921522,26.3555291 32.2806183,26.2901308 C31.508918,26.2770511 30.7502973,26.2901308 30.2532699,26.5386445 C31.2604043,26.4340071 32.0713436,26.7086801 32.6991677,26.9441141 C33.0653983,27.0879905 33.274673,27.1795482 33.5624257,27.3495838 C34.1248514,27.6765755 34.6218787,27.9774078 35.0404281,28.4221165 C36.2306778,29.4684899 37.0808561,30.8549346 37.4863258,32.686088 C37.4863258,32.7384067 37.5517241,32.725327 37.5386445,32.6337693 C37.5909631,32.6206897 37.6171225,32.5814507 37.6432818,32.529132 C37.7086801,32.450654 37.7871581,32.372176 37.8525565,32.2806183 C37.9833532,32.1236623 38.1141498,31.9667063 38.2057075,31.7705113 C38.4803805,31.4435196 38.7027348,31.0772889 38.9120095,30.6979786 C39.3959572,29.9916766 39.7621879,29.1807372 40.1807372,28.4090369 C40.9001189,26.7609988 41.4887039,24.9821641 41.8549346,22.9678954 C42.587396,18.4946492 41.7110583,14.2568371 40.1807372,11.1307967 C38.6111772,7.97859691 36.4137931,5.45422117 33.5755054,3.55766944 C30.7110583,1.67419738 27.3626635,0.287752675 22.7586207,0.156956005 C22.7324614,0.0653983353 22.6932224,0.170035672 22.6016647,0.156956005 C20.1688466,0.0784780024 18.2068966,0.418549346 16.2580262,0.915576694 C15.3555291,1.21640904 14.4137931,1.47800238 13.6159334,1.88347206 C12.7003567,2.1843044 11.9678954,2.68133175 11.1307967,3.04756243 C10.8299643,3.3353151 10.372176,3.47919144 10.058264,3.75386445 C9.65279429,3.95005945 9.35196195,4.26397146 8.94649227,4.46016647 C8.29250892,5.03567182 7.59928656,5.54577883 6.95838288,6.13436385 C6.33055886,6.7098692 5.78121284,7.36385256 5.17954816,7.96551724 C5.08799049,8.17479191 4.93103448,8.31866825 4.77407848,8.47562426 C4.66944114,8.67181926 4.53864447,8.84185493 4.3686088,8.98573127 C4.30321046,9.22116528 4.09393579,9.31272295 4.01545779,9.54815696 C3.84542212,9.67895363 3.80618312,9.94054697 3.60998811,10.058264 C3.43995244,10.4768133 3.1391201,10.7776457 2.94292509,11.1700357 C2.70749108,11.549346 2.52437574,11.9678954 2.28894174,12.334126 C1.92271106,13.1843044 1.53032105,14.0083234 1.2294887,14.9239001 C0.915576694,15.8133175 0.653983353,16.7550535 0.470868014,17.7752675 C0.274673008,18.7300832 0.0915576694,19.9726516 0.117717004,20.979786 C-0.0130796671,21.3460166 0.0915576694,22.0261593 0.117717004,22.4577883 C0.117717004,22.5362663 0.0653983353,22.5624257 0.0653983353,22.6147444 C0.0653983353,23.098692 0.196195006,23.6872771 0.22235434,23.9881094 C0.326991677,25.0998811 0.523186683,26.1331748 0.837098692,27.0356718 C1.0332937,28.0428062 1.45184304,28.8275862 1.75267539,29.7300832 C2.21046373,30.4887039 2.52437574,31.391201 3.07372176,32.0713436 C3.47919144,32.8692033 4.05469679,33.4970273 4.60404281,34.1510107 C5.19262782,34.7788347 5.78121284,35.4197384 6.48751486,35.9298454 C7.7824019,37.0546968 9.29964328,37.9571938 10.960761,38.7288942 C14.0606421,40.2330559 18.6908442,41.2140309 22.8501784,40.9655172 C23.9096314,40.8216409 24.9821641,40.6908442 25.9500595,40.4554102 C26.8394768,40.1284185 27.8727705,39.9322235 28.9453032,39.8014269 C31.391201,39.6444709 33.510107,39.8668252 35.3935791,40.4161712 C37.3032105,40.9262782 38.9512485,41.6979786 40.3769322,42.705113 C41.1355529,43.1498216 41.7633769,43.725327 42.4042806,44.274673 C43.058264,44.8370987 43.5814507,45.530321 44.1831153,46.1581451 C44.2615933,46.3935791 44.4185493,46.5636147 44.5362663,46.7728894 C44.6932224,46.9429251 44.6147444,47.3353151 44.9940547,47.2829964 C45.2294887,47.0475624 44.9548157,46.7074911 44.941736,46.4197384 C44.706302,46.1712247 44.6539834,45.8442331 44.470868,45.6349584 Z" id="Path" fill="#FCB316"></path>
                        <path d="M34.9750297,31.7181926 C34.9227111,31.7181926 34.9096314,31.7574316 34.8703924,31.7705113 C34.7788347,31.9667063 34.8180737,32.2806183 34.8703924,32.4768133 C35.1450654,33.039239 35.2366231,33.7717004 35.8382878,34.0071344 C36.1260404,33.9155767 36.0998811,33.4970273 36.0868014,33.0915577 C35.9560048,32.5945303 35.7728894,32.1498216 35.4720571,31.82283 C35.2627824,31.744352 35.1189061,31.6135553 34.9750297,31.7181926 Z M31.4173603,33.1438763 C31.4173603,33.117717 31.3781213,33.0915577 31.3650416,33.1438763 C30.8680143,33.078478 30.6979786,33.353151 30.4494649,33.549346 C30.0178359,34.6872771 30.7110583,35.7990488 31.9274673,35.7859691 C32.411415,35.6682521 32.7122473,35.3543401 32.7907253,34.8180737 C32.725327,33.863258 32.3198573,33.2485137 31.4173603,33.1438763 Z" id="Shape" fill="#FCB316"></path>
                        <path d="M60.7419738,29.5208086 C60.9381688,30.3448276 61.3567182,30.9334126 61.8275862,31.4827586 C62.2984542,32.0321046 62.8478002,32.489893 63.5148633,32.8299643 C64.1426873,33.2223543 64.82283,33.549346 65.60761,33.7717004 C65.9869203,33.902497 66.353151,34.059453 66.824019,34.1117717 C67.1510107,34.294887 67.5434007,34.3864447 67.56956,34.8573127 C67.5564804,35.4197384 67.17717,35.6290131 66.6932224,35.7336504 C66.2092747,35.6290131 65.60761,35.6420927 65.2021403,35.4589774 C64.1819263,35.3412604 63.3579073,35.0142687 62.4946492,34.7134364 C60.8466112,34.0725327 59.4601665,33.1438763 58.3091558,32.0059453 C58.0737218,31.6135553 57.7467301,31.2996433 57.4982164,30.9203329 C57.2497027,30.5410226 57.0796671,30.0832342 56.8180737,29.7039239 C54.803805,29.4423306 53.43044,28.5267539 52.2271106,27.4673008 C51.1153389,26.1985731 50.2259215,24.6813317 49.8596908,22.667063 C49.4280618,20.7312723 49.5588585,18.3115339 50.0689655,16.4411415 C51.1807372,12.8180737 53.508918,10.411415 57.9036861,10.0844233 C59.1200951,10.1236623 60.1795482,10.2675386 61.1474435,10.6337693 C62.1284185,10.9869203 63.0570749,11.6409037 63.7895363,12.3210464 C63.8549346,12.373365 63.8810939,12.3864447 63.9203329,12.451843 C64.0772889,12.6741974 64.4565993,12.9881094 64.665874,13.2627824 C64.705113,13.3151011 64.6920333,13.4066587 64.7312723,13.4720571 C64.8097503,13.5897741 64.9274673,13.6420927 65.0059453,13.7467301 C65.0451843,13.8121284 65.0321046,13.8906064 65.0713436,13.9429251 C65.1236623,14.0214031 65.1890606,14.1391201 65.2675386,14.2829964 C65.293698,14.3353151 65.3852556,14.3745541 65.3983353,14.4137931 C65.5160523,14.6361474 65.568371,14.9108205 65.6730083,15.1593341 C65.7776457,15.4209275 65.921522,15.6432818 66.0130797,15.9048751 C66.274673,16.6765755 66.4447087,17.5921522 66.549346,18.5338882 C66.8109394,21.254459 66.274673,23.6872771 65.2675386,25.4922711 C64.7966706,26.4340071 64.1426873,27.2057075 63.3709869,27.8596908 C62.6646849,28.6052319 61.6967895,29.0499405 60.7419738,29.5208086 Z M57.4982164,12.491082 C56.9096314,12.530321 56.5564804,12.8049941 56.0725327,12.9619501 C55.7586207,13.2497027 55.3662307,13.4720571 55.1307967,13.8382878 C54.7384067,14.0606421 54.6337693,14.5576694 54.3198573,14.8454221 C54.058264,15.4994055 53.8097503,16.2318668 53.6397146,17.0820452 C53.4827586,17.9191439 53.3781213,18.8608799 53.3650416,19.7895363 C53.351962,22.117717 53.8489893,24.4328181 54.7776457,25.8061831 C55.3269917,26.4732461 55.9940547,27.0225922 56.8049941,27.4280618 C57.2758621,27.4673008 57.6420927,27.6242568 58.1521998,27.6373365 C58.4399524,27.5326992 58.9108205,27.6373365 59.0939358,27.4280618 C59.5124851,27.4542212 59.6040428,27.1795482 59.9702735,27.1533888 C60.1664685,26.9571938 60.3757432,26.8002378 60.6504162,26.6825208 C60.8989298,26.4078478 61.1343639,26.1331748 61.3959572,25.8715815 C61.5267539,25.6753864 61.6052319,25.4007134 61.8014269,25.2568371 C62.9785969,23.0071344 63.1093936,18.8870392 62.3376932,16.2711058 C62.0499405,15.3162901 61.6444709,14.5445898 61.1866825,13.9036861 C60.6896552,13.3935791 60.1010702,12.9619501 59.4340071,12.6218787 C58.8977408,12.5041617 58.3876338,12.3602854 57.6813317,12.4256837 C57.6420927,12.4256837 57.6028537,12.4387634 57.6159334,12.491082 C57.5897741,12.491082 57.5505351,12.491082 57.4982164,12.491082 Z M71.7681332,10.5945303 C72.8275862,10.6337693 74.0701546,10.5029727 75.0118906,10.6599287 C75.2211653,10.9869203 75.1426873,11.3793103 75.1426873,11.745541 C75.2211653,16.7027348 75.1426873,22.0261593 75.1426873,27.0879905 C75.1426873,27.4934602 75.1557669,27.9120095 75.1426873,28.3043995 C75.1296076,28.6444709 75.2211653,29.0107015 75.0118906,29.3246136 C74.5410226,29.4423306 73.8608799,29.3900119 73.2592152,29.3900119 C72.6183115,29.3900119 71.9904875,29.4815696 71.5719382,29.2592152 C71.4542212,23.2687277 71.4542212,16.8073722 71.5719382,10.803805 C71.5980975,10.6991677 71.6634958,10.6337693 71.7681332,10.5945303 Z M79.8775268,10.5945303 L83.0558859,10.5945303 C83.3436385,10.9869203 83.4351962,11.5755054 83.5267539,12.1510107 C84.4815696,15.7871581 85.4233056,19.4363853 86.2996433,23.1640904 C86.508918,23.1902497 86.4435196,22.941736 86.508918,22.824019 C86.6004756,22.7324614 86.548157,22.510107 86.6397146,22.4185493 C86.6789536,22.117717 86.862069,21.960761 86.8489893,21.60761 C87.0844233,21.1498216 87.1629013,20.5219976 87.3852556,20.0511296 C87.6599287,18.9524376 88.0261593,17.9322235 88.3400713,16.8727705 C88.6409037,15.7740785 89.0463734,14.7800238 89.2818074,13.6290131 C89.7265161,12.7003567 89.8311534,11.431629 90.3674197,10.5945303 L91.7146254,10.5945303 C92.1985731,11.510107 92.3816885,12.7265161 92.8002378,13.7074911 C93.0749108,14.8061831 93.4542212,15.8002378 93.7419738,16.8858502 C94.4090369,18.9916766 95.1022592,21.0713436 95.7039239,23.2425684 C95.9785969,22.8370987 95.9785969,22.156956 96.1747919,21.686088 C96.2925089,21.1498216 96.3971463,20.6004756 96.5802616,20.1296076 C97.1034483,17.9845422 97.6004756,15.8263971 98.2021403,13.7728894 C98.4244946,12.7003567 98.646849,11.6016647 99.0130797,10.6599287 C99.7978597,10.5422117 101.001189,10.5422117 101.785969,10.6599287 C101.851367,11.4577883 101.485137,12.3210464 101.249703,13.0273484 C101.118906,13.8906064 100.804994,14.5576694 100.634958,15.3947681 C100.151011,16.9250892 99.78478,18.5469679 99.2877527,20.0642093 C98.9084423,21.686088 98.3983353,23.17717 98.0059453,24.7990488 C97.744352,25.5445898 97.5612366,26.3686088 97.3258026,27.1664685 C97.0642093,27.8989298 96.9726516,28.8014269 96.5802616,29.4030916 L94.6837099,29.4030916 C94.1997622,28.5529132 94.0297265,27.4019025 93.5980975,26.4994055 C92.6563615,23.5172414 91.6099881,20.6527943 90.6944114,17.6444709 C90.3804994,17.9714625 90.3804994,18.6385256 90.1581451,19.0570749 C90.0142687,19.5671819 89.8703924,20.0772889 89.6872771,20.548157 C89.4256837,21.5814507 89.0332937,22.4577883 88.8109394,23.5172414 C88.431629,24.4458977 88.156956,25.4791914 87.8692033,26.4994055 C87.4768133,27.3888228 87.332937,28.5267539 86.8489893,29.3376932 C86.351962,29.4946492 85.5671819,29.3638526 84.9524376,29.4030916 C84.4815696,28.8668252 84.4292509,27.8989298 84.1414982,27.1664685 C83.9191439,26.4078478 83.7621879,25.5707491 83.4744352,24.8644471 C83.1082045,23.216409 82.5588585,21.764566 82.1926278,20.1296076 C81.7086801,18.6123662 81.2901308,17.0297265 80.8454221,15.4601665 C80.5969084,14.7146254 80.4137931,13.9167658 80.1652794,13.1581451 C80.0475624,12.3472057 79.4982164,11.6147444 79.6944114,10.725327 C79.7205707,10.6599287 79.7990488,10.6206897 79.8775268,10.5945303 Z M106.573127,10.5945303 C107.63258,10.6337693 108.862069,10.5029727 109.816885,10.6599287 C110.052319,11.3662307 109.947681,12.1248514 109.947681,12.8834721 L109.947681,27.0749108 C109.947681,27.8466112 110.039239,28.5921522 109.816885,29.3115339 C109.084423,29.3900119 108.011891,29.4292509 107.109394,29.3769322 C106.8478,29.3638526 106.533888,29.4423306 106.363853,29.2461356 C106.128419,28.5398335 106.233056,27.7942925 106.233056,27.0095125 L106.233056,12.9619501 C106.233056,12.1117717 106.154578,11.2877527 106.363853,10.725327 C106.416171,10.6599287 106.494649,10.6206897 106.573127,10.5945303 Z" id="Shape" fill="#0269B3"></path>
                    </g>
                </g>
            </g>
        </g>
    </g>
</svg>