<?xml version="1.0" encoding="UTF-8"?>
<svg width="112px" height="24px" viewBox="0 0 112 24" version="1.1" xmlns="http://www.w3.org/2000/svg" xmlns:xlink="http://www.w3.org/1999/xlink">
    <!-- Generator: Sketch 52.2 (67145) - http://www.bohemiancoding.com/sketch -->
    <title>Bitcoin_logo</title>
    <desc>Created with Sketch.</desc>
    <g id="Page-1" stroke="none" stroke-width="1" fill="none" fill-rule="evenodd">
        <g id="IQmining-2" transform="translate(-321.000000, -3077.000000)" fill-rule="nonzero">
            <g id="block-6" transform="translate(301.000000, 2852.000000)">
                <g id="Group-5" transform="translate(20.000000, 219.000000)">
                    <g id="Bitcoin_logo" transform="translate(0.000000, 6.000000)">
                        <path d="M23.2092127,14.7685194 C21.6600606,20.9821634 15.3666755,24.7637038 9.15230654,23.2141893 C2.94047482,21.6650372 -0.841065631,15.3712896 0.708811392,9.15800803 C2.25723858,2.94363909 8.55062369,-0.838263819 14.7631803,0.710888285 C20.9771868,2.26004039 24.7583648,8.55451288 23.2092127,14.7685194 Z" id="Path" fill="#F7931A"></path>
                        <path d="M17.0727726,10.3102669 C17.3036593,8.76691417 16.1285654,7.93724427 14.5217823,7.38376854 L15.0429991,5.29310188 L13.7704036,4.97594977 L13.2629603,7.01152259 C12.9284101,6.92815689 12.5847984,6.84950317 12.2433616,6.77157437 L12.7544295,4.72259055 L11.482559,4.40543845 L10.9609797,6.49538019 C10.6840606,6.43231223 10.4122159,6.36996919 10.1483454,6.30436401 L10.1497952,6.29783974 L8.39476608,5.85962615 L8.05622887,7.21884945 C8.05622887,7.21884945 9.00043599,7.4352378 8.98050071,7.4486488 C9.49591819,7.57732194 9.58907029,7.91839638 9.57348453,8.1887912 L8.97977579,10.5705129 C9.01529683,10.5795744 9.06132919,10.5926229 9.11207353,10.6129206 C9.06966576,10.6024093 9.02435832,10.5908106 8.97760104,10.5795744 L8.14539392,13.9160145 C8.08232595,14.072597 7.92248129,14.3074708 7.5621965,14.2183058 C7.57488259,14.2367912 6.63719974,13.987419 6.63719974,13.987419 L6.00543275,15.4441439 L7.66151042,15.8569854 C7.96960104,15.9341893 8.27152984,16.0150177 8.56874667,16.0911342 L8.04209294,18.2057232 L9.31323858,18.5228753 L9.83481786,16.4307588 C10.1820541,16.5249983 10.5191415,16.6119886 10.8489797,16.6939045 L10.3292127,18.7762346 L11.6018082,19.0933867 L12.1284619,16.9827847 C14.2985072,17.3934514 15.9303001,17.2278074 16.6171609,15.2650889 C17.1706366,13.6847653 16.589614,12.7731795 15.4478664,12.1787459 C16.2793486,11.9870048 16.9056787,11.4400533 17.0727726,10.3102669 Z M14.1651221,14.3875744 C13.7718535,15.967898 11.1110379,15.1135808 10.2483842,14.8993672 L10.9472062,12.0979174 C11.8098599,12.3132184 14.5761512,12.7394708 14.1651221,14.3875744 Z M14.5587531,10.287432 C14.1999182,11.7249465 11.9852904,10.9945906 11.2668955,10.8155355 L11.9004748,8.27469411 C12.6188696,8.45374913 14.9324489,8.78793683 14.5587531,10.287432 Z" id="Shape" fill="#FFFFFF"></path>
                        <path d="M34.3512192,7.38159379 C35.2918017,7.38159379 36.104436,7.55013748 36.7873098,7.88106304 C37.4734457,8.21525074 38.0396075,8.6654255 38.4937693,9.23158731 C38.9417693,9.8006488 39.2752321,10.4657621 39.4905331,11.2280145 C39.7043842,11.9924417 39.8116722,12.8141375 39.8116722,13.6938268 C39.8116722,15.045076 39.5641124,16.3216585 39.0642806,17.5250242 C38.5644489,18.7302022 37.8862871,19.7755355 37.0236334,20.667186 C36.1617046,21.5577491 35.1439182,22.2598333 33.9702742,22.7785129 C32.7984425,23.297555 31.5243972,23.557076 30.1564748,23.557076 C29.9795946,23.557076 29.6686043,23.5520016 29.2293033,23.5429401 C28.7900023,23.5338786 28.2850962,23.4885711 27.7196593,23.4120922 C27.1505978,23.3327135 26.548915,23.2152766 25.9135234,23.0579692 C25.2784942,22.9035614 24.6753616,22.6871731 24.1073874,22.4124287 L29.1861706,1.07226045 L33.7350379,0.367276634 L31.9165784,7.94014395 C32.3058599,7.76471353 32.6980412,7.6287912 33.0894975,7.52983974 C33.4813162,7.43233812 33.9017693,7.38159379 34.3512192,7.38159379 Z M30.5356075,19.9484287 C31.2206561,19.9484287 31.8661965,19.779885 32.4725913,19.4489595 C33.0807984,19.1176715 33.6056399,18.6703964 34.0453033,18.1132961 C34.4849667,17.5536585 34.8329279,16.9233414 35.0866496,16.2190825 C35.3403713,15.5148236 35.4686819,14.7801181 35.4686819,14.0156909 C35.4686819,13.0765582 35.311737,12.3440274 34.9989344,11.814474 C34.6861318,11.2870954 34.1072839,11.021775 33.2667402,11.021775 C32.9912709,11.021775 32.636423,11.0743317 32.1963972,11.1682087 C31.7549214,11.267885 31.3598405,11.4748494 31.0057175,11.7862022 L29.0694586,19.8284546 C29.1861706,19.8491148 29.2894716,19.8686876 29.3775493,19.8871731 C29.4638146,19.9071083 29.5591415,19.9212443 29.6541059,19.9310307 C29.7545072,19.9422669 29.8694069,19.9480663 30.0082289,19.9480663 C30.1470509,19.9480663 30.320669,19.9484287 30.5356075,19.9484287 Z" id="Shape" fill="#4D4D4D"></path>
                        <path d="M44.5290832,23.1485841 L40.1842806,23.1485841 L43.8534586,7.70889476 L48.2279829,7.70889476 L44.5290832,23.1485841 Z M46.6433098,5.82772971 C46.036915,5.82772971 45.4870638,5.64722485 44.9991933,5.28549023 C44.5073357,4.92593036 44.2637628,4.37245463 44.2637628,3.62651288 C44.2637628,3.21620867 44.3471285,2.83127663 44.5124101,2.46809217 C44.6802289,2.10563262 44.8995169,1.79355495 45.1742612,1.52823456 C45.4486431,1.26508893 45.7665201,1.05486239 46.1275298,0.896467573 C46.4907143,0.740609968 46.8770962,0.662681165 47.2888502,0.662681165 C47.8948826,0.662681165 48.441834,0.843186019 48.9315169,1.20492065 C49.4193874,1.56846757 49.6647726,2.1219433 49.6647726,2.86389799 C49.6647726,3.27565204 49.5817693,3.66203392 49.4150379,4.02449346 C49.2493939,4.38695301 49.0301059,4.69903068 48.7553616,4.96435107 C48.4831544,5.22785916 48.1623777,5.43736078 47.8020929,5.59430576 C47.438546,5.75270058 47.053614,5.82772971 46.6433098,5.82772971 Z" id="Shape" fill="#4D4D4D"></path>
                        <path d="M52.0356205,3.86211159 L56.5863001,3.15712777 L55.4688373,7.70816984 L60.3424683,7.70816984 L59.4624166,11.2885452 L54.6181447,11.2885452 L53.3277887,16.6891925 C53.208902,17.1393672 53.1414845,17.5598203 53.1226366,17.9505517 C53.1012515,18.3430954 53.1509085,18.6801828 53.2683454,18.9639886 C53.3850573,19.2485194 53.5949214,19.4678074 53.8993874,19.6229401 C54.2024036,19.78061 54.6362677,19.8599886 55.2053292,19.8599886 C55.6739894,19.8599886 56.1306884,19.8154061 56.5721641,19.726966 C57.0111027,19.6399757 57.4558405,19.5189142 57.9060153,19.3605194 L58.2300541,22.7081957 C57.6428696,22.9234967 57.0071156,23.1087135 56.3220671,23.2645711 C55.6359311,23.4226035 54.8236593,23.49872 53.8848891,23.49872 C52.5350897,23.49872 51.488669,23.2982799 50.7430897,22.8992119 C49.9985978,22.4972443 49.4723065,21.9481181 49.1573292,21.2529206 C48.8467014,20.5602605 48.7078794,19.7617621 48.7466625,18.8621375 C48.7868955,17.9603381 48.9228179,17.0125064 49.1573292,16.0142928 L52.0356205,3.86211159 Z" id="Path" fill="#4D4D4D"></path>
                        <path d="M60.1510897,16.9831472 C60.1510897,15.6532831 60.3663907,14.3991731 60.7966302,13.2251666 C61.2261447,12.0500728 61.8448632,11.0224999 62.6477111,10.1406359 C63.4476593,9.26312129 64.422313,8.56792388 65.5694975,8.05758084 C66.711245,7.55013748 67.9896399,7.29424104 69.3985201,7.29424104 C70.2803842,7.29424104 71.0680088,7.37760673 71.7610315,7.54470058 C72.4569538,7.71324427 73.086546,7.93108246 73.65597,8.20437696 L72.1575622,11.6114967 C71.7661059,11.4527394 71.3597887,11.31283 70.9396981,11.1859692 C70.519245,11.0565711 70.0060023,10.9942281 69.3988826,10.9942281 C67.9486819,10.9942281 66.8022224,11.4940598 65.9489926,12.4904611 C65.099025,13.4875873 64.6709603,14.829775 64.6709603,16.5133996 C64.6709603,17.5112507 64.8862612,18.3180857 65.318313,18.9353543 C65.74819,19.5526229 66.5423389,19.8596261 67.6953227,19.8596261 C68.2643842,19.8596261 68.8135104,19.8001828 69.3394392,19.6841957 C69.8693551,19.5667588 70.3372904,19.4188753 70.7494069,19.2441698 L71.0738082,22.73683 C70.5243195,22.9499562 69.9182871,23.1424223 69.2535363,23.310966 C68.5873357,23.4737103 67.7942742,23.5581634 66.8747143,23.5581634 C65.6608373,23.5581634 64.6332645,23.3805582 63.7927208,23.0307847 C62.9518146,22.6755744 62.2569797,22.2040145 61.7096658,21.6066812 C61.1594522,21.007898 60.7643713,20.3087135 60.5200735,19.5062281 C60.2757758,18.7044676 60.1510897,17.8621116 60.1510897,16.9831472 Z" id="Path" fill="#4D4D4D"></path>
                        <path d="M79.4520606,23.5581634 C78.4150638,23.5581634 77.5143518,23.400131 76.7502871,23.0873284 C75.9883972,22.7745258 75.3573551,22.3355873 74.8582483,21.7665258 C74.3584166,21.200364 73.9843583,20.5294514 73.7280994,19.7563252 C73.4718405,18.9835614 73.3486043,18.1277944 73.3486043,17.1901116 C73.3486043,16.0139304 73.5374457,14.8381116 73.9191156,13.665555 C74.2989732,12.4904611 74.8625978,11.4346164 75.6085395,10.4962087 C76.3486819,9.55635107 77.2617175,8.78793683 78.3367726,8.1887912 C79.4107402,7.59363262 80.6460023,7.29424104 82.0334975,7.29424104 C83.0516463,7.29424104 83.9476463,7.45263586 84.7222224,7.76543845 C85.4931739,8.07751612 86.128203,8.52007922 86.6302094,9.08624104 C87.126779,9.65530252 87.5040994,10.3233155 87.7578211,11.0975291 C88.0133551,11.868843 88.139491,12.7267847 88.139491,13.6651925 C88.139491,14.8377491 87.9531868,16.0135679 87.5834781,17.1897491 C87.2134069,18.360131 86.6642806,19.4185129 85.9393616,20.3590954 C85.2158923,21.2975032 84.3111933,22.065555 83.2245395,22.6621634 C82.1393357,23.2587718 80.8808761,23.5581634 79.4520606,23.5581634 Z M81.6235557,10.9945906 C80.9794651,10.9945906 80.4100412,11.1816197 79.9225331,11.550966 C79.4332127,11.9246617 79.0221836,12.3944093 78.6908955,12.9609336 C78.3559829,13.5299951 78.1076981,14.1505258 77.9398794,14.825063 C77.7735104,15.5010501 77.691957,16.1400663 77.691957,16.747186 C77.691957,17.7269142 77.8499894,18.4898915 78.1606172,19.0390177 C78.4755946,19.5852443 79.0413939,19.8599886 79.8638146,19.8599886 C80.51008,19.8599886 81.0766043,19.6744093 81.567012,19.301076 C82.0534328,18.9302799 82.4648243,18.4601698 82.7986496,17.8925582 C83.1313874,17.3263964 83.381847,16.7040533 83.5496658,16.0284287 C83.7138599,15.3546164 83.7975881,14.7119757 83.7975881,14.1059433 C83.7975881,13.1287524 83.6402806,12.3639627 83.3267531,11.8155614 C83.0135881,11.2693349 82.4452515,10.9945906 81.6235557,10.9945906 Z" id="Shape" fill="#4D4D4D"></path>
                        <path d="M92.8739376,23.1485841 L88.5255104,23.1485841 L92.1946884,7.70889476 L96.5713874,7.70889476 L92.8739376,23.1485841 Z M94.984902,5.82772971 C94.3788696,5.82772971 93.829381,5.64722485 93.3422353,5.28549023 C92.852915,4.92593036 92.6071674,4.37245463 92.6071674,3.62651288 C92.6071674,3.21620867 92.6916205,2.83127663 92.8572645,2.46809217 C93.0229085,2.10563262 93.2436463,1.79355495 93.5183907,1.52823456 C93.7913227,1.26508893 94.1120994,1.05486239 94.4723842,0.896467573 C94.8333939,0.740609968 95.2197758,0.662681165 95.63008,0.662681165 C96.2375622,0.662681165 96.786326,0.843186019 97.2749214,1.20492065 C97.7638794,1.56846757 98.0107143,2.1219433 98.0107143,2.86389799 C98.0107143,3.27565204 97.9229991,3.66203392 97.7588049,4.02449346 C97.5946107,4.38695301 97.3738729,4.69903068 97.1002159,4.96435107 C96.8247467,5.22785916 96.507957,5.43736078 96.1469473,5.59430576 C95.7830379,5.75270058 95.397381,5.82772971 94.984902,5.82772971 Z" id="Shape" fill="#4D4D4D"></path>
                        <path d="M99.7026755,8.4109789 C100.032514,8.31456466 100.400773,8.19857761 100.80129,8.07244168 C101.203258,7.94630576 101.652345,7.82886887 102.153989,7.72303068 C102.650197,7.61393036 103.210197,7.52549023 103.826015,7.45698537 C104.441834,7.38703068 105.143556,7.35295948 105.923206,7.35295948 C108.214675,7.35295948 109.794274,8.02024751 110.666352,9.3508365 C111.537705,10.6814255 111.688488,12.5024223 111.123051,14.8105647 L109.124449,23.1471342 L104.751012,23.1471342 L106.687996,14.9859951 C106.806158,14.476377 106.898947,13.9837944 106.967452,13.5024482 C107.036682,13.0254514 107.032695,12.6049983 106.951866,12.2410889 C106.874663,11.8815291 106.692708,11.5872119 106.410352,11.3592249 C106.123646,11.1348624 105.690507,11.0221375 105.10296,11.0221375 C104.536436,11.0221375 103.960125,11.0830307 103.371853,11.2004676 L100.524009,23.1467718 L96.1487596,23.1467718 L99.7026755,8.4109789 Z" id="Path" fill="#4D4D4D"></path>
                    </g>
                </g>
            </g>
        </g>
    </g>
</svg>