<?xml version="1.0" encoding="UTF-8"?>
<svg width="110px" height="29px" viewBox="0 0 110 29" version="1.1" xmlns="http://www.w3.org/2000/svg" xmlns:xlink="http://www.w3.org/1999/xlink">
    <!-- Generator: Sketch 52.2 (67145) - http://www.bohemiancoding.com/sketch -->
    <title>litecoin-logo</title>
    <desc>Created with Sketch.</desc>
    <g id="Page-1" stroke="none" stroke-width="1" fill="none" fill-rule="evenodd">
        <g id="IQmining-2" transform="translate(-468.000000, -3075.000000)">
            <g id="block-6" transform="translate(301.000000, 2852.000000)">
                <g id="Group-5" transform="translate(20.000000, 219.000000)">
                    <g id="litecoin-logo" transform="translate(147.000000, 4.000000)">
                        <path d="M40.1398417,6.38522427 C40.1398417,7.16886544 39.5013193,7.83641161 38.6886544,7.83641161 C37.9050132,7.83641161 37.237467,7.19788918 37.237467,6.38522427 C37.237467,5.60158311 37.8759894,4.93403694 38.6886544,4.93403694 C39.5013193,4.96306069 40.1398417,5.60158311 40.1398417,6.38522427 Z" id="Path" fill="#626264"></path>
                        <path d="M95.5171504,6.41424802 C95.5171504,7.19788918 94.878628,7.86543536 94.0659631,7.86543536 C93.2823219,7.86543536 92.6147757,7.22691293 92.6147757,6.41424802 C92.6147757,5.63060686 93.2532982,4.96306069 94.0659631,4.96306069 C94.878628,4.96306069 95.5171504,5.63060686 95.5171504,6.41424802 Z" id="Path" fill="#626264"></path>
                        <path d="M11.8126649,6.41424802 L9.57783641,14.7730871 L7.80738786,15.469657 L7.16886544,17.8496042 L8.96833773,17.2401055 L7.77836412,22.1741425 L20.6649077,22.2031662 L21.4485488,19.0395778 L13.6121372,19.0395778 L14.6279683,15.237467 L16.7467018,14.3377309 L17.3562005,12.0158311 L15.2955145,12.7124011 L16.9208443,6.50131926 L11.8126649,6.41424802 Z M14.2796834,0.0580474934 C22.1451187,0.0580474934 28.530343,6.44327177 28.530343,14.3087071 C28.530343,22.1741425 22.1451187,28.5593668 14.2796834,28.5593668 C6.41424802,28.5593668 0.0290237467,22.1741425 0.0290237467,14.3087071 C0.0580474934,6.44327177 6.41424802,0.0580474934 14.2796834,0.0580474934 Z" id="Shape" fill="#B8B9BB"></path>
                        <rect id="Rectangle" fill="#626264" x="32.4195251" y="4.15039578" width="1.91556728" height="20.4036939"></rect>
                        <polygon id="Path" fill="#626264" points="48.5567282 11.348285 48.5277045 13.0897098 45.7994723 13.1187335 45.7994723 24.5831135 43.883905 24.5831135 43.883905 13.1187335 41.5620053 13.1187335 41.5620053 11.3192612 43.883905 11.3192612 43.883905 6.38522427 45.7994723 6.38522427 45.7994723 11.3192612 48.5567282 11.3192612"></polygon>
                        <path d="M54.4485488,11.2902375 C56.3350923,10.9129288 58.3957784,11.1451187 59.9630607,12.3060686 C61.994723,13.7572559 62.8073879,16.4564644 62.4881266,18.8364116 C58.7730871,18.8364116 55.0290237,18.8364116 51.3139842,18.8364116 C51.4881266,20.0844327 52.0976253,21.2744063 53.1424802,22.0290237 C55.2031662,23.5672823 58.5118734,23.1609499 59.9630607,21.0131926 C60.0211082,20.9551451 60.1662269,20.8100264 60.2242744,20.7519789 C60.8627968,20.8390501 61.4722955,21.0131926 62.0817942,21.1292876 C61.4722955,22.5224274 60.3113456,23.6543536 58.9182058,24.2638522 C57.2058047,25.0184697 55.23219,25.0474934 53.5197889,24.408971 C51.8944591,23.7994723 50.5593668,22.4934037 49.8918206,20.8680739 C49.1081794,18.8944591 49.1662269,16.6306069 50.0659631,14.7150396 C50.878628,12.944591 52.5620053,11.6675462 54.4485488,11.2902375 Z M52.6781003,14.3377309 C51.9234828,15.0633245 51.4881266,16.0791557 51.3139842,17.0949868 C54.3905013,17.0949868 57.4960422,17.0949868 60.5725594,17.0949868 C60.4274406,15.4116095 59.2955145,13.7862797 57.6411609,13.2638522 C55.9577836,12.6833773 53.9261214,13.0897098 52.6781003,14.3377309 Z" id="Shape" fill="#626264"></path>
                        <path d="M65.8258575,13.3218997 C68.3218997,10.5646438 73.1108179,10.3614776 75.8100264,12.9155673 C75.3746702,13.3799472 74.9102902,13.8153034 74.4459103,14.2796834 C72.5593668,12.6253298 69.5118734,12.6253298 67.6253298,14.2506596 C65.3614776,16.1662269 65.5065963,20.1424802 67.8575198,21.9129288 C69.7440633,23.3931398 72.646438,23.3060686 74.4459103,21.6807388 L75.8100264,23.0158311 C73.2559367,25.3377309 68.9023747,25.4248021 66.348285,23.1319261 C63.6200528,20.6939314 63.3878628,16.0211082 65.8258575,13.3218997 Z" id="Path" fill="#626264"></path>
                        <path d="M100.306069,13.4670185 C101.031662,11.9287599 102.889182,11.116095 104.659631,11.116095 C105.472296,11.116095 106.28496,11.2612137 106.952507,11.5804749 C108.287599,12.1609499 109.042216,13.292876 109.419525,14.5989446 C109.651715,15.353562 109.738786,16.1662269 109.738786,16.9498681 L109.709763,24.6121372 L107.823219,24.6121372 L107.823219,17.0659631 C107.823219,15.9340369 107.591029,14.7150396 106.807388,13.8733509 C106.023747,13.0897098 104.804749,12.8865435 103.759894,13.1187335 C102.540897,13.292876 101.379947,14.0184697 100.799472,15.1503958 C100.451187,15.8469657 100.306069,16.6015831 100.306069,17.3852243 C100.306069,19.7941953 100.306069,22.2031662 100.306069,24.6121372 L98.3905013,24.6121372 L98.3905013,11.4063325 L100.306069,11.4353562 L100.306069,13.4670185 Z" id="Path" fill="#626264"></path>
                        <path d="M82.1081794,11.2612137 C83.994723,10.9129288 86.0263852,11.2031662 87.6226913,12.2770449 C89.1319261,13.2348285 90.1477573,14.8601583 90.4379947,16.6015831 C90.7282322,18.4300792 90.4379947,20.3746702 89.3931398,21.9129288 C88.1741425,23.7414248 85.9683377,24.8443272 83.762533,24.8153034 C81.9050132,24.9023747 80.0184697,24.2058047 78.7124011,22.8707124 C76.5065963,20.7519789 76.1583113,17.1530343 77.5804749,14.5118734 C78.4802111,12.7994723 80.2216359,11.6094987 82.1081794,11.2612137 Z M82.2823219,13.176781 C80.7440633,13.525066 79.4379947,14.6569921 78.9155673,16.1372032 C78.1609499,18.1978892 78.7994723,20.7519789 80.6279683,22 C82.7757256,23.5672823 86.1424802,23.1609499 87.7097625,20.9841689 C88.8416887,19.4168865 88.9868074,17.182058 88.0580475,15.4986807 C86.9841689,13.4670185 84.4300792,12.5963061 82.2823219,13.176781 Z" id="Shape" fill="#626264"></path>
                        <polygon id="Path" fill="#626264" points="37.7308707 24.5831135 37.7308707 11.4063325 39.5593668 11.348285 39.5883905 24.5831135"></polygon>
                        <polygon id="Path" fill="#626264" points="94.994723 24.5831135 93.1372032 24.5831135 93.1662269 11.348285 94.994723 11.348285 94.994723 24.5831135"></polygon>
                    </g>
                </g>
            </g>
        </g>
    </g>
</svg>