<?xml version="1.0" encoding="UTF-8"?>
<svg width="137px" height="27px" viewBox="0 0 137 27" version="1.1" xmlns="http://www.w3.org/2000/svg" xmlns:xlink="http://www.w3.org/1999/xlink">
    <!-- Generator: Sketch 52.2 (67145) - http://www.bohemiancoding.com/sketch -->
    <title>ethereum</title>
    <desc>Created with Sketch.</desc>
    <g id="Page-1" stroke="none" stroke-width="1" fill="none" fill-rule="evenodd">
        <g id="IQmining-2" transform="translate(-613.000000, -3076.000000)" fill-rule="nonzero">
            <g id="block-6" transform="translate(301.000000, 2852.000000)">
                <g id="Group-5" transform="translate(20.000000, 219.000000)">
                    <g id="ethereum" transform="translate(292.000000, 5.000000)">
                        <path d="M36.9231164,17.6837519 C36.9231164,17.9261917 36.7201435,18.1235264 36.4777037,18.1235264 L27.8964634,18.1235264 C28.1107125,20.2434649 29.7063045,22.177345 31.9502819,22.177345 C33.4838544,22.177345 34.6227576,21.590979 35.479754,20.3675038 C35.6037929,20.1983598 35.7898514,20.0912353 36.026653,20.1927217 C36.1563301,20.249103 36.2465402,20.3675038 36.2690928,20.5028191 C36.2916453,20.6437724 36.2521784,20.7227063 36.2127114,20.8016402 C35.3500769,22.307022 33.6304459,23.0456176 31.9446438,23.0456176 C29.057919,23.0456176 27,20.4633521 27,17.7006663 C27,14.9379805 29.057919,12.355715 31.9446438,12.355715 C34.8313685,12.3500769 36.9174782,14.9267043 36.9231164,17.6837519 Z M36.0041005,17.26653 C35.818042,15.1465915 34.1942594,13.2127114 31.9502819,13.2127114 C29.7063045,13.2127114 28.1107125,15.1465915 27.8964634,17.26653 L36.0041005,17.26653 Z M47.3367504,12.564326 C47.5848283,12.564326 47.7652486,12.7785751 47.7652486,12.9928242 C47.7652486,13.2409021 47.5791902,13.4213224 47.3367504,13.4213224 L45.0363916,13.4213224 L45.0363916,22.4479754 C45.0363916,22.6622245 44.8503332,22.8764736 44.6078934,22.8764736 C44.3598155,22.8764736 44.1793952,22.6622245 44.1793952,22.4479754 L44.1793952,13.4213224 L41.9692465,13.4213224 C41.7211686,13.4213224 41.5407483,13.235264 41.5407483,12.9928242 C41.5407483,12.7785751 41.7268068,12.564326 41.9692465,12.564326 L44.1793952,12.564326 L44.1793952,9.26037929 C44.1793952,9.05176832 44.3203485,8.86007176 44.5233214,8.82624295 C44.8108662,8.78113788 45.0363916,8.97847258 45.0363916,9.24910302 L45.0363916,12.564326 L47.3367504,12.564326 Z M61.3700666,16.9282419 L61.3700666,22.3972322 C61.3700666,22.6453101 61.1558175,22.8257304 60.9415684,22.8257304 C60.6934905,22.8257304 60.5130702,22.639672 60.5130702,22.3972322 L60.5130702,16.9282419 C60.5130702,15.084572 59.4700154,13.2409021 57.4120964,13.2409021 C54.7734495,13.2409021 53.6345464,15.546899 53.786776,17.9092773 C53.786776,17.9712968 53.8149667,18.2475654 53.8149667,18.275756 L53.8149667,22.3803178 C53.8149667,22.5889288 53.6740133,22.7806253 53.4710405,22.8144541 C53.1834956,22.8595592 52.9579703,22.6622245 52.9579703,22.3915941 L52.9579703,4.42849821 C52.9579703,4.2142491 53.1440287,4 53.3864685,4 C53.6345464,4 53.8149667,4.2142491 53.8149667,4.42849821 L53.8149667,14.5940543 C54.5535623,13.2747309 55.8728857,12.3839057 57.4064582,12.3839057 C59.9267043,12.3839057 61.3700666,14.5940543 61.3700666,16.9282419 Z M76.7565351,17.6837519 C76.7565351,17.9261917 76.5535623,18.1235264 76.3111225,18.1235264 L67.724244,18.1235264 C67.9384931,20.2434649 69.5340851,22.177345 71.7780625,22.177345 C73.3116351,22.177345 74.4505382,21.590979 75.3075346,20.3675038 C75.4315736,20.1983598 75.617632,20.0912353 75.8544336,20.1927217 C75.9841107,20.249103 76.0743209,20.3675038 76.0968734,20.5028191 C76.1194259,20.6437724 76.079959,20.7227063 76.0404921,20.8016402 C75.1778575,22.307022 73.4582266,23.0456176 71.7724244,23.0456176 C68.8856996,23.0456176 66.8277806,20.4633521 66.8277806,17.7006663 C66.8277806,14.9379805 68.8856996,12.355715 71.7724244,12.355715 C74.6647873,12.3500769 76.750897,14.9267043 76.7565351,17.6837519 Z M75.8318811,17.26653 C75.6458227,15.1465915 74.02204,13.2127114 71.7780625,13.2127114 C69.5340851,13.2127114 67.9384931,15.1465915 67.724244,17.26653 L75.8318811,17.26653 Z M87.28857,12.9646335 C87.28857,13.2409021 87.1363403,13.3931317 86.8882624,13.4269605 C84.3680164,13.7934393 83.2347514,15.8513583 83.2347514,18.2475654 L83.2347514,22.3521271 C83.2347514,22.5607381 83.0937981,22.7524346 82.8908252,22.7862635 C82.6032804,22.8313685 82.377755,22.6340338 82.377755,22.3634034 L82.377755,13.0097386 C82.377755,12.8011276 82.5187084,12.6094311 82.7216812,12.5756023 C83.009226,12.5304972 83.2347514,12.7278319 83.2347514,12.9984623 L83.2347514,14.9041517 C83.9395182,13.7088672 85.3546899,12.5699641 86.826243,12.5699641 C87.0404921,12.564326 87.28857,12.7221937 87.28857,12.9646335 Z M101.383906,17.6837519 C101.383906,17.9261917 101.180933,18.1235264 100.938493,18.1235264 L92.3572527,18.1235264 C92.5715018,20.2434649 94.1670938,22.177345 96.4110712,22.177345 C97.9446438,22.177345 99.0835469,21.590979 99.9405433,20.3675038 C100.064582,20.1983598 100.250641,20.0912353 100.487442,20.1927217 C100.617119,20.249103 100.70733,20.3675038 100.729882,20.5028191 C100.752435,20.6437724 100.712968,20.7227063 100.673501,20.8016402 C99.8108662,22.307022 98.0912353,23.0456176 96.4054331,23.0456176 C93.5187084,23.0456176 91.4607893,20.4633521 91.4607893,17.7006663 C91.4607893,14.9379805 93.5187084,12.355715 96.4054331,12.355715 C99.2921579,12.3500769 101.378268,14.9267043 101.383906,17.6837519 Z M100.46489,17.26653 C100.278831,15.1465915 98.6550487,13.2127114 96.4110712,13.2127114 C94.1670938,13.2127114 92.5715018,15.1465915 92.3572527,17.26653 L100.46489,17.26653 Z M115.236802,13.0717581 L115.236802,22.4479754 C115.236802,22.6960533 115.022553,22.8764736 114.808303,22.8764736 C114.560226,22.8764736 114.379805,22.6904152 114.379805,22.4479754 L114.379805,20.666325 C113.675038,22.0814967 112.412096,23.0907227 110.816504,23.0907227 C108.268068,23.0907227 106.852896,20.8805741 106.852896,18.5463865 L106.852896,13.0492055 C106.852896,12.8349564 107.038954,12.6207073 107.281394,12.6207073 C107.529472,12.6207073 107.709892,12.8349564 107.709892,13.0492055 L107.709892,18.5463865 C107.709892,20.3900564 108.752947,22.2337263 110.810866,22.2337263 C113.697591,22.2337263 114.374167,19.53306 114.374167,16.5504869 L114.374167,13.0492055 C114.374167,12.8011276 114.622245,12.5474116 114.926704,12.6376217 C115.112763,12.6996412 115.236802,12.8800615 115.236802,13.0717581 Z M136.943619,16.8944131 L136.943619,22.3915941 C136.943619,22.639672 136.72937,22.8200923 136.51512,22.8200923 C136.267043,22.8200923 136.086622,22.6340338 136.086622,22.3915941 L136.086622,16.8944131 C136.086622,15.0507432 135.043567,13.2409021 132.985648,13.2409021 C130.403383,13.2409021 129.422348,16.0035879 129.422348,18.1517171 L129.422348,22.3915941 C129.422348,22.639672 129.208098,22.8200923 128.993849,22.8200923 C128.745771,22.8200923 128.565351,22.6340338 128.565351,22.3915941 L128.565351,16.8944131 C128.565351,15.0507432 127.522296,13.2409021 125.464377,13.2409021 C122.853921,13.2409021 121.777037,15.2988211 121.872886,18.0333162 C121.872886,18.0953357 121.901076,18.2193747 121.872886,18.2475654 L121.872886,22.3803178 C121.872886,22.5889288 121.731932,22.7806253 121.523321,22.8144541 C121.235777,22.8595592 121.010251,22.6622245 121.010251,22.3915941 L121.010251,13.0097386 C121.010251,12.8011276 121.151205,12.6094311 121.354177,12.5756023 C121.641722,12.5304972 121.867248,12.7278319 121.867248,12.9984623 L121.867248,14.5658637 C122.605843,13.2465402 123.925167,12.3839057 125.458739,12.3839057 C127.206561,12.3839057 128.559713,13.48898 129.11225,15.1184008 C129.817017,13.5228088 131.19836,12.3839057 132.98001,12.3839057 C135.500256,12.3839057 136.943619,14.5602255 136.943619,16.8944131 Z" id="Shape" fill="#3C3C3B"></path>
                        <g id="Group-2" fill="#010101">
                            <g id="Group" opacity="0.6" transform="translate(0.000000, 9.911120)">
                                <polygon id="Path" points="8.25926693 0.0129557128 0.0194335693 3.76039565 8.25926693 8.62850475 16.4958614 3.76039565"></polygon>
                            </g>
                            <g id="Group" opacity="0.45" transform="translate(0.000000, 0.000000)">
                                <polygon id="Path" points="0.0194335693 13.671516 8.25926693 18.5396251 8.25926693 0"></polygon>
                            </g>
                            <g id="Group" opacity="0.8" transform="translate(8.259267, 0.000000)">
                                <polygon id="Path" points="0 0 0 18.5396251 8.23659444 13.671516"></polygon>
                            </g>
                            <g id="Group" opacity="0.45" transform="translate(0.000000, 15.222963)">
                                <polygon id="Path" points="0.0194335693 0.00971678463 8.25926693 11.6180355 8.25926693 4.87782588"></polygon>
                            </g>
                            <g id="Group" opacity="0.8" transform="translate(8.259267, 15.222963)">
                                <polygon id="Path" points="0 4.87782588 0 11.6180355 8.24307229 0.00971678463"></polygon>
                            </g>
                        </g>
                    </g>
                </g>
            </g>
        </g>
    </g>
</svg>