<?xml version="1.0" encoding="UTF-8"?>
<svg width="120px" height="19px" viewBox="0 0 120 19" version="1.1" xmlns="http://www.w3.org/2000/svg" xmlns:xlink="http://www.w3.org/1999/xlink">
    <!-- Generator: Sketch 52.2 (67145) - http://www.bohemiancoding.com/sketch -->
    <title>dash-2</title>
    <desc>Created with Sketch.</desc>
    <g id="Page-1" stroke="none" stroke-width="1" fill="none" fill-rule="evenodd">
        <g id="IQmining-2" transform="translate(-800.000000, -3080.000000)" fill="#1E75BB" fill-rule="nonzero">
            <g id="block-6" transform="translate(301.000000, 2852.000000)">
                <g id="Group-5" transform="translate(20.000000, 219.000000)">
                    <g id="dash-2" transform="translate(479.000000, 9.000000)">
                        <polygon id="H" points="113.331429 0.171428571 110.982857 7.32 98.4342857 7.32 100.782857 0.171428571 94.0971429 0.171428571 88.0114286 18.7028571 94.68 18.7028571 97.0285714 11.5542857 109.577143 11.5542857 107.228571 18.7028571 113.914286 18.7028571 120 0.171428571"></polygon>
                        <path d="M86.8285714,8.72571429 C86.5371429,8.28 86.1257143,7.92 85.6628571,7.68 C85.1485714,7.44 84.5828571,7.32 84.0171429,7.32 L69.36,7.32 L70.1828571,4.74857143 L89.4171429,4.74857143 L90.9428571,0.171428571 L69.6171429,0.171428571 C68.9657143,0.171428571 68.3314286,0.291428571 67.7314286,0.531428571 C67.0457143,0.771428571 66.4285714,1.13142857 65.88,1.59428571 C65.4,2.05714286 64.8171429,2.53714286 64.4571429,3.12 C64.0285714,3.68571429 63.6685714,4.32 63.4114286,4.98857143 L62.8285714,6.73714286 C62.6742857,7.35428571 62.6057143,7.98857143 62.5885714,8.62285714 C62.6914286,9.20571429 62.8285714,9.78857143 63.0685714,10.1485714 C63.36,10.5942857 63.7714286,10.9542857 64.2342857,11.2114286 C64.7314286,11.4857143 65.2971429,11.64 65.88,11.6742857 L80.5371429,11.6742857 L79.7142857,14.1428571 L60.4628571,14.1428571 L58.9542857,18.72 L80.28,18.72 C80.9314286,18.72 81.5657143,18.6 82.1657143,18.36 C82.8514286,18.12 83.4685714,17.76 84.0171429,17.3142857 C84.4971429,16.8514286 85.08,16.3714286 85.44,15.7885714 C85.8857143,15.2228571 86.2285714,14.5885714 86.4857143,13.92 L87.0685714,12.1714286 C87.2571429,11.5542857 87.3428571,10.92 87.3085714,10.2857143 C87.1885714,9.66857143 87.0685714,9.10285714 86.8285714,8.72571429 Z" id="S"></path>
                        <path d="M60.5828571,3 C60.48,2.41714286 60.3428571,1.95428571 60.0171429,1.57714286 C59.7771429,1.13142857 59.4,0.754285714 58.9542857,0.531428571 C58.44,0.291428571 57.8742857,0.154285714 57.3085714,0.171428571 L40.56,0.171428571 C39.9085714,0.171428571 39.2742857,0.291428571 38.6742857,0.531428571 C37.9885714,0.771428571 37.3542857,1.13142857 36.8057143,1.59428571 C36.3257143,2.05714286 35.76,2.53714286 35.3828571,3.12 C34.9371429,3.68571429 34.5942857,4.32 34.3371429,4.98857143 L29.88,18.7028571 L36.5657143,18.7028571 L41.1428571,4.76571429 L53.7942857,4.76571429 L52.4057143,8.86285714 L43.4914286,8.86285714 L42.0857143,13.2 L50.9828571,13.2 L49.2171429,18.72 L55.8,18.72 L60.36,4.86857143 C60.5485714,4.25142857 60.6171429,3.63428571 60.5828571,3 Z" id="A"></path>
                        <path d="M31.4057143,3.12 C31.3714286,2.58857143 31.2171429,2.05714286 30.9428571,1.59428571 C30.7028571,1.11428571 30.2742857,0.737142857 29.7771429,0.548571429 C29.2628571,0.291428571 28.6971429,0.171428571 28.1314286,0.188571429 L6.80571429,0.188571429 L5.28,4.76571429 L24.6,4.76571429 L21.5485714,14.1257143 L2.22857143,14.1257143 L0.702857143,18.7028571 L22.1314286,18.7028571 C22.7698013,18.6860304 23.4010698,18.5644098 24,18.3428571 C24.6,18 25.2857143,17.6571429 25.8685714,17.1771429 C26.4342857,16.7314286 26.9485714,16.2171429 27.3942857,15.6514286 C27.7714286,15.0857143 28.08,14.5028571 28.3371429,13.8857143 L31.1657143,4.98857143 C31.4228571,4.40571429 31.5085714,3.75428571 31.4057143,3.12 Z" id="D"></path>
                        <polygon id="_-" points="12.8914286 7.32 1.52571429 7.32 0 11.5542857 11.4857143 11.5542857"></polygon>
                    </g>
                </g>
            </g>
        </g>
    </g>
</svg>