<?xml version="1.0" encoding="UTF-8"?>
<svg width="100px" height="37px" viewBox="0 0 100 37" version="1.1" xmlns="http://www.w3.org/2000/svg" xmlns:xlink="http://www.w3.org/1999/xlink">
    <!-- Generator: Sketch 52.2 (67145) - http://www.bohemiancoding.com/sketch -->
    <title>zcash</title>
    <desc>Created with Sketch.</desc>
    <g id="Page-1" stroke="none" stroke-width="1" fill="none" fill-rule="evenodd">
        <g id="IQmining-2" transform="translate(-975.000000, -3071.000000)" fill-rule="nonzero">
            <g id="block-6" transform="translate(301.000000, 2852.000000)">
                <g id="Group-5" transform="translate(20.000000, 219.000000)">
                    <g id="zcash" transform="translate(654.000000, 0.000000)">
                        <g id="Group" fill="#FCB316">
                            <g id="tgmAOB_1_">
                                <g id="_x34_o0Zdu.tif">
                                    <g id="B0wFFZ.tif">
                                        <path d="M18.428,36.868 C15.94,36.868 13.528,36.38 11.256,35.42 C9.06,34.492 7.092,33.164 5.4,31.472 C3.708,29.78 2.38,27.808 1.452,25.616 C0.488,23.34 0,20.928 0,18.44 C0,15.952 0.488,13.54 1.448,11.268 C2.376,9.072 3.704,7.104 5.396,5.412 C7.088,3.72 9.06,2.392 11.252,1.464 C13.524,0.504 15.94,0.016 18.424,0.016 C20.908,0.016 23.328,0.5 25.6,1.46 C27.796,2.388 29.764,3.716 31.456,5.408 C33.148,7.1 34.476,9.072 35.404,11.264 C36.364,13.536 36.852,15.952 36.852,18.436 C36.852,20.924 36.364,23.336 35.404,25.608 C34.476,27.804 33.148,29.772 31.456,31.464 C29.764,33.156 27.792,34.484 25.6,35.412 C23.328,36.38 20.916,36.868 18.428,36.868 Z M18.428,4.108 C14.6,4.108 11,5.6 8.292,8.304 C5.584,11.012 4.096,14.612 4.096,18.44 C4.096,22.268 5.588,25.868 8.292,28.576 C11,31.28 14.6,32.772 18.428,32.772 C22.256,32.772 25.856,31.28 28.564,28.576 C31.268,25.868 32.76,22.268 32.76,18.44 C32.76,14.612 31.268,11.012 28.564,8.304 C25.856,5.6 22.256,4.108 18.428,4.108 Z" id="Shape"></path>
                                    </g>
                                </g>
                            </g>
                            <path d="M17.32,23.028 C20.064,23.028 22.644,23.028 25.304,23.028 C25.304,24.38 25.304,25.688 25.304,27.04 C23.708,27.04 22.108,27.04 20.388,27.04 C20.468,28.188 20.512,29.252 20.592,30.396 C19.2,30.396 17.888,30.396 16.456,30.396 C16.456,29.332 16.456,28.224 16.456,27.08 C14.776,27.08 13.22,27.08 11.54,27.08 C11.54,25.768 11.376,24.46 11.62,23.232 C11.744,22.576 12.48,22.004 12.932,21.432 C14.488,19.588 16.044,17.788 17.64,15.944 C18.256,15.248 18.868,14.592 19.564,13.816 C16.944,13.816 14.444,13.816 11.908,13.816 C11.908,12.464 11.908,11.156 11.908,9.804 C13.384,9.804 14.896,9.804 16.452,9.804 C16.452,8.656 16.452,7.592 16.452,6.448 C17.804,6.448 19.072,6.448 20.424,6.448 C20.424,7.512 20.424,8.576 20.424,9.724 C22.064,9.724 23.66,9.724 25.38,9.724 C25.38,11.076 25.544,12.384 25.3,13.616 C25.176,14.272 24.44,14.844 23.948,15.416 C22.392,17.26 20.836,19.06 19.24,20.904 C18.632,21.636 18.02,22.288 17.32,23.028 Z" id="Path"></path>
                        </g>
                        <g id="Group" transform="translate(40.000000, 9.280000)" fill="#000000">
                            <path d="M13.112,11.74 L13.152,11.82 C13.192,13.54 12.62,14.972 11.472,16.036 C10.324,17.14 8.728,17.676 6.764,17.676 C4.756,17.676 3.12,17.02 1.892,15.668 C0.624,14.316 0.008,12.596 0.008,10.508 L0.008,7.232 C0.008,5.144 0.624,3.424 1.852,2.072 C3.08,0.72 4.676,0.024 6.684,0.024 C8.692,0.024 10.288,0.556 11.476,1.62 C12.664,2.684 13.196,4.116 13.196,5.92 L13.156,6 L10.372,6 C10.372,4.852 10.044,3.952 9.432,3.296 C8.816,2.64 7.876,2.312 6.688,2.312 C5.5,2.312 4.6,2.764 3.904,3.704 C3.208,4.644 2.88,5.792 2.88,7.184 L2.88,10.46 C2.88,11.852 3.248,13.04 3.944,13.98 C4.64,14.92 5.584,15.372 6.768,15.372 C7.956,15.372 8.856,15.044 9.472,14.432 C10.088,13.816 10.372,12.916 10.372,11.728 C10.368,11.74 13.112,11.74 13.112,11.74 Z" id="Path"></path>
                            <path d="M25.232,13.42 L18.516,13.42 L17.164,17.432 L14.256,17.432 L20.564,0.316 L23.268,0.316 L29.492,17.432 L26.584,17.432 L25.232,13.42 Z M19.336,11.004 L24.412,11.004 L21.916,3.672 L21.836,3.672 L19.336,11.004 Z" id="Shape"></path>
                            <path d="M40.752,13.008 C40.752,12.312 40.508,11.696 39.972,11.248 C39.44,10.796 38.496,10.388 37.148,10.02 C35.224,9.528 33.748,8.872 32.724,8.012 C31.7,7.192 31.168,6.088 31.168,4.776 C31.168,3.384 31.74,2.28 32.888,1.376 C34.036,0.476 35.508,0.024 37.312,0.024 C39.196,0.024 40.712,0.516 41.856,1.54 C43.004,2.564 43.536,3.792 43.496,5.184 L43.456,5.264 L40.712,5.264 C40.712,4.404 40.424,3.668 39.812,3.136 C39.196,2.604 38.38,2.316 37.272,2.316 C36.248,2.316 35.428,2.56 34.856,3.012 C34.284,3.464 33.996,4.036 33.996,4.772 C33.996,5.428 34.284,5.96 34.896,6.412 C35.512,6.864 36.492,7.232 37.928,7.64 C39.772,8.132 41.164,8.828 42.144,9.688 C43.124,10.548 43.576,11.652 43.576,13.004 C43.576,14.436 43.004,15.584 41.856,16.404 C40.708,17.264 39.196,17.672 37.352,17.672 C35.552,17.672 33.996,17.18 32.644,16.24 C31.292,15.3 30.636,13.988 30.68,12.348 L30.72,12.268 L33.464,12.268 C33.464,13.292 33.832,14.068 34.528,14.604 C35.264,15.136 36.208,15.384 37.352,15.384 C38.416,15.384 39.236,15.18 39.808,14.728 C40.468,14.28 40.752,13.704 40.752,13.008 Z" id="Path"></path>
                            <polygon id="Path" points="60 17.392 57.132 17.392 57.132 10.1 49.476 10.1 49.476 17.388 46.608 17.388 46.608 0.272 49.476 0.272 49.476 7.808 57.132 7.808 57.132 0.272 60 0.272"></polygon>
                        </g>
                    </g>
                </g>
            </g>
        </g>
    </g>
</svg>