<?xml version="1.0" encoding="UTF-8"?>
<svg width="108px" height="38px" viewBox="0 0 108 38" version="1.1" xmlns="http://www.w3.org/2000/svg" xmlns:xlink="http://www.w3.org/1999/xlink">
    <!-- Generator: Sketch 52.2 (67145) - http://www.bohemiancoding.com/sketch -->
    <title>yandex-pay-logo</title>
    <desc>Created with Sketch.</desc>
    <g id="Page-1" stroke="none" stroke-width="1" fill="none" fill-rule="evenodd">
        <g id="IQmining-2" transform="translate(-323.000000, -3140.000000)" fill-rule="nonzero">
            <g id="block-6" transform="translate(301.000000, 2852.000000)">
                <g id="Group-5" transform="translate(20.000000, 219.000000)">
                    <g id="yandex-pay-logo" transform="translate(2.000000, 69.000000)">
                        <path d="M107.9342,20.6468 C107.7912,19.8218 107.096,19.3268 106.0906,19.3158 C105.7804,19.3114 105.4724,19.3422 105.171,19.3092 C104.577,19.2476 104.4208,19.4456 104.4252,19.9164 C104.4538,22.2264 104.445,24.5342 104.4362,26.8376 C104.4296,28.0454 103.2504,29.2862 101.8336,29.6008 C97.4336,30.5666 93.038,31.5478 88.6336,32.5048 C88.1386,32.6126 87.6172,32.6676 87.1134,32.6632 C86.8934,32.6632 86.5898,32.496 86.4952,32.3332 C86.4336,32.2254 86.6272,31.9636 86.779,31.8294 C86.9792,31.6666 87.2344,31.5368 87.4962,31.4466 C88.3036,31.1584 89.1242,30.8966 89.9404,30.626 C93.2074,29.5392 96.481,28.4656 99.7436,27.3722 C101.2154,26.875 102.0096,25.8938 102.0338,24.6552 C102.1086,20.6424 102.0712,16.6296 102.0536,12.6124 C102.0536,11.9766 101.7236,11.4464 100.9668,11.1714 C100.0956,10.859 99.33,11.1076 98.5732,11.4684 C93.9488,13.675 89.3266,15.8772 84.6978,18.0794 C83.336,18.7284 82.577,19.6678 82.5836,21.0054 C82.599,24.8004 82.588,28.5888 82.5924,32.3794 C82.5924,32.5686 82.6122,32.7622 82.6716,32.9426 C83.127,34.2318 84.3084,34.971 85.9408,34.971 C89.1946,34.9798 92.4594,34.9754 95.7154,34.9754 C98.9604,34.9754 102.1944,34.9798 105.4394,34.971 C106.1434,34.971 106.7924,34.8258 107.3204,34.3902 C108.0046,33.8402 107.9694,33.1406 107.9694,32.4432 C107.976,28.7472 107.976,25.0556 107.9716,21.353 C107.9782,21.122 107.9738,20.88 107.9342,20.6468 Z M94.4042,19.461 C94.732,18.6096 95.447,18.0772 96.5382,17.9408 C97.2598,17.8484 97.889,18.295 97.9924,18.9462 C98.1486,19.9494 96.8946,21.1154 95.656,21.111 C94.622,21.111 94.0456,20.3872 94.4042,19.461 Z" id="Shape" fill="#F79E1B"></path>
                        <path d="M16.7464,4.7914 C16.7464,5.9618 16.7464,7.108 16.7464,8.2652 C15.8598,8.2652 15.0348,8.2652 14.146,8.2652 C14.146,7.0838 14.146,5.9376 14.146,4.7804 C13.6642,4.7804 13.2462,4.7804 12.7864,4.7804 C12.7864,7.6778 12.7864,10.5246 12.7864,13.378 C13.2616,13.378 13.6906,13.378 14.1878,13.378 C14.1878,12.0756 14.1878,10.8084 14.1878,9.528 C15.0678,9.528 15.8818,9.528 16.7552,9.528 C16.7552,10.826 16.7552,12.0954 16.7552,13.3824 C17.2502,13.3824 17.6792,13.3824 18.139,13.3824 C18.139,10.5048 18.139,7.6536 18.139,4.7914 C17.6682,4.7914 17.2392,4.7914 16.7464,4.7914 Z" id="Path" fill="#000000"></path>
                        <path d="M51.3326,28.4568 C50.9234,26.413 49.3702,25.1722 46.8908,24.9676 C45.914,24.8928 44.9196,24.9544 43.8658,24.9544 C43.8658,23.1526 43.8658,21.331 43.8658,19.5138 C43.1178,19.5138 42.4402,19.5138 41.745,19.5138 C41.745,24.521 41.745,29.493 41.745,34.641 C43.3136,34.641 44.8294,34.7312 46.3254,34.6168 C48.5672,34.4496 50.2766,33.5586 51.0774,31.7304 C51.5438,30.67 51.5526,29.5656 51.3326,28.4568 Z M48.0524,30.7492 C47.6586,32.4212 45.947,33.2088 43.8834,32.7204 C43.8834,30.8636 43.8746,29.0376 43.901,27.2072 C43.901,27.0862 44.1122,26.8882 44.264,26.8596 C46.3276,26.4218 47.707,27.1082 48.0656,28.8308 C48.1932,29.449 48.1976,30.1288 48.0524,30.7492 Z" id="Shape" fill="#000000"></path>
                        <path d="M9.471,0.156 C8.7208,0.156 7.975,0.1582 7.227,0.156 C6.171,0.1516 5.2954,0.4816 4.576,1.1174 C2.1054,3.3042 2.7544,7.4578 6.0412,8.3444 C4.9368,10.0032 3.839,11.6576 2.6884,13.3912 C3.157,13.3912 3.5178,13.367 3.8698,13.3978 C4.3362,13.4396 4.576,13.2878 4.7916,12.9424 C5.6144,11.607 6.4878,10.2914 7.3414,8.967 C7.7352,8.3598 7.7836,8.3422 8.712,8.5204 C8.712,10.122 8.712,11.7368 8.712,13.3494 C9.273,13.3494 9.7592,13.3494 10.2872,13.3494 C10.2872,13.0722 10.2872,12.839 10.2872,12.6014 C10.2872,8.6722 10.2872,4.7408 10.2872,0.8094 C10.2872,0.155956571 10.285,0.1582 9.471,0.156 Z M8.668,7.1344 C7.5966,7.1234 6.479,7.3896 5.6628,6.5866 C4.7278,5.6692 4.4616,4.6088 4.807,3.445 C4.8356,3.3526 4.8818,3.2646 4.9192,3.1766 C5.6144,1.5772 6.5318,1.1328 8.668,1.399 C8.668,3.3108 8.668,5.1962 8.668,7.1344 Z" id="Shape" fill="#EB001B"></path>
                        <path d="M48.4066,12.1438 C46.0724,12.9226 44.462,12.2186 44.0396,10.1858 C43.8174,9.132 43.8966,8.0716 44.2816,7.0442 C44.8008,5.6406 45.8326,5.2226 47.5486,5.6868 C47.5816,5.6956 47.6212,5.6802 47.6806,5.6714 C47.8522,5.458 48.0282,5.2336 48.2196,4.9938 C46.8028,4.0632 44.8602,4.2854 43.8042,5.4602 C42.988,6.3666 42.669,7.416 42.5656,8.5182 C42.449,9.7832 42.6052,11.0108 43.4412,12.1218 C44.3168,13.2834 45.8348,13.829 47.3968,13.4638 C48.499,13.2042 48.6222,13.0898 48.4066,12.1438 Z" id="Path" fill="#000000"></path>
                        <path d="M11.451,32.8546 C11.451,28.3886 11.451,23.9732 11.451,19.5182 C8.7164,19.5182 6.0676,19.5182 3.4848,19.5182 C3.3748,21.782 3.322,24.0084 3.1416,26.2304 C2.981,28.2016 2.5454,30.1354 1.6742,31.9966 C1.386,32.6104 1.0406,33.0152 0.1606,32.8678 C0.1144,32.8612 0.0572,32.8964 0,32.9184 C0,34.5552 0,36.1832 0,37.8112 C0.803,37.8112 1.5598,37.8112 2.3782,37.8112 C2.3782,36.7046 2.3782,35.642 2.3782,34.5816 C5.2668,34.5816 8.0982,34.5816 10.9912,34.5816 C10.9912,35.6772 10.9912,36.7376 10.9912,37.82 C11.7964,37.82 12.5356,37.82 13.3012,37.82 C13.3012,36.1656 13.3012,34.5332 13.3012,32.8546 C12.6654,32.8546 12.078,32.8546 11.451,32.8546 Z M8.8704,32.837 C7.084,32.837 5.3174,32.837 3.6564,32.837 C4.1008,31.7238 4.6442,30.6282 4.9742,29.4908 C5.6364,27.205 5.632,24.8598 5.6496,22.5212 C5.654,22.1604 5.6496,21.7952 5.6496,21.3992 C6.7298,21.3992 7.777,21.3992 8.8726,21.3992 C8.8704,25.1832 8.8704,28.9782 8.8704,32.837 Z" id="Shape" fill="#000000"></path>
                        <path d="M33.8382,12.2604 C33.4356,12.377 33.0484,12.5178 32.6436,12.5992 C31.515,12.828 30.7098,12.5772 30.2808,11.8666 C29.777,11.035 29.8012,10.1418 29.832,9.2068 C31.2796,9.2068 32.67,9.2068 34.089,9.2068 C34.1814,7.8076 34.0098,6.4964 33.1232,5.304 C32.3444,4.2568 30.9958,4.0896 29.9244,4.9498 C29.5218,5.271 29.183,5.6824 28.9454,6.1004 C28.281,7.2642 28.028,8.5182 28.1842,9.7898 C28.2832,10.5796 28.501,11.3826 28.8376,12.1262 C29.326,13.2196 30.4546,13.7784 31.7592,13.6398 C32.3906,13.5738 33.022,13.3956 33.616,13.1888 C34.2782,12.96 34.2958,12.7488 33.8382,12.2604 Z M30.5382,5.9552 C31.0178,5.359 31.8098,5.3766 32.2344,6.0014 C32.7096,6.6944 32.7668,7.46 32.747,8.263 C31.7152,8.263 30.7714,8.263 29.7814,8.263 C29.8276,7.4226 29.9882,6.6438 30.5382,5.9552 Z" id="Shape" fill="#000000"></path>
                        <path d="M37.752,19.7998 C37.6596,19.6876 37.543,19.5182 37.4264,19.5138 C36.7246,19.4852 36.0206,19.4962 35.244,19.4962 C35.244,21.584 35.244,23.6432 35.244,25.7134 C33.7172,25.7134 32.2652,25.7134 30.69,25.7134 C30.69,23.6256 30.69,21.5796 30.69,19.5072 C29.8386,19.5072 29.062,19.5072 28.2612,19.5072 C28.2612,24.5782 28.2612,29.6228 28.2612,34.6916 C29.0862,34.6916 29.876,34.6916 30.7208,34.6916 C30.7208,34.4716 30.7208,34.2824 30.7208,34.0976 C30.7208,32.3244 30.7186,30.5622 30.7208,28.7912 C30.7208,27.8166 30.7208,27.8166 31.8868,27.8166 C32.9912,27.8166 34.0956,27.8166 35.2616,27.8166 C35.2616,30.1508 35.2616,32.4146 35.2616,34.696 C36.1174,34.696 36.9094,34.696 37.73,34.696 C37.741,34.5288 37.7586,34.3858 37.7586,34.2494 C37.7586,29.493 37.7586,24.7366 37.7586,19.9846 C37.7586,19.9208 37.7894,19.8416 37.752,19.7998 Z" id="Path" fill="#000000"></path>
                        <path d="M39.1094,8.153 C39.9586,7.1762 40.7704,6.1796 41.5954,5.1918 C41.6966,5.0708 41.7846,4.9432 41.9254,4.7584 C41.6592,4.7584 41.503,4.776 41.3556,4.7562 C40.7528,4.6748 40.3854,4.8706 40.0576,5.3018 C39.3338,6.2522 38.5308,7.1586 37.7564,8.0804 C37.6684,8.1838 37.5584,8.274 37.3472,8.4786 C37.3472,7.1564 37.3472,5.9816 37.3472,4.7826 C36.872,4.7826 36.4562,4.7826 36.003,4.7826 C36.003,7.6118 36.003,10.3948 36.003,13.1756 C36.465,13.1756 36.8808,13.1756 37.367,13.1756 C37.367,12.179 37.345,11.2022 37.3802,10.2298 C37.3934,9.8954 37.5474,9.561 37.6354,9.2266 C37.8972,9.3872 38.0094,9.5302 38.1084,9.6798 C38.8102,10.7336 39.5032,11.7874 40.2116,12.8346 C40.304,12.9732 40.4624,13.1602 40.612,13.18 C41.0124,13.2306 41.4238,13.1976 41.9188,13.1976 C40.9332,11.6972 40.0136,10.2804 39.072,8.8702 C38.8938,8.6062 38.8806,8.4148 39.1094,8.153 Z" id="Path" fill="#000000"></path>
                        <path d="M71.4252,19.4654 C71.0292,19.4522 70.851,19.5644 70.7102,19.8658 C69.7576,21.9646 68.7808,24.0524 67.8106,26.1446 C67.386,27.0598 66.946,27.975 66.517,28.8902 C66.4752,28.8858 66.4422,28.877 66.4004,28.8726 C66.4004,25.7574 66.4004,22.6422 66.4004,19.5028 C65.5468,19.5028 64.7548,19.5028 63.943,19.5028 C63.943,24.5826 63.943,29.6448 63.943,34.7092 C64.7548,34.7092 65.5204,34.7092 66.3564,34.7092 C67.8898,31.396 69.4232,28.0696 70.9698,24.7146 C70.9698,28.0542 70.9698,31.3784 70.9698,34.7004 C71.9334,34.7004 72.8266,34.7004 73.7462,34.7004 C73.7462,29.6206 73.7462,24.576 73.7462,19.4764 C72.9476,19.4764 72.1864,19.4984 71.4252,19.4654 Z" id="Path" fill="#000000"></path>
                        <path d="M24.893,32.5246 C24.1384,32.7578 23.4586,33.024 22.7414,33.1714 C20.4116,33.6488 18.8892,33.0042 18.2248,31.3146 C17.7122,30.0166 17.732,28.6768 17.71,27.2622 C20.262,27.2622 22.737,27.2622 25.3132,27.2622 C25.2076,26.0852 25.1966,24.9368 24.9832,23.8258 C24.7126,22.4332 24.1758,21.0978 23.0648,19.9758 C22.0814,18.9836 20.8978,18.6954 19.4216,19.0958 C17.8882,19.5116 16.9532,20.4752 16.324,21.617 C14.4804,24.9676 14.322,28.4194 15.7344,31.8998 C16.159,32.9514 16.8784,33.8666 18.0752,34.4518 C20.0816,35.4396 23.3266,35.0964 25.3616,33.673 C25.201,33.277 25.0382,32.8766 24.893,32.5246 Z M18.8584,21.7556 C19.217,21.2518 19.6944,20.8404 20.4952,20.8778 C21.2784,20.9196 21.7426,21.3288 22.0572,21.8612 C22.7524,23.0558 22.869,24.3362 22.8624,25.665 C21.1112,25.665 19.4194,25.665 17.6374,25.665 C17.7694,24.2592 18.0158,22.9414 18.8584,21.7556 Z" id="Shape" fill="#000000"></path>
                        <path d="M26.0348,12.2362 C26.0348,9.737 26.0348,7.2686 26.0348,4.7804 C24.5234,4.7804 23.0736,4.7804 21.5402,4.7804 C21.5402,5.3392 21.56,5.8408 21.538,6.3446 C21.4632,8.0958 21.3994,9.8492 20.669,11.5256 C20.4886,11.9392 20.3544,12.3814 19.657,12.289 C19.657,13.2218 19.657,14.1106 19.657,14.995 C20.097,14.995 20.4908,14.995 20.9528,14.995 C20.9528,14.39 20.9528,13.8136 20.9528,13.2372 C22.5984,13.2372 24.1736,13.2372 25.8214,13.2372 C25.8214,13.8466 25.8214,14.423 25.8214,14.9862 C26.2834,14.9862 26.6728,14.9862 27.0468,14.9862 C27.0468,14.0534 27.0468,13.1646 27.0468,12.2758 C26.6948,12.2626 26.3956,12.2494 26.0348,12.2362 Z M24.6158,12.2362 C23.5906,12.2362 22.627,12.2362 21.5886,12.2362 C22.902,10.2034 22.7238,8.0188 22.8184,5.8386 C23.419,5.8386 23.9998,5.8386 24.6158,5.8386 C24.6158,7.9682 24.6158,10.078 24.6158,12.2362 Z" id="Shape" fill="#000000"></path>
                        <path d="M53.6074,19.4984 C53.6074,24.5892 53.6074,29.6426 53.614,34.6982 C54.3708,34.6982 55.0902,34.6982 55.8602,34.6982 C55.8602,30.1398 55.8602,25.6144 55.8602,21.0274 C58.1746,21.0274 60.445,21.0274 62.7088,21.0274 C62.7088,20.484 62.7088,20.0022 62.7088,19.4984 C59.6684,19.4984 56.6676,19.4984 53.6074,19.4984 Z" id="Path" fill="#000000"></path>
                    </g>
                </g>
            </g>
        </g>
    </g>
</svg>