<?xml version="1.0" encoding="UTF-8"?>
<svg width="85px" height="28px" viewBox="0 0 85 28" version="1.1" xmlns="http://www.w3.org/2000/svg" xmlns:xlink="http://www.w3.org/1999/xlink">
    <!-- Generator: Sketch 52.2 (67145) - http://www.bohemiancoding.com/sketch -->
    <title>visa</title>
    <desc>Created with Sketch.</desc>
    <g id="Page-1" stroke="none" stroke-width="1" fill="none" fill-rule="evenodd">
        <g id="IQmining-2" transform="translate(-480.000000, -3145.000000)" fill-rule="nonzero">
            <g id="block-6" transform="translate(301.000000, 2852.000000)">
                <g id="Group-5" transform="translate(20.000000, 219.000000)">
                    <g id="visa" transform="translate(159.000000, 73.000000)">
                        <g id="Group" transform="translate(0.746479, 0.915493)" fill="#2566AF">
                            <path d="M36.5739437,27.1626761 L29.7197183,27.1626761 L34.0035211,0.835915493 L40.8584507,0.835915493 L36.5739437,27.1626761 Z M23.9535211,0.835915493 L17.4190141,18.943662 L16.6457746,15.0443662 L16.6464789,15.0457746 L14.3401408,3.20633803 C14.3401408,3.20633803 14.0612676,0.835915493 11.0887324,0.835915493 L0.285915493,0.835915493 L0.15915493,1.28169014 C0.15915493,1.28169014 3.46267606,1.96901408 7.32887324,4.29084507 L13.2838028,27.1633803 L20.4253521,27.1633803 L31.3302817,0.835915493 L23.9535211,0.835915493 Z M77.865493,27.1626761 L84.1591549,27.1626761 L78.671831,0.835211268 L73.1619718,0.835211268 C70.6176056,0.835211268 69.9978873,2.7971831 69.9978873,2.7971831 L59.7753521,27.1626761 L66.9204225,27.1626761 L68.3492958,23.2521127 L77.0626761,23.2521127 L77.865493,27.1626761 Z M70.3232394,17.85 L73.9246479,7.99788732 L75.9507042,17.85 L70.3232394,17.85 Z M60.3112676,7.16690141 L61.2894366,1.51338028 C61.2894366,1.51338028 58.2711268,0.365492958 55.1246479,0.365492958 C51.7232394,0.365492958 43.6457746,1.85211268 43.6457746,9.08098592 C43.6457746,15.8823944 53.1260563,15.9669014 53.1260563,19.5394366 C53.1260563,23.1119718 44.6225352,22.471831 41.8161972,20.2190141 L40.7971831,26.1302817 C40.7971831,26.1302817 43.8577465,27.6169014 48.5338028,27.6169014 C53.2112676,27.6169014 60.2676056,25.1950704 60.2676056,18.6035211 C60.2676056,11.7584507 50.7021127,11.1211268 50.7021127,8.14507042 C50.7028169,5.16830986 57.378169,5.55070423 60.3112676,7.16690141 Z" id="Shape"></path>
                        </g>
                        <path d="M17.3929577,15.9605634 L15.0866197,4.12112676 C15.0866197,4.12112676 14.8077465,1.75070423 11.8352113,1.75070423 L1.03239437,1.75070423 L0.905633803,2.19647887 C0.905633803,2.19647887 6.09788732,3.27253521 11.078169,7.30422535 C15.8401408,11.1577465 17.3929577,15.9605634 17.3929577,15.9605634 Z" id="Path" fill="#E6A540"></path>
                    </g>
                </g>
            </g>
        </g>
    </g>
</svg>