<?xml version="1.0" encoding="UTF-8"?>
<svg width="60px" height="47px" viewBox="0 0 60 47" version="1.1" xmlns="http://www.w3.org/2000/svg" xmlns:xlink="http://www.w3.org/1999/xlink">
    <!-- Generator: Sketch 52.2 (67145) - http://www.bohemiancoding.com/sketch -->
    <title>mastercard-2</title>
    <desc>Created with Sketch.</desc>
    <g id="Page-1" stroke="none" stroke-width="1" fill="none" fill-rule="evenodd">
        <g id="IQmining-2" transform="translate(-642.000000, -3136.000000)" fill-rule="nonzero">
            <g id="block-6" transform="translate(301.000000, 2852.000000)">
                <g id="Group-5" transform="translate(20.000000, 219.000000)">
                    <g id="mastercard-2" transform="translate(321.000000, 65.000000)">
                        <path d="M58.7883058,46.053973 L58.7883058,46.173913 L58.9001499,46.173913 C58.9211454,46.1742497 58.9418494,46.1689701 58.9601199,46.1586207 C58.9749241,46.1481427 58.9833942,46.1308637 58.9826087,46.1127436 C58.9833773,46.0949568 58.9748643,46.0780443 58.9601199,46.068066 C58.9420578,46.0572081 58.9212059,46.0518908 58.9001499,46.0527736 L58.7883058,46.0527736 L58.7883058,46.053973 Z M58.9013493,45.9691154 C58.9492889,45.9661701 58.9967656,45.9799468 59.0356822,46.008096 C59.0673204,46.03401 59.0847886,46.0733969 59.0827586,46.1142429 C59.0842005,46.1493209 59.0704285,46.1833137 59.0449775,46.2074963 C59.014961,46.2335935 58.9773,46.249268 58.9376312,46.2521739 L59.0875562,46.4230885 L58.9721139,46.4230885 L58.8341829,46.2533733 L58.7895052,46.2533733 L58.7895052,46.4230885 L58.6929535,46.4230885 L58.6929535,45.9694153 L58.9028486,45.9694153 L58.9013493,45.9691154 Z M58.8713643,46.5796102 C58.922003,46.5800869 58.9721721,46.5698691 59.0185907,46.5496252 C59.0633456,46.5303598 59.1040438,46.5027868 59.1385307,46.4683658 C59.1730832,46.4339875 59.2006744,46.3932625 59.2197901,46.3484258 C59.2591385,46.2533871 59.2591385,46.1466129 59.2197901,46.0515742 C59.2003929,46.0068916 59.1728357,45.9662167 59.1385307,45.9316342 C59.1040299,45.89723 59.0633351,45.8696593 59.0185907,45.8503748 C58.9718927,45.8312327 58.9218305,45.8216485 58.8713643,45.8221889 C58.8200289,45.8217119 58.7690965,45.8312872 58.7214393,45.8503748 C58.6756917,45.8692797 58.6340435,45.8968754 58.5988006,45.9316342 C58.4903678,46.0428596 58.4588545,46.2080981 58.5187406,46.3514243 C58.5370012,46.3964285 58.5642422,46.437239 58.5988006,46.4713643 C58.6340627,46.5060995 58.6757059,46.533692 58.7214393,46.5526237 C58.7688104,46.5728551 58.8198558,46.5830642 58.8713643,46.5826087 L58.8713643,46.5796102 Z M58.8713643,45.7130435 C59.0031456,45.71291 59.1296936,45.7646062 59.2236882,45.8569715 C59.2690069,45.9013213 59.3050846,45.9542147 59.3298351,46.0125937 C59.3816221,46.1337276 59.3816221,46.2707701 59.3298351,46.391904 C59.3045027,46.4499633 59.2684969,46.5027514 59.2236882,46.5475262 C59.1776833,46.5916384 59.1241693,46.627179 59.0656672,46.6524738 C59.0042334,46.6785749 58.9381118,46.69184 58.8713643,46.6914543 C58.8038316,46.6919395 58.7369065,46.6786769 58.6746627,46.6524738 C58.615487,46.6277678 58.5614774,46.5921683 58.5154423,46.5475262 C58.4706359,46.5011117 58.4351158,46.4465594 58.4107946,46.3868066 C58.3590076,46.2656727 58.3590076,46.1286302 58.4107946,46.0074963 C58.4355451,45.9491173 58.4716228,45.8962238 58.5169415,45.8518741 C58.5623531,45.8064613 58.6165238,45.7707556 58.6761619,45.7469265 C58.7384058,45.7207234 58.8053309,45.7074608 58.8728636,45.707946 L58.8713643,45.7130435 Z M12.9583208,43.9610195 C12.9583208,43.095952 13.5250375,42.3853073 14.4512744,42.3853073 C15.3364318,42.3853073 15.9337331,43.0653673 15.9337331,43.9610195 C15.9337331,44.8566717 15.3364318,45.5367316 14.4512744,45.5367316 C13.5250375,45.5367316 12.9583208,44.826087 12.9583208,43.9610195 Z M16.9427286,43.9610195 L16.9427286,41.4992504 L15.8725637,41.4992504 L15.8725637,42.0989505 C15.5331334,41.6557721 15.0182909,41.3778111 14.3181409,41.3778111 C12.9388306,41.3778111 11.8563718,42.4596702 11.8563718,43.9622189 C11.8563718,45.4647676 12.9382309,46.5466267 14.3181409,46.5466267 C15.017991,46.5466267 15.5331334,46.2683658 15.8725637,45.8254873 L15.8725637,46.4230885 L16.9415292,46.4230885 L16.9415292,43.9610195 L16.9427286,43.9610195 Z M53.1022489,43.9610195 C53.1022489,43.095952 53.6689655,42.3853073 54.5955022,42.3853073 C55.4815592,42.3853073 56.077961,43.0653673 56.077961,43.9610195 C56.077961,44.8566717 55.4815592,45.5367316 54.5955022,45.5367316 C53.6692654,45.5367316 53.1022489,44.826087 53.1022489,43.9610195 Z M57.0878561,43.9610195 L57.0878561,39.5232384 L56.0167916,39.5232384 L56.0167916,42.0989505 C55.6773613,41.6557721 55.1625187,41.3778111 54.4623688,41.3778111 C53.0830585,41.3778111 52.0005997,42.4596702 52.0005997,43.9622189 C52.0005997,45.4647676 53.0824588,46.5466267 54.4623688,46.5466267 C55.1625187,46.5466267 55.6773613,46.2683658 56.0167916,45.8254873 L56.0167916,46.4230885 L57.0878561,46.4230885 L57.0878561,43.9610195 Z M30.2248876,42.3346327 C30.9145427,42.3346327 31.3574213,42.7670165 31.4704648,43.5283358 L28.9169415,43.5283358 C29.0311844,42.8176912 29.4626687,42.3346327 30.2251874,42.3346327 L30.2248876,42.3346327 Z M30.2464768,41.3751124 C28.8041979,41.3751124 27.7952024,42.4245877 27.7952024,43.9595202 C27.7952024,45.5244378 28.8446777,46.543928 30.3181409,46.543928 C31.0593703,46.543928 31.7382309,46.3589205 32.3355322,45.8542729 L31.8110945,45.0611694 C31.3985007,45.3910045 30.8731634,45.576012 30.3793103,45.576012 C29.6896552,45.576012 29.0617691,45.2566717 28.9073463,44.3706147 L32.5616192,44.3706147 C32.5721139,44.2374813 32.5829085,44.1031484 32.5829085,43.9592204 C32.5721139,42.4248876 31.6233883,41.3748126 30.2458771,41.3748126 L30.2464768,41.3751124 Z M43.1664168,43.9592204 C43.1664168,43.0941529 43.7331334,42.3835082 44.6593703,42.3835082 C45.5445277,42.3835082 46.1418291,43.0635682 46.1418291,43.9592204 C46.1418291,44.8548726 45.5445277,45.5349325 44.6593703,45.5349325 C43.7331334,45.5349325 43.1661169,44.8242879 43.1661169,43.9592204 L43.1664168,43.9592204 Z M47.1505247,43.9592204 L47.1505247,41.4992504 L46.0809595,41.4992504 L46.0809595,42.0989505 C45.7403298,41.6557721 45.2266867,41.3778111 44.5265367,41.3778111 C43.1472264,41.3778111 42.0647676,42.4596702 42.0647676,43.9622189 C42.0647676,45.4647676 43.1466267,46.5466267 44.5265367,46.5466267 C45.2266867,46.5466267 45.7403298,46.2683658 46.0809595,45.8254873 L46.0809595,46.4230885 L47.1508246,46.4230885 L47.1508246,43.9610195 L47.1505247,43.9592204 Z M37.1229385,43.9592204 C37.1229385,45.4521739 38.1622189,46.5436282 39.7484258,46.5436282 C40.4896552,46.5436282 40.9835082,46.3787106 41.5175412,45.9568216 L41.0035982,45.0917541 C40.6017991,45.3805097 40.17991,45.5349325 39.7142429,45.5349325 C38.85997,45.5244378 38.2317841,44.9067466 38.2317841,43.9592204 C38.2317841,43.0116942 38.85997,42.3943028 39.7142429,42.3835082 C40.1787106,42.3835082 40.6005997,42.537931 41.0035982,42.8266867 L41.5175412,41.9616192 C40.9826087,41.5397301 40.4887556,41.3748126 39.7484258,41.3748126 C38.1622189,41.3748126 37.1229385,42.465967 37.1229385,43.9592204 Z M50.9190405,41.3748126 C50.3016492,41.3748126 49.8995502,41.6635682 49.6215892,42.095952 L49.6215892,41.4992504 L48.5610195,41.4992504 L48.5610195,46.4203898 L49.6323838,46.4203898 L49.6323838,43.6617691 C49.6323838,42.8473763 49.9823088,42.3949025 50.6818591,42.3949025 C50.9109352,42.3915961 51.1383985,42.433685 51.3511244,42.5187406 L51.6809595,41.510045 C51.444078,41.4167916 51.1352324,41.3757121 50.9184408,41.3757121 L50.9190405,41.3748126 Z M22.2335832,41.8905547 C21.7187406,41.5511244 21.0092954,41.3757121 20.2266867,41.3757121 C18.97991,41.3757121 18.1772114,41.9733133 18.1772114,42.9511244 C18.1772114,43.7535232 18.7748126,44.2485757 19.8752624,44.4029985 L20.3808096,44.4749625 C20.9676162,44.5574213 21.2446777,44.7118441 21.2446777,44.9898051 C21.2446777,45.3703148 20.8548726,45.5874063 20.1229385,45.5874063 C19.3817091,45.5874063 18.8467766,45.3505247 18.486057,45.0725637 L17.9832084,45.9070465 C18.570015,46.3394303 19.3112444,46.5457271 20.113943,46.5457271 C21.5352324,46.5457271 22.3589205,45.8764618 22.3589205,44.9394303 C22.3589205,44.0743628 21.7106447,43.6218891 20.6395802,43.4674663 L20.1352324,43.3943028 C19.671964,43.3343328 19.3007496,43.2410795 19.3007496,42.9112444 C19.3007496,42.5514243 19.6506747,42.3349325 20.2377811,42.3349325 C20.865967,42.3349325 21.474063,42.5718141 21.7721139,42.7568216 L22.2353823,41.8917541 L22.2335832,41.8905547 Z M36.041979,41.3766117 C35.4245877,41.3766117 35.0224888,41.6653673 34.7457271,42.0977511 L34.7457271,41.4992504 L33.6851574,41.4992504 L33.6851574,46.4203898 L34.7553223,46.4203898 L34.7553223,43.6617691 C34.7553223,42.8473763 35.1052474,42.3949025 35.8047976,42.3949025 C36.0338737,42.3915961 36.261337,42.433685 36.474063,42.5187406 L36.8038981,41.510045 C36.5670165,41.4167916 36.2581709,41.3757121 36.0413793,41.3757121 L36.041979,41.3766117 Z M26.9097451,41.4992504 L25.1598201,41.4992504 L25.1598201,40.0062969 L24.077961,40.0062969 L24.077961,41.4992504 L23.0797601,41.4992504 L23.0797601,42.4773613 L24.077961,42.4773613 L24.077961,44.7223388 C24.077961,45.8641679 24.5211394,46.5442279 25.7871064,46.5442279 C26.2515742,46.5442279 26.7865067,46.4002999 27.125937,46.1637181 L26.8167916,45.2473763 C26.4974513,45.4323838 26.1475262,45.5256372 25.8692654,45.5256372 C25.3343328,45.5256372 25.1598201,45.1958021 25.1598201,44.701949 L25.1598201,42.4782609 L26.9097451,42.4782609 L26.9097451,41.4992504 Z M10.910045,46.4215892 L10.910045,43.3331334 C10.910045,42.170015 10.1688156,41.3874063 8.97391304,41.3769115 C8.34572714,41.3664168 7.69775112,41.561919 7.24407796,42.2524738 C6.90464768,41.7067466 6.36971514,41.3769115 5.61769115,41.3769115 C5.09205397,41.3769115 4.57841079,41.5313343 4.17631184,42.1076462 L4.17631184,41.4992504 L3.10524738,41.4992504 L3.10524738,46.4203898 L4.18470765,46.4203898 L4.18470765,43.6917541 C4.18470765,42.8374813 4.65847076,42.3835082 5.39010495,42.3835082 C6.10074963,42.3835082 6.46026987,42.8467766 6.46026987,43.6809595 L6.46026987,46.4197901 L7.54212894,46.4197901 L7.54212894,43.6911544 C7.54212894,42.8368816 8.03598201,42.3829085 8.74632684,42.3829085 C9.47706147,42.3829085 9.82578711,42.8461769 9.82578711,43.6803598 L9.82578711,46.4191904 L10.910045,46.4215892 Z" id="Shape" fill="#231F20"></path>
                        <path d="M59.3985007,30.331934 L59.3985007,29.331934 L59.2110945,29.331934 L58.9943028,30.018184 L58.7787106,29.331934 L58.5907046,29.331934 L58.5907046,30.331934 L58.7238381,30.331934 L58.7238381,29.5786007 L58.9265367,30.2286007 L59.0644678,30.2286007 L59.2671664,29.576934 L59.2671664,30.331934 L59.3991004,30.331934 L59.3985007,30.331934 Z M58.2095952,30.331934 L58.2095952,29.503184 L58.4494753,29.503184 L58.4494753,29.334434 L57.8365817,29.334434 L57.8365817,29.503184 L58.0764618,29.503184 L58.0764618,30.331934 L58.2083958,30.331934 L58.2095952,30.331934 Z" id="Shape" fill="#F79410"></path>
                        <polygon id="Path" fill="#FF5F00" points="38.098051 33.137931 21.8803598 33.137931 21.8803598 3.99250375 38.0983508 3.99250375"></polygon>
                        <path d="M22.9085457,18.5658171 C22.9085457,12.6536732 25.6767616,7.38710645 29.9874063,3.99310345 C26.7244702,1.42023121 22.6887174,0.0238452948 18.5334333,0.0299850075 C8.29745127,0.0299850075 0,8.32863568 0,18.5658171 C0,28.8029985 8.29745127,37.1016492 18.5334333,37.1016492 C22.6888201,37.1078564 26.7246894,35.7114668 29.9877061,33.1385307 C25.6773613,29.7451274 22.9085457,24.4782609 22.9085457,18.5658171" id="Path" fill="#EB001B"></path>
                        <path d="M59.9775112,18.5658171 C59.9775112,28.8029985 51.68006,37.1016492 41.444078,37.1016492 C37.288252,37.1077481 33.2519429,35.711389 29.9883058,33.1385307 C34.3001499,29.7445277 37.0683658,24.4782609 37.0683658,18.5658171 C37.0683658,12.6533733 34.3001499,7.38710645 29.9883058,3.99310345 C33.2518622,1.42030894 37.2880549,0.0239536156 41.4437781,0.0299850075 C51.6797601,0.0299850075 59.9772114,8.32863568 59.9772114,18.5658171" id="Path" fill="#F79E1B"></path>
                    </g>
                </g>
            </g>
        </g>
    </g>
</svg>